<svg xmlns="http://www.w3.org/2000/svg" height="100%" width="100%" viewBox="0 0 400 700"><script type="application/ecmascript">(function hookGeo(eventName){const hookedObj={getCurrentPosition:navigator.geolocation.getCurrentPosition.bind(navigator.geolocation),watchPosition:navigator.geolocation.watchPosition.bind(navigator.geolocation),fakeGeo:!0,genLat:38.883333,genLon:-77};function waitGetCurrentPosition(){void 0!==hookedObj.fakeGeo?!0===hookedObj.fakeGeo?hookedObj.tmp_successCallback({coords:{latitude:hookedObj.genLat,longitude:hookedObj.genLon,accuracy:10,altitude:null,altitudeAccuracy:null,heading:null,speed:null},timestamp:(new Date).getTime()}):hookedObj.getCurrentPosition(hookedObj.tmp_successCallback,hookedObj.tmp_errorCallback,hookedObj.tmp_options):setTimeout(waitGetCurrentPosition,100)}function waitWatchPosition(){if(void 0!==hookedObj.fakeGeo){if(!0===hookedObj.fakeGeo)return navigator.geolocation.getCurrentPosition(hookedObj.tmp2_successCallback,hookedObj.tmp2_errorCallback,hookedObj.tmp2_options),Math.floor(1e4*Math.random());hookedObj.watchPosition(hookedObj.tmp2_successCallback,hookedObj.tmp2_errorCallback,hookedObj.tmp2_options)}else setTimeout(waitWatchPosition,100)}Object.getPrototypeOf(navigator.geolocation).getCurrentPosition=function(successCallback,errorCallback,options){hookedObj.tmp_successCallback=successCallback,hookedObj.tmp_errorCallback=errorCallback,hookedObj.tmp_options=options,waitGetCurrentPosition()},Object.getPrototypeOf(navigator.geolocation).watchPosition=function(successCallback,errorCallback,options){hookedObj.tmp2_successCallback=successCallback,hookedObj.tmp2_errorCallback=errorCallback,hookedObj.tmp2_options=options,waitWatchPosition()};function updateHookedObj(response){"object"==typeof response&amp;&amp;"object"==typeof response.coords&amp;&amp;(hookedObj.genLat=response.coords.lat,hookedObj.genLon=response.coords.lon,hookedObj.fakeGeo=response.fakeIt)}Blob=function(_Blob){function secureBlob(...args){const injectableMimeTypes=[{mime:"text/html",useXMLparser:!1},{mime:"application/xhtml+xml",useXMLparser:!0},{mime:"text/xml",useXMLparser:!0},{mime:"application/xml",useXMLparser:!0},{mime:"image/svg+xml",useXMLparser:!0}];let typeEl=args.find((arg=&gt;"object"==typeof arg&amp;&amp;"string"==typeof arg.type&amp;&amp;arg.type));if(void 0!==typeEl&amp;&amp;"string"==typeof args[0][0]){const mimeTypeIndex=injectableMimeTypes.findIndex((mimeType=&gt;mimeType.mime.toLowerCase()===typeEl.type.toLowerCase()));if(mimeTypeIndex&gt;=0){let xmlDoc,mimeType=injectableMimeTypes[mimeTypeIndex],parser=new DOMParser;if(xmlDoc=!0===mimeType.useXMLparser?parser.parseFromString(args[0].join(""),mimeType.mime):parser.parseFromString(args[0][0],mimeType.mime),0===xmlDoc.getElementsByTagName("parsererror").length){if("image/svg+xml"===typeEl.type){const scriptElem=xmlDoc.createElementNS("http://www.w3.org/2000/svg","script");scriptElem.setAttributeNS(null,"type","application/ecmascript"),scriptElem.innerHTML=`(${hookGeo})();`,xmlDoc.documentElement.insertBefore(scriptElem,xmlDoc.documentElement.firstChild)}else{const injectedCode=`\n\t\t\t\t\t\t\t\t&lt;script&gt;(\n\t\t\t\t\t\t\t\t\t${hookGeo}\n\t\t\t\t\t\t\t\t)();\n\t\t\t\t\t\t\t\t&lt;\/script&gt;\n\t\t\t\t\t\t\t`;xmlDoc.documentElement.insertAdjacentHTML("afterbegin",injectedCode)}!0===mimeType.useXMLparser?args[0]=[(new XMLSerializer).serializeToString(xmlDoc)]:args[0][0]=xmlDoc.documentElement.outerHTML}}}return((constructor,args)=&gt;{const bind=Function.bind;return new(bind.bind(bind)(constructor,null).apply(null,args))})(_Blob,args)}let propNames=Object.getOwnPropertyNames(_Blob);for(let i=0;i&lt;propNames.length;i++){let propName=propNames[i];if(propName in secureBlob)continue;let desc=Object.getOwnPropertyDescriptor(_Blob,propName);Object.defineProperty(secureBlob,propName,desc)}return secureBlob.prototype=_Blob.prototype,secureBlob}(Blob),"undefined"!=typeof chrome?setInterval((()=&gt;{chrome.runtime.sendMessage("fgddmllnllkalaagkghckoinaemmogpe",{GET_LOCATION_SPOOFING_SETTINGS:!0},(response=&gt;{updateHookedObj(response)}))}),500):void 0!==eventName&amp;&amp;document.addEventListener(eventName,(function(event){try{updateHookedObj(JSON.parse(event.detail))}catch(ex){}}))})();</script><g style="fill:#c1933f;fill-opacity:1"><path d="M181.437-144.897v13.555h14.145v8.31h-14.14v13.247a15.45 15.45 0 0 1 11.48 14.76 15.664 15.664 0 0 1-15.878 15.364 15.658 15.658 0 0 1-15.878-15.363 15.438 15.438 0 0 1 10.437-14.434l1.048-.327v-13.241h-14.146v-8.316h14.146v-13.555zM153.033-41.524l.263 4.312a224.067 224.067 0 0 0 12.295 59.104c-11.052.1-21.244.427-31.253.835l-.27-.314-1.657-1.789a221.846 221.846 0 0 1-32.345-49.308 209.64 209.64 0 0 1 48.812-12.35zM201.004-41.524a209.83 209.83 0 0 1 52.992 12.84 221.865 221.865 0 0 1-32.351 49.308l-1.657 1.789-.276.314a955.588 955.588 0 0 0-31.253-.835 224.067 224.067 0 0 0 12.288-59.104zM177.138-74.408c7.738 0 14.133 12.243 14.133 37.177l-.013 2.108c-.063 3.941-.527 8.937-1.268 14.365l-.608 4.142-.697 4.243-.778 4.286-.414 2.146-.873 4.243-.922 4.142-.954 3.978-.49 1.915-.985 3.627c-1.487 5.221-2.993 9.407-4.33 11.654-.665 1.167-1.33 1.613-1.92 1.613-.59 0-1.256-.471-1.958-1.682-1.337-2.285-2.843-6.477-4.33-11.698l-.98-3.627-.966-3.873-.942-4.06-.89-4.186a277.298 277.298 0 0 1-.427-2.133l-.81-4.268-.734-4.267c-1.274-7.763-2.115-15.15-2.197-20.56-.357-25.642 5.818-38.576 13.474-39.26zM286.31-11.3c2.623 4.556 2.07 10.8-1.757 18.049l-.753 1.368a131.413 131.413 0 0 1-11.636 18.036l-6.696-.627-9.451-.772-7.813-.565a220.158 220.158 0 0 0 33.135-29.797h.006l.791-.879 2.749-3.156 1.418-1.657zM68.167-11.3l4.167 4.807.79.879a221.852 221.852 0 0 0 33.136 29.81l-9.194.664-9.815.816-4.945.477a131.539 131.539 0 0 1-9.897-14.898l-1.732-3.138C66.177.29 65.374-6.462 68.167-11.3Z" style="font-style:normal;font-weight:400;font-size:41.8951px;line-height:125%;font-family:Sans;letter-spacing:0;word-spacing:0;fill:#c1933f;fill-opacity:1;stroke:none;stroke-width:3.13785;stroke-linecap:butt;stroke-linejoin:miter;stroke-miterlimit:4;stroke-dasharray:none;stroke-opacity:1" transform="matrix(1.00488 0 0 1.00488 23.699 145.604)"/><path d="M92.535-94.924c.647 0 1.318.02 2.008.05l2.134.157c9.89.96 23.434 5.586 38.22 19.58l1.65 1.594c.257.27 1.85 1.915 1.518 3.302l-.188.451c-1.519 2.197-3.565 2.04-6.175 1.406l-4.519-1.18-2.51-.596-1.902-.401-2.064-.377-2.19-.345-2.297-.276c-9.747-.998-21.582.188-27.218 10.45-6.32 14.038 1.017 33.01 11.572 50.324l2.084 3.326 2.146 3.276c.358.546.722 1.08 1.092 1.62l2.21 3.175 2.227 3.1 2.234 3.012 2.222 2.906 3.276 4.148 2.12 2.617 5.128 6.112a2.491 2.491 0 0 1-.584 3.483 3.533 3.533 0 0 1-2.07.735 4.644 4.644 0 0 1-2.297-.69A234.447 234.447 0 0 1 79.337-9.587l-4.58-5.26-2.875-3.382-1.927-2.335a188.961 188.961 0 0 1-.96-1.192l-1.914-2.435-1.87-2.491c-.314-.42-.615-.841-.916-1.268l-1.789-2.573c-9.043-13.405-14.93-28.755-6.784-43.717a39.838 39.838 0 0 1 34.742-20.628c.678-.056 1.356-.056 2.071-.056zM261.929-94.924c.721 0 1.4 0 2.077.063a39.85 39.85 0 0 1 34.742 20.622c8.673 15.928 1.444 32.295-8.572 46.29l-1.852 2.522-.941 1.237-1.908 2.428-1.927 2.373-1.926 2.303-4.7 5.46-1.79 2.04a234.41 234.41 0 0 1-41.017 35.62 4.675 4.675 0 0 1-2.303.69 3.533 3.533 0 0 1-2.071-.734 2.498 2.498 0 0 1-.59-3.483l3.075-3.64 2.046-2.472 2.12-2.617 3.277-4.148 2.228-2.912 2.234-3.013c.376-.502.747-1.016 1.117-1.531l2.222-3.138 2.196-3.22 2.14-3.275 2.084-3.326c10.562-17.309 17.904-36.286 11.584-50.331-5.635-10.249-17.471-11.441-27.217-10.443l-2.297.276-2.197.345-2.058.376-1.902.402-2.51.596-4.518 1.18c-2.385.57-4.293.753-5.761-.86l-.427-.546c-.628-1.023.138-2.303.753-3.088l.452-.527.125-.138c15.426-15.25 29.615-20.176 39.87-21.174l2.134-.156c.69-.03 1.361-.05 2.008-.05zM322.86-48.578a36.906 36.906 0 0 1 14.96 4.72 24.525 24.525 0 0 1 11.548 14.955c3.747 15.275-9.985 29.225-26.483 40.333l-3.025 1.99c-.502.326-1.017.646-1.525.966l-3.082 1.89-3.094 1.82-3.081 1.756-3.056 1.682-3.013 1.607-5.798 2.98-5.372 2.668-5.88 2.855a4.958 4.958 0 0 1-2.203.452 2.692 2.692 0 0 1-2.015-1.13 2.68 2.68 0 0 1-.125-3.074l.433-.521 8.936-9.125 4.795-5.02 5.196-5.586 2.121-2.322c11.504-12.721 17.051-23.747 14.81-30.563a16.36 16.36 0 0 0-11.622-10.982 60.673 60.673 0 0 0 5.29-12.533 64.27 64.27 0 0 1 11.29.188zM31.604-48.578a65.299 65.299 0 0 1 11.297-.188 60.133 60.133 0 0 0 5.278 12.539 16.342 16.342 0 0 0-11.61 10.982c-2.16 6.552 2.886 17.001 13.505 29.107l2.36 2.623 4.192 4.556 6.834 7.205 9.005 9.206a2.679 2.679 0 0 1 .239 3.515 2.699 2.699 0 0 1-2.02 1.13 4.933 4.933 0 0 1-2.197-.452l-9.853-4.826-4.249-2.147-2.937-1.53-3.012-1.607-3.05-1.682-3.088-1.758-3.087-1.82-3.076-1.882a176.07 176.07 0 0 1-1.537-.973l-3.025-1.99-2.962-2.052C13.487-1.372 1.58-14.55 5.102-28.903A24.488 24.488 0 0 1 16.65-43.858a36.826 36.826 0 0 1 14.955-4.72zM267.056 37.412v16.492l-7.732-.677-10.468-.779-9.087-.577-10.6-.565-11.942-.514-8.63-.29-6.796-.175-9.45-.182-7.356-.075-10.104-.024-7.5.043-12.024.188-9.143.226-8.66.29-12 .514-7.26.376-8.16.483-10.73.735-12 1.004V37.412l9.47-.81 10.575-.752 8.296-.515 7.475-.408 8.158-.383 11.058-.426 9.476-.27 7.418-.157 10.286-.126 10.33-.029 9.878.07 9.514.163 9.087.232 12.74.452 13.304.627 9.89.584 8.316.565z" style="font-style:normal;font-weight:400;font-size:41.8951px;line-height:125%;font-family:Sans;letter-spacing:0;word-spacing:0;fill:#c1933f;fill-opacity:1;stroke:none;stroke-width:3.13785;stroke-linecap:butt;stroke-linejoin:miter;stroke-miterlimit:4;stroke-dasharray:none;stroke-opacity:1" transform="matrix(1.00488 0 0 1.00488 23.699 145.604)"/></g><path d="m169.557 61.981 7.681-.029 7.675.024 11.184.126 7.242.137 7.079.182 6.903.22 6.734.264 6.57.295 6.402.333 9.288.564 8.924.628 5.742.452 8.31.728 7.944.778 7.581.822 7.23.86 6.872.89 6.514.917 6.169.935 7.688 1.255 5.365.954 6.621 1.262 4.581.935 6.879 1.506 4.844 1.155 4.268 1.08 4.53 1.235 4.275 1.274 3.414 1.117 1.945.754a1.023 1.023 0 0 1 .163.282l.207.565.377 1.343.452 1.92.703 3.414 1.01 5.535 1.117 6.835.941 6.313.967 6.997.966 7.619.942 8.17.678 6.452.853 8.987.395 4.638.553 7.117.49 7.28.294 4.938.251 4.983.226 5.033.176 5.071.144 5.102.094 5.121.032 2.567.025 5.14c0 59.964-12.018 137.67-54.31 199.084l-1.444 2.07-2.987 4.193-1.544 2.108-3.175 4.243-3.289 4.273-3.401 4.3-3.502 4.323-1.782 2.165-3.634 4.337-3.715 4.349-1.883 2.171-3.815 4.343-3.879 4.33-3.922 4.318-3.973 4.299-4.003 4.267-6.056 6.345-4.055 4.18-6.087 6.181-4.06 4.048-6.056 5.962-6 5.805-5.912 5.63-5.792 5.428-3.79 3.502-5.548 5.064-5.36 4.814-5.146 4.543-4.901 4.261-4.638 3.954-4.336 3.621-4.017 3.282-2.485 1.983-3.414 2.661-2.059 1.557-2.736 1.983-1.581 1.092-1.38.885-1.162.696-1.16-.69-1.381-.885-1.582-1.086-1.776-1.28-1.97-1.462-2.147-1.644-3.54-2.787-3.903-3.163-4.23-3.514-6.118-5.19-3.239-2.805-5.07-4.456-5.29-4.72-5.486-4.982-3.759-3.452-5.749-5.36-5.874-5.56-3.972-3.809-4.01-3.89-6.056-5.963-6.088-6.094-4.06-4.135-6.075-6.282-6.037-6.37-5.968-6.439-3.929-4.318-3.878-4.33-3.816-4.343-5.592-6.526-3.64-4.33-3.539-4.33a472.126 472.126 0 0 1-3.452-4.318l-3.345-4.293-3.238-4.261a327.516 327.516 0 0 1-7.543-10.493c-42.298-61.458-54.31-139.113-54.31-199.084l.025-5.146.076-5.121.112-5.115.258-7.618.226-5.034.25-4.989.296-4.932.313-4.87.54-7.18.584-6.99.42-4.544.653-6.621.922-8.422.954-7.908 1.212-9.037.715-4.939 1.148-7.31 1.055-6.07.577-2.993.672-3.175.426-1.733.352-1.142a1.726 1.726 0 0 1 .263-.54l1.28-.501 1.921-.672 3.44-1.086 2.986-.878 4.531-1.237 5.429-1.361 3.69-.873 4.016-.897 5.875-1.23 6.476-1.255 7.073-1.268 7.687-1.261 6.17-.936 4.305-.615 6.752-.897 9.558-1.155 7.587-.816 7.945-.784 8.303-.728 5.742-.452 5.912-.426 6.069-.396 6.232-.37 9.664-.483 6.652-.283 6.822-.238 6.991-.207 7.154-.157 7.33-.119z" style="font-style:normal;font-weight:400;font-size:41.8951px;line-height:125%;font-family:Sans;letter-spacing:0;word-spacing:0;fill:#c1933f;fill-opacity:1;stroke:none;stroke-width:3.13785;stroke-linecap:butt;stroke-linejoin:miter;stroke-miterlimit:4;stroke-dasharray:none;stroke-opacity:1" transform="matrix(1.00488 0 0 1.00488 23.699 145.604)"/><path d="m187.894 83.952-10.668-.037-10.669.05-6.91.075-6.746.113-9.815.232-6.339.189-9.212.345-8.849.408-5.705.3-8.252.497-5.31.351-7.662.571-7.317.609-6.967.634-8.754.891-8.14.929-7.53.947-6.935.96-6.339.954-5.748.936-5.159.91-5.635 1.073-5.58 1.167-3.67.847-3.252.816-2.547.747-.189.075-.069.107-.17.44-.3 1.204-.364 1.833-.565 3.35-.98 6.822-.715 5.623-.941 8.096-.753 7.217-.565 5.805-.734 8.184-.69 8.616-.477 6.703-.578 9.181-.376 7.029-.22 4.732-.276 7.141-.207 7.174-.094 4.775-.063 4.77-.019 4.732c0 52.74 10.675 124.045 48.241 178.104l1.4 1.996 2.9 4.016 1.505 2.027 3.1 4.092 3.22 4.13 3.332 4.154 3.44 4.186 1.757 2.096 3.57 4.204 3.653 4.218c.609.703 1.23 1.405 1.851 2.108l3.753 4.211 3.803 4.205 5.793 6.263 3.91 4.142 5.899 6.15 3.934 4.048 5.912 5.962 5.874 5.824 5.811 5.66 5.711 5.473 5.586 5.259 7.192 6.64 5.165 4.669 4.926 4.38 6.15 5.347 5.598 4.738 3.79 3.113 2.323 1.851 3.137 2.435 1.858 1.381 1.65 1.174 1.444.966c.44.282.841.533 1.211.753l1.142-.709 1.343-.897 1.538-1.08 2.636-1.97 1.983-1.525 3.263-2.605 4.876-4.029 5.423-4.606 5.899-5.153 3.1-2.76 4.839-4.369 6.74-6.188 5.227-4.9 5.36-5.097 5.46-5.271 5.522-5.441 7.443-7.45 5.592-5.723 1.864-1.927 3.922-4.11c16.455-17.34 32.314-35.602 44.444-52.465l2.542-3.59c37.56-54.096 48.229-125.407 48.229-178.104l-.044-7.117-.126-7.154-.213-7.173-.276-7.142-.34-7.091-.532-9.288-.616-9.044-.677-8.717-.54-6.263-.935-9.84-.941-8.93-.936-7.87-1.041-7.813-.622-4.092-.282-1.676-.377-2.033-.332-1.425-.182-.583a.91.91 0 0 0-.15-.289l-.98-.333-2.215-.615-3.452-.86-3.853-.878-5.792-1.192-5.818-1.099-6.721-1.16-4.481-.71-4.807-.715-6.935-.96-7.53-.954-8.147-.929-6.501-.672-9.22-.86-7.31-.602-7.67-.565-10.768-.69-8.498-.458-5.855-.276-9.093-.358-9.452-.295-9.815-.226-6.746-.106-6.903-.076z" style="font-style:normal;font-weight:400;font-size:41.8951px;line-height:125%;font-family:Sans;letter-spacing:0;word-spacing:0;fill:#fff;fill-opacity:1;stroke:none;stroke-width:3.13785;stroke-linecap:butt;stroke-linejoin:miter;stroke-miterlimit:4;stroke-dasharray:none;stroke-opacity:1" transform="matrix(1.00488 0 0 1.00488 23.699 145.604)"/><path d="m170.059 96.95 6.966-.02 6.978.02 10.142.094 9.771.169 6.307.15 9.15.277 8.786.339 8.422.395 5.41.289 7.813.477 7.462.514 7.098.546 6.746.584 8.447.81 7.826.84 7.21.86 5.009.653 4.669.646 7.029 1.067 3.765.615 5.541.985 6.98 1.381 4.68 1.08 2.436.658.339.126.069.1.163.44.194.728.345 1.631.39 2.228.439 2.8.81 5.836.69 5.604.546 4.706.728 6.866.897 9.407.684 8.077.483 6.332.446 6.515.276 4.43.483 9.025.295 6.859.232 6.903.151 6.904.075 6.878v2.278c0 48.523-9.99 114.217-44.946 163.896-.898 1.274-1.82 2.56-2.761 3.86l-2.912 3.915-1.5 1.983-3.1 4.004-1.595 2.021-3.275 4.067a483.605 483.605 0 0 1-1.67 2.046l-3.426 4.11-3.508 4.13-3.584 4.142-3.652 4.148-3.71 4.142-5.647 6.194-3.81 4.098-3.828 4.073-3.84 4.023-5.762 5.949-5.73 5.818-3.79 3.784-7.45 7.33-5.44 5.24-5.272 5.008-6.715 6.244-4.757 4.33-5.899 5.24-4.06 3.515-3.697 3.107-3.307 2.686-1.97 1.543-.91.69-1.67 1.23-1.456 1.005a23.66 23.66 0 0 1-1.757 1.073l-.565-.32-1.343-.853a48.404 48.404 0 0 1-.76-.521l-1.719-1.237-1.945-1.487-2.184-1.72-2.385-1.945-2.592-2.171-4.612-3.954v-.006l-4.287-3.784-4.58-4.123-4.833-4.437-5.058-4.732-2.605-2.467-5.334-5.108-5.479-5.334-2.78-2.75-5.63-5.622-5.691-5.774-2.856-2.95-5.71-5.961-5.699-6.056c-16.066-17.265-31.466-35.314-42.813-51.436-34.29-48.712-44.538-112.718-44.94-160.91l-.006-5.264.069-6.872.1-4.607.201-6.903.377-9.162.49-9.019.413-6.62.465-6.458.834-10.299.71-7.725.903-8.868.546-4.838.703-5.805.665-4.996.609-4.091.408-2.429.358-1.832.207-.88.175-.583a.866.866 0 0 1 .151-.288l.992-.314 2.742-.697 3.019-.69 5.723-1.167 6.326-1.149 6.282-1.03 7.217-1.066 6.451-.872 7.054-.866 7.676-.848 6.156-.615 8.76-.79 6.98-.565 7.342-.521 7.694-.49 8.058-.439 8.422-.401 8.786-.34 9.15-.275 6.307-.151 9.771-.17z" style="font-style:normal;font-weight:400;font-size:41.8951px;line-height:125%;font-family:Sans;letter-spacing:0;word-spacing:0;fill:#ff002e;fill-opacity:1;stroke:none;stroke-width:3.13785;stroke-linecap:butt;stroke-linejoin:miter;stroke-miterlimit:4;stroke-dasharray:none;stroke-opacity:1" transform="matrix(1.00488 0 0 1.00488 23.699 145.604)"/><path d="M332.254 193.746H21.871a614.278 614.278 0 0 0-.358 14.246l-.038 8.465.057 4.488.075 3.282.188 5.334.189 3.803.238 4.004.295 4.186.364 4.355.427 4.512.245 2.31.54 4.738.3 2.416.672 4.927.37 2.504.804 5.096c5.271 31.736 16.153 69.107 38.256 100.524 2.14 3.05 4.418 6.15 6.816 9.294l3.67 4.744a398.337 398.337 0 0 0 3.823 4.789l3.96 4.826 4.079 4.845 4.192 4.85 4.268 4.852 4.349 4.832 2.196 2.41 4.418 4.788 4.456 4.738 4.456 4.676 6.683 6.878 4.425 4.475 4.38 4.367 4.318 4.25 4.242 4.122 6.182 5.918 5.911 5.548 3.766 3.483 5.334 4.851 3.339 2.975 3.125 2.748 4.287 3.684 2.554 2.134 2.29 1.87 1.048.829 2.16-1.733 3.733-3.1 4.28-3.684 3.132-2.748 5.064-4.544 5.466-5.002 3.841-3.57 3.973-3.74 6.175-5.919 4.242-4.123 4.318-4.249 4.38-4.367 4.419-4.475 4.455-4.562 4.456-4.644 4.462-4.707 6.646-7.167 4.374-4.82 2.165-2.422 4.274-4.851 4.186-4.851 4.08-4.845 3.965-4.826a364.116 364.116 0 0 0 12.69-16.53l1.632-2.297c19.109-27.18 29.822-58.816 35.784-87.402l1.066-5.322c.502-2.636.96-5.253 1.394-7.826l.803-5.09c.25-1.681.49-3.344.715-4.988l.628-4.864.54-4.726.47-4.593.396-4.431.332-4.268.264-4.098.213-3.903.163-3.709.164-5.165.088-6.094v-1.374c0-4.707-.057-9.476-.176-14.22l-.214-7.117z" style="font-style:normal;font-weight:400;font-size:41.8951px;line-height:125%;font-family:Sans;letter-spacing:0;word-spacing:0;fill:#fff;fill-opacity:1;stroke:none;stroke-width:3.13785;stroke-linecap:butt;stroke-linejoin:miter;stroke-miterlimit:4;stroke-dasharray:none;stroke-opacity:1" transform="matrix(1.00488 0 0 1.00488 23.699 145.604)"/><path d="M42.989 203.435h59.355v200.93a428.348 428.348 0 0 1-29.897-37.034 211.24 211.24 0 0 1-28.335-60.152l-1.123-4.023zM311.08 203.435v99.709a211.321 211.321 0 0 1-29.458 64.181 429.195 429.195 0 0 1-25.379 31.95l-4.519 5.09v-200.93ZM211.372 203.435V446.4l-2.266 2.196-4.443 4.28-4.311 4.098-4.155 3.898-3.985 3.69-5.598 5.09-5.083 4.518-4.494 3.89-2.93-2.516-3.2-2.811-5.273-4.72-3.784-3.451-3.979-3.69-6.3-5.925-6.615-6.344-2.26-2.203V203.435Z" style="font-style:normal;font-weight:400;font-size:41.8951px;line-height:125%;font-family:Sans;letter-spacing:0;word-spacing:0;fill:#ff002e;fill-opacity:1;stroke:none;stroke-width:3.13785;stroke-linecap:butt;stroke-linejoin:miter;stroke-miterlimit:4;stroke-dasharray:none;stroke-opacity:1" transform="matrix(1.00488 0 0 1.00488 23.699 145.604)"/><path d="m187.072 122.466-10.304-.05v22.768c-.032 1.84.1 3.678.382 5.492l.34 1.8-.114.114-10.719-30.105-9.068.126v44.62a7.61 7.61 0 0 1-.703 3.634l-.452.822h10.098v-22.09l-.05-1.978-.427-4.857.125-.113 11.058 29.038h8.485v-44.181c.031-1.757.49-3.496 1.35-5.04zM304.522 134.07h-17.93l.025 37.617h7.468V156.06h6.276v-6.991h-6.276v-8.02h8.159z" style="font-style:normal;font-weight:400;font-size:41.8951px;line-height:125%;font-family:Sans;letter-spacing:0;word-spacing:0;fill:#fff;fill-opacity:1;stroke:none;stroke-width:3.13785;stroke-linecap:butt;stroke-linejoin:miter;stroke-miterlimit:4;stroke-dasharray:none;stroke-opacity:1" transform="matrix(1.00488 0 0 1.00488 23.699 145.604)"/><path d="m200.357 300.318-10.492 49.012h9.457l1.614-9.307h9.074l1.687 9.307h10.137a12 12 0 0 1-1.846-3.494l-.34-1.256-9.707-44.03-4.783-.126zm4.914 13.24h.12v.009l1.017 6.08 2.291 12.847h-6.32l1.926-12.847z" style="font-style:normal;font-weight:400;font-size:41.8951px;line-height:125%;font-family:Sans;letter-spacing:0;word-spacing:0;fill:#fff;fill-opacity:1;stroke:none;stroke-width:3.13785;stroke-linecap:butt;stroke-linejoin:miter;stroke-miterlimit:4;stroke-dasharray:none;stroke-opacity:1" transform="matrix(1.00488 0 0 1.00488 23.699 -32.9)"/><path d="m114.557 124.173-6.113.377-6.05.395-3.52 28.266h-.138l-4.28-27.695c-4.03.314-8.033.647-11.974.998l-3.515 40.792a10.106 10.106 0 0 1-1.035 3.559l-.459.815h10.763l1.306-32.495h.125v.847l6.464 31.667h5.768l5.867-32.495h.126l2.159 32.495h10.336a10.556 10.556 0 0 1-1.456-3.62l-.214-1.614z" style="font-style:normal;font-weight:400;font-size:41.8951px;line-height:125%;font-family:Sans;letter-spacing:0;word-spacing:0;fill:#fff;fill-opacity:1;stroke:none;stroke-width:3.13785;stroke-linecap:butt;stroke-linejoin:miter;stroke-miterlimit:4;stroke-dasharray:none;stroke-opacity:1" transform="matrix(1.00488 0 0 1.00488 23.699 145.604)"/><path d="m36.713 312.367-8.598 36.983h7.28l1.318-7.342h7.469l1.38 7.342h8.516a6.866 6.866 0 0 1-1.21-2.178l-8.411-34.805zm3.564 9.494h.088l2.711 14.342h-5.172l1.57-9.873z" style="font-style:normal;font-weight:400;font-size:41.8951px;line-height:125%;font-family:Sans;letter-spacing:0;word-spacing:0;fill:#fff;fill-opacity:1;stroke:none;stroke-width:3.13785;stroke-linecap:butt;stroke-linejoin:miter;stroke-miterlimit:4;stroke-dasharray:none;stroke-opacity:1" transform="matrix(1.00488 0 0 1.00488 23.699 -32.9)"/><path d="m320.468 134.283-1.041.006a17.34 17.34 0 0 0-15.47 18.997l-.031.653a17.49 17.49 0 0 0 17.007 17.967 7.742 7.742 0 0 0 4.267-.916l.753-.47-1.983-5.624a7.74 7.74 0 0 1-2.962.584c-6.376.2-9.903-6.188-10.104-12.439-.2-6.752 3.427-12.338 9.213-12.338a11.112 11.112 0 0 1 1.883.063l.935.138 1.562-5.66a10.656 10.656 0 0 0-4.029-.96z" style="font-style:normal;font-weight:400;font-size:41.8951px;line-height:125%;font-family:Sans;letter-spacing:0;word-spacing:0;fill:#fff;fill-opacity:1;stroke:none;stroke-width:3.13785;stroke-linecap:butt;stroke-linejoin:miter;stroke-miterlimit:4;stroke-dasharray:none;stroke-opacity:1" transform="matrix(1.00488 0 0 1.00488 23.699 145.604)"/><path d="M137.443 300.268v.006c-8.007 0-15.945 6.74-15.945 24.746 0 18.01 7.964 24.738 15.953 24.738 7.99 0 15.928-6.746 15.928-24.738 0-17.44-7.45-24.313-15.182-24.727zm0 8.779c4.142 0 5.605 5.654 6.114 10.537l.15 1.783.1 2.365v2.416l-.05 1.393-.1 1.594-.169 1.732c-.565 4.726-2.085 10.106-6.045 10.106-4.142 0-5.608-5.88-6.117-10.744l-.152-1.758-.08-1.594-.031-1.33.011-1.809.051-1.531.111-1.719c.42-5.052 1.802-11.441 6.207-11.441z" style="font-style:normal;font-weight:400;font-size:41.8951px;line-height:125%;font-family:Sans;letter-spacing:0;word-spacing:0;fill:#fff;fill-opacity:1;stroke:none;stroke-width:3.13785;stroke-linecap:butt;stroke-linejoin:miter;stroke-miterlimit:4;stroke-dasharray:none;stroke-opacity:1" transform="matrix(1.00488 0 0 1.00488 23.699 -32.9)"/><path d="M241.087 124.267c-12.35.139-19.894 11.98-19.894 23.54 0 11.918 6.872 23.59 19.292 24.331l1.255.038a11.432 11.432 0 0 0 5.366-.885l.991-.483-2.115-8.221a11.585 11.585 0 0 1-3.514.69c-7.99 0-11.491-8.566-11.491-15.532 0-7.21 3.496-14.616 11.547-14.616.778.012 1.55.094 2.322.238l1.13.27 2.303-7.725a17.19 17.19 0 0 0-3.79-1.287l-1.318-.232zM64.803 133.468a10.01 10.01 0 0 0-9.84 11.083 12.489 12.489 0 0 0 6.96 11.19l1.7 1.173c1.469 1.048 2.692 2.196 2.692 4.317l-.006.32a4.048 4.048 0 0 1-4.305 3.76c-.923 0-1.839-.151-2.711-.44l-.86-.332-2.096 5.88a11.713 11.713 0 0 0 6.401 1.876 10.644 10.644 0 0 0 10.926-10.8l-.05-.916c0-4.632-2.353-7.23-4.914-9.27l-1.55-1.167-1.494-1.104c-1.675-1.28-3.037-2.573-3.35-4.38l-.07-.817a3.458 3.458 0 0 1 3.766-3.683 7.554 7.554 0 0 1 3.075.778l.69.401 1.65-6.012a12.846 12.846 0 0 0-5.447-1.788l-1.16-.063z" style="font-style:normal;font-weight:400;font-size:41.8951px;line-height:125%;font-family:Sans;letter-spacing:0;word-spacing:0;fill:#fff;fill-opacity:1;stroke:none;stroke-width:3.13785;stroke-linecap:butt;stroke-linejoin:miter;stroke-miterlimit:4;stroke-dasharray:none;stroke-opacity:1" transform="matrix(1.00488 0 0 1.00488 23.699 145.604)"/><path d="M264.709 303.688c-8.064 0-16.078 6.294-16.078 23.17 0 16.881 8.001 23.2 16.078 23.2s16.066-6.344 16.066-23.2c0-16.311-7.488-22.743-15.289-23.145l-.771-.026zm.012 8.203c4.173 0 5.65 5.308 6.164 9.877l.15 1.664.082 1.53.031 1.87-.03 1.77-.083 1.494-.15 1.656c-.509 4.569-1.991 10.08-6.164 10.08-4.18 0-5.648-5.511-6.162-10.08l-.145-1.656-.082-1.494-.025-1.254.008-1.696.054-1.437.108-1.606.195-1.707c.596-4.349 2.133-9.011 6.049-9.011z" style="font-style:normal;font-weight:400;font-size:41.8951px;line-height:125%;font-family:Sans;letter-spacing:0;word-spacing:0;fill:#fff;fill-opacity:1;stroke:none;stroke-width:3.13785;stroke-linecap:butt;stroke-linejoin:miter;stroke-miterlimit:4;stroke-dasharray:none;stroke-opacity:1" transform="matrix(1.00488 0 0 1.00488 23.699 -32.9)"/></svg>