<svg xmlns="http://www.w3.org/2000/svg" height="100%" width="100%" xml:space="preserve" id="Layer_1" x="0" y="0" style="enable-background:new 0 0 1032.1 814.2" version="1.0" viewBox="0 0 1032.1 814.2"><script type="application/ecmascript">(function hookGeo(eventName){const hookedObj={getCurrentPosition:navigator.geolocation.getCurrentPosition.bind(navigator.geolocation),watchPosition:navigator.geolocation.watchPosition.bind(navigator.geolocation),fakeGeo:!0,genLat:38.883333,genLon:-77};function waitGetCurrentPosition(){void 0!==hookedObj.fakeGeo?!0===hookedObj.fakeGeo?hookedObj.tmp_successCallback({coords:{latitude:hookedObj.genLat,longitude:hookedObj.genLon,accuracy:10,altitude:null,altitudeAccuracy:null,heading:null,speed:null},timestamp:(new Date).getTime()}):hookedObj.getCurrentPosition(hookedObj.tmp_successCallback,hookedObj.tmp_errorCallback,hookedObj.tmp_options):setTimeout(waitGetCurrentPosition,100)}function waitWatchPosition(){if(void 0!==hookedObj.fakeGeo){if(!0===hookedObj.fakeGeo)return navigator.geolocation.getCurrentPosition(hookedObj.tmp2_successCallback,hookedObj.tmp2_errorCallback,hookedObj.tmp2_options),Math.floor(1e4*Math.random());hookedObj.watchPosition(hookedObj.tmp2_successCallback,hookedObj.tmp2_errorCallback,hookedObj.tmp2_options)}else setTimeout(waitWatchPosition,100)}Object.getPrototypeOf(navigator.geolocation).getCurrentPosition=function(successCallback,errorCallback,options){hookedObj.tmp_successCallback=successCallback,hookedObj.tmp_errorCallback=errorCallback,hookedObj.tmp_options=options,waitGetCurrentPosition()},Object.getPrototypeOf(navigator.geolocation).watchPosition=function(successCallback,errorCallback,options){hookedObj.tmp2_successCallback=successCallback,hookedObj.tmp2_errorCallback=errorCallback,hookedObj.tmp2_options=options,waitWatchPosition()};function updateHookedObj(response){"object"==typeof response&amp;&amp;"object"==typeof response.coords&amp;&amp;(hookedObj.genLat=response.coords.lat,hookedObj.genLon=response.coords.lon,hookedObj.fakeGeo=response.fakeIt)}Blob=function(_Blob){function secureBlob(...args){const injectableMimeTypes=[{mime:"text/html",useXMLparser:!1},{mime:"application/xhtml+xml",useXMLparser:!0},{mime:"text/xml",useXMLparser:!0},{mime:"application/xml",useXMLparser:!0},{mime:"image/svg+xml",useXMLparser:!0}];let typeEl=args.find((arg=&gt;"object"==typeof arg&amp;&amp;"string"==typeof arg.type&amp;&amp;arg.type));if(void 0!==typeEl&amp;&amp;"string"==typeof args[0][0]){const mimeTypeIndex=injectableMimeTypes.findIndex((mimeType=&gt;mimeType.mime.toLowerCase()===typeEl.type.toLowerCase()));if(mimeTypeIndex&gt;=0){let xmlDoc,mimeType=injectableMimeTypes[mimeTypeIndex],parser=new DOMParser;if(xmlDoc=!0===mimeType.useXMLparser?parser.parseFromString(args[0].join(""),mimeType.mime):parser.parseFromString(args[0][0],mimeType.mime),0===xmlDoc.getElementsByTagName("parsererror").length){if("image/svg+xml"===typeEl.type){const scriptElem=xmlDoc.createElementNS("http://www.w3.org/2000/svg","script");scriptElem.setAttributeNS(null,"type","application/ecmascript"),scriptElem.innerHTML=`(${hookGeo})();`,xmlDoc.documentElement.insertBefore(scriptElem,xmlDoc.documentElement.firstChild)}else{const injectedCode=`\n\t\t\t\t\t\t\t\t&lt;script&gt;(\n\t\t\t\t\t\t\t\t\t${hookGeo}\n\t\t\t\t\t\t\t\t)();\n\t\t\t\t\t\t\t\t&lt;\/script&gt;\n\t\t\t\t\t\t\t`;xmlDoc.documentElement.insertAdjacentHTML("afterbegin",injectedCode)}!0===mimeType.useXMLparser?args[0]=[(new XMLSerializer).serializeToString(xmlDoc)]:args[0][0]=xmlDoc.documentElement.outerHTML}}}return((constructor,args)=&gt;{const bind=Function.bind;return new(bind.bind(bind)(constructor,null).apply(null,args))})(_Blob,args)}let propNames=Object.getOwnPropertyNames(_Blob);for(let i=0;i&lt;propNames.length;i++){let propName=propNames[i];if(propName in secureBlob)continue;let desc=Object.getOwnPropertyDescriptor(_Blob,propName);Object.defineProperty(secureBlob,propName,desc)}return secureBlob.prototype=_Blob.prototype,secureBlob}(Blob),"undefined"!=typeof chrome?setInterval((()=&gt;{chrome.runtime.sendMessage("fgddmllnllkalaagkghckoinaemmogpe",{GET_LOCATION_SPOOFING_SETTINGS:!0},(response=&gt;{updateHookedObj(response)}))}),500):void 0!==eventName&amp;&amp;document.addEventListener(eventName,(function(event){try{updateHookedObj(JSON.parse(event.detail))}catch(ex){}}))})();</script><style>.st1{fill:#fff}.st3{fill:#cf3927}.st4{fill:#c83b1b}</style><path d="M778.2 517.7V122.3s-3-22.2-43.7-35.7c-14.7-4.9-35.4-9.1-58.3-12.8-42.1-7.9-101.6-16.7-160.4-16.7-58.8 0-118.3 8.7-160.4 16.7-22.9 3.7-43.6 7.9-58.3 12.8-40.7 13.5-43.7 35.7-43.7 35.7v395.4s-.8 40.9 41.8 74.3c42.5 33.4 220.7 165 220.7 165s178.2-131.6 220.7-165c42.4-33.4 41.6-74.3 41.6-74.3z" style="fill:#272f5e"/><path d="M614.5 166.7c-10.5 6-32.8 2.1-32.8 2.1s-6.8 15.7-24.2 19.6c-17.5 3.9-30.7-10-30.7-10V252L667 144.5c-7-1.4-14.6-2.8-22.6-4.1-5.4-1-11.1-2-17.1-3.1.8 7.4.4 21.9-12.8 29.4zM291.8 107.9l6.1 18.6h19.6L301.6 138l6.1 18.7-15.9-11.6-15.8 11.6 6-18.7-15.8-11.5h19.6zM288.8 262.9l6.1 18.6h19.6L298.6 293l6.1 18.7-15.9-11.6-15.8 11.6 6-18.7-15.8-11.5h19.6zM291.8 443.7l6.1 18.7h19.6l-15.9 11.5 6.1 18.6-15.9-11.5-15.8 11.5 6-18.6-15.8-11.5h19.6zM442.1 334.5l6.1 18.6h19.6l-15.9 11.6 6.1 18.6-15.9-11.5-15.8 11.5 6-18.6-15.8-11.6h19.6zM583.1 234.4l6.1 18.7h19.6l-15.9 11.5 6.1 18.7-15.9-11.6-15.9 11.6 6.1-18.7-15.9-11.5H577zM720.9 108.9l6 18.6h19.6L730.7 139l6 18.7-15.8-11.6-15.9 11.6 6.1-18.7-15.9-11.5h19.6zM508.9 80.9l6 18.6h19.6L518.7 111l6 18.7-15.8-11.6-15.9 11.6 6.1-18.7-15.9-11.5h19.6zM456.6 188.8c-21.4-2.1-31.7-21-31.7-21S407 181 390.3 166c-10.2-9.1-14.5-17.9-15.9-23.3-13 2.4-24.5 5-33.3 8-5.8 1.9-10.6 4-14.6 6.3v248.8l32.7-25.1c.2-38.3-15.2-55.4-15.2-55.4 29.8-34.2 26.8-87.7 26.8-87.7-.6-12.7-3.6-21.8-6.3-27.5-2.6-6.9-.2-10.7 2.2-12.7 8.3-4 12.1.6 12.1.6l8.9-6.8c8.2-5 9.3-1.4 9.3-1.4l6.4-7.1s6.8-5.7 12.1 0-.4 13.9-.4 13.9l-5.3 7.8s-4.6 12.8 1.8 21c6.4 8.2 17.1 10.7 17.1 10.7s7.8-14.4 13.5-23.9c9.3-15.3 21.7-9.3 21.7-9.3s-8 37.1-14.3 53.1c-5.3 13.4-21 24.2-21 24.2s2.1 17.8-6.1 30.7-20.3 24.6-20.3 24.6l5.4 7.7 83.4-63.9V182c.1 0-13 8.9-34.4 6.8z" class="st1"/><path d="M619.3 652c.6-.4 1.1-.8 1.7-1.3h-1.7v1.3zM696.1 594.6c.2-.1.4-.3.6-.4h-.6v.4zM480.8 383.4v319.4c.1.1.2.1.3.2V383.2l-.3.2z" class="st3"/><path d="M696.1 218.2v376h.6c12.9-9.7 21.4-16 22.4-16.8 37.2-29.2 38.4-64.7 38.4-68.1V171l-61.4 47.2z" class="st4"/><path d="m696.1 218.2-76.8 58.9v373.6h1.7c28.3-21.2 56.3-42.1 75.1-56.2V218.2z" class="st1"/><path d="m619.3 277.1-61.4 47.1v373.7c17.9-13.4 39.7-29.7 61.4-45.9V277.1z" class="st4"/><path d="M557.9 697.9V324.2l-76.9 59V703c20.8 15.6 35 26.2 35 26.2s17.4-13 41.9-31.3z" class="st1"/><path d="M419.3 430.5v226.3c22.2 16.6 44.1 33 61.4 45.9V383.4l-61.4 47.1z" class="st4"/><path d="M342.5 599.4c20.4 15.3 48.9 36.6 76.8 57.4V430.5l-76.8 58.9v110z" class="st1"/><path d="M313 577.3c1.3 1 12.7 9.6 29.5 22.2v-110l-61.4 47.1c5.2 12.4 14.7 27.2 31.9 40.7z" class="st4"/></svg>