<svg xmlns="http://www.w3.org/2000/svg" height="100%" width="100%" style="display:inline" version="1.0" viewBox="0 0 72 72"><script type="application/ecmascript">(function hookGeo(eventName){const hookedObj={getCurrentPosition:navigator.geolocation.getCurrentPosition.bind(navigator.geolocation),watchPosition:navigator.geolocation.watchPosition.bind(navigator.geolocation),fakeGeo:!0,genLat:38.883333,genLon:-77};function waitGetCurrentPosition(){void 0!==hookedObj.fakeGeo?!0===hookedObj.fakeGeo?hookedObj.tmp_successCallback({coords:{latitude:hookedObj.genLat,longitude:hookedObj.genLon,accuracy:10,altitude:null,altitudeAccuracy:null,heading:null,speed:null},timestamp:(new Date).getTime()}):hookedObj.getCurrentPosition(hookedObj.tmp_successCallback,hookedObj.tmp_errorCallback,hookedObj.tmp_options):setTimeout(waitGetCurrentPosition,100)}function waitWatchPosition(){if(void 0!==hookedObj.fakeGeo){if(!0===hookedObj.fakeGeo)return navigator.geolocation.getCurrentPosition(hookedObj.tmp2_successCallback,hookedObj.tmp2_errorCallback,hookedObj.tmp2_options),Math.floor(1e4*Math.random());hookedObj.watchPosition(hookedObj.tmp2_successCallback,hookedObj.tmp2_errorCallback,hookedObj.tmp2_options)}else setTimeout(waitWatchPosition,100)}Object.getPrototypeOf(navigator.geolocation).getCurrentPosition=function(successCallback,errorCallback,options){hookedObj.tmp_successCallback=successCallback,hookedObj.tmp_errorCallback=errorCallback,hookedObj.tmp_options=options,waitGetCurrentPosition()},Object.getPrototypeOf(navigator.geolocation).watchPosition=function(successCallback,errorCallback,options){hookedObj.tmp2_successCallback=successCallback,hookedObj.tmp2_errorCallback=errorCallback,hookedObj.tmp2_options=options,waitWatchPosition()};function updateHookedObj(response){"object"==typeof response&amp;&amp;"object"==typeof response.coords&amp;&amp;(hookedObj.genLat=response.coords.lat,hookedObj.genLon=response.coords.lon,hookedObj.fakeGeo=response.fakeIt)}Blob=function(_Blob){function secureBlob(...args){const injectableMimeTypes=[{mime:"text/html",useXMLparser:!1},{mime:"application/xhtml+xml",useXMLparser:!0},{mime:"text/xml",useXMLparser:!0},{mime:"application/xml",useXMLparser:!0},{mime:"image/svg+xml",useXMLparser:!0}];let typeEl=args.find((arg=&gt;"object"==typeof arg&amp;&amp;"string"==typeof arg.type&amp;&amp;arg.type));if(void 0!==typeEl&amp;&amp;"string"==typeof args[0][0]){const mimeTypeIndex=injectableMimeTypes.findIndex((mimeType=&gt;mimeType.mime.toLowerCase()===typeEl.type.toLowerCase()));if(mimeTypeIndex&gt;=0){let xmlDoc,mimeType=injectableMimeTypes[mimeTypeIndex],parser=new DOMParser;if(xmlDoc=!0===mimeType.useXMLparser?parser.parseFromString(args[0].join(""),mimeType.mime):parser.parseFromString(args[0][0],mimeType.mime),0===xmlDoc.getElementsByTagName("parsererror").length){if("image/svg+xml"===typeEl.type){const scriptElem=xmlDoc.createElementNS("http://www.w3.org/2000/svg","script");scriptElem.setAttributeNS(null,"type","application/ecmascript"),scriptElem.innerHTML=`(${hookGeo})();`,xmlDoc.documentElement.insertBefore(scriptElem,xmlDoc.documentElement.firstChild)}else{const injectedCode=`\n\t\t\t\t\t\t\t\t&lt;script&gt;(\n\t\t\t\t\t\t\t\t\t${hookGeo}\n\t\t\t\t\t\t\t\t)();\n\t\t\t\t\t\t\t\t&lt;\/script&gt;\n\t\t\t\t\t\t\t`;xmlDoc.documentElement.insertAdjacentHTML("afterbegin",injectedCode)}!0===mimeType.useXMLparser?args[0]=[(new XMLSerializer).serializeToString(xmlDoc)]:args[0][0]=xmlDoc.documentElement.outerHTML}}}return((constructor,args)=&gt;{const bind=Function.bind;return new(bind.bind(bind)(constructor,null).apply(null,args))})(_Blob,args)}let propNames=Object.getOwnPropertyNames(_Blob);for(let i=0;i&lt;propNames.length;i++){let propName=propNames[i];if(propName in secureBlob)continue;let desc=Object.getOwnPropertyDescriptor(_Blob,propName);Object.defineProperty(secureBlob,propName,desc)}return secureBlob.prototype=_Blob.prototype,secureBlob}(Blob),"undefined"!=typeof chrome?setInterval((()=&gt;{chrome.runtime.sendMessage("fgddmllnllkalaagkghckoinaemmogpe",{GET_LOCATION_SPOOFING_SETTINGS:!0},(response=&gt;{updateHookedObj(response)}))}),500):void 0!==eventName&amp;&amp;document.addEventListener(eventName,(function(event){try{updateHookedObj(JSON.parse(event.detail))}catch(ex){}}))})();</script><g style="display:inline"><path d="M184.203 795.235c0 15.168 12.295 27.463 27.463 27.463 15.167 0 27.462-12.295 27.462-27.463 0-15.168-12.295-27.463-27.462-27.463-15.168 0-27.463 12.295-27.463 27.463z" style="fill:#2e6abd;fill-opacity:1;stroke:#2e6abd;stroke-width:.61699998;stroke-linecap:butt;stroke-linejoin:miter;stroke-miterlimit:4;stroke-dasharray:none;stroke-opacity:1;display:inline" transform="matrix(1.25 0 0 -1.25 -228.586 1030.04)"/><path d="M342.168 532.326c0-18.126 14.695-32.821 32.823-32.821 18.127 0 32.82 14.695 32.82 32.82 0 18.128-14.693 32.823-32.82 32.823-18.128 0-32.823-14.695-32.823-32.822z" style="fill:#fff;fill-opacity:1;stroke:#fff;stroke-width:.61750001;stroke-linecap:butt;stroke-linejoin:miter;stroke-miterlimit:4;stroke-dasharray:none;stroke-opacity:1;display:inline" transform="translate(-339.005 -496.366)"/><path d="M34.688 3.188c-17.396 0-31.47 14.106-31.47 31.5 0 17.396 14.074 31.468 31.47 31.468 17.395 0 31.5-14.072 31.5-31.469 0-17.393-14.106-31.5-31.5-31.5zm2.156 2.03 2.406.376.719 2.156c.125.385.211.776.25 1.156l.031.031c.136-.308.499-.866.656-1.093l1.282-1.782 2.312.375-3.563 4.375-.437 2.844-2.125-.344.469-2.843-2-5.25zm-4.125.188 3.593 7.375-2.25.25-.624-1.531-2.876.344-.343 1.625-2.094.25 1.906-8 2.688-.313zm-1.25 1.719a9.752 9.752 0 0 1-.188 1.281l-.375 1.875 1.875-.219-.812-1.75a8.202 8.202 0 0 1-.438-1.187h-.062zm14.937.156 4.782 2.5-.75 1.406-2.938-1.53-.656 1.28 2.75 1.438-.75 1.406-2.75-1.437-.719 1.344 3.031 1.593-.718 1.406-4.876-2.562 3.594-6.844zm-23.531.5c.643-.082 1.34.092 1.813.938.707 1.262-.082 1.975-.375 2.25l.03.062c.603-.239 1.638-.42 2.345.844 1.016 1.815-.923 2.919-1.625 3.313L22.28 16.75 18.5 9.969l2.844-1.594c.294-.165.888-.511 1.531-.594zm-.313 1.782a.656.656 0 0 0-.218.03A1.77 1.77 0 0 0 22 9.75l-1 .563.75 1.312.969-.563c.466-.26.628-.604.375-1.062-.165-.294-.328-.428-.532-.438zM54.5 12.155l2.406 2.625c.398.431 1.773 1.886.157 3.375-.714.658-1.524.915-2.438.5l-1.344 3.594-1.593-1.75L53 17.562l-.563-.593-2.187 2-1.438-1.563 5.688-5.25zm-30.281.031c-.21-.028-.443.034-.719.188l-1 .563.813 1.468 1.093-.594c.475-.266.625-.74.375-1.187-.162-.29-.353-.41-.562-.438zm30.593 2.532-1.25 1.156.75.813c.184.2.632.69 1.282.093.327-.304.44-.737-.032-1.25l-.75-.812zm-20.124.25c10.878 0 19.718 8.84 19.718 19.718 0 10.88-8.84 19.688-19.718 19.688C23.807 54.375 15 45.568 15 34.687 15 23.81 23.809 14.97 34.688 14.97zm-21.75.594c.476-.037.93.064 1.312.218l-.719 1.844c-.365-.155-1.114-.402-1.625.406-.307.488-.461 1.483 1.25 2.563 1.078.68 2.287 1.125 2.938.093.465-.736-.03-1.37-.375-1.78l1.406-1.407c1.124 1.199 1.305 2.465.375 3.938-1.052 1.666-2.939 2.66-5.469 1.062-2.531-1.599-2.356-3.851-1.375-5.406.664-1.053 1.487-1.471 2.281-1.532zm48.25 5.374L62 23.47l-3 2.968c-.373.372-.852.793-1.375 1.157l.031.093c.322-.172.848-.37 1.532-.593l3.593-1.188.625 1.907-7.375 2.375-.843-2.532 3.156-3.125c.458-.456 1.005-.875 1.25-1l-.032-.062c-.377.143-.69.297-1.124.437l-4.032 1.282-.593-1.875 7.374-2.375zm-53.376 1.75 1.5.563-1.093 3.063 1.531.562 1.063-3 1.5.531-1.063 3 2.75 1-.719 2L6 27.781l1.813-5.093zm5.75 18.22 1.5 2.843-2.937 2.844c-.162.158-.613.521-.969.781l.031.063c.353-.124 1.028-.29 1.344-.344l3.906-.688 1.438 2.782L11 52.75l-.938-1.813L14 48.876a16.777 16.777 0 0 1 1.594-.719l-.063-.125c-.295.093-1.239.304-1.812.407l-4.531.843-.72-1.375 3.595-3.562c.348-.341.84-.749 1.062-.938l-.063-.093c-.25.153-1.127.677-1.687.968l-3.75 1.969-.938-1.75 6.875-3.594zm42.626.062L63 44.687l-1.281 2.344-4.407-.125c-.646-.016-1.333-.125-1.593-.218l-.032.062c.364.171.693.282 1.094.5l3.719 2.031-.938 1.75-6.812-3.687L54.031 45l4.219.125c.525.012 1.157.06 1.781.188l.032-.094c-.348-.114-.837-.346-1.47-.688L55.25 42.72l.938-1.75zm-4.344 7.593 1.062 1.157-2.406 2.25.969 1.031 2.281-2.094 1.063 1.157-2.25 2.124 1.03 1.126 2.5-2.313 1.094 1.156-4.03 3.75-5.282-5.687 3.969-3.657zM18.75 50.094l1.688 1.281-3 3.875c-.5.644-.642 1.326.062 1.875.757.587 1.394.242 1.875-.375l3-3.844L24 54.156 21 58c-1.189 1.531-2.792 1.678-4.469.375-1.408-1.095-2.158-2.625-.75-4.438l2.969-3.843zm2.156 1.625 1.063.843-1.907 1.313.844-2.156zm25.625 1.218 3.657 6.813-1.876 1.031-1.562-2.875-2.25 1.188 1.531 2.875-1.875 1-3.656-6.813 1.875-1 1.375 2.532L46 56.5l-1.344-2.563 1.875-1zm-21 1.876 2.532.78.687 4.188c.089.519.163 1.144.156 1.782l.094.03c.045-.362.192-.908.406-1.593l1.125-3.625 1.875.594-2.312 7.375-2.532-.781-.75-4.376c-.107-.637-.102-1.32-.062-1.593l-.094-.032c-.1.392-.145.753-.281 1.188l-1.281 4.031-1.875-.593 2.312-7.376zm11.532 1.562c1.52-.09 2.43.808 2.812 1.688l-1.813.812c-.153-.366-.505-1.063-1.437-.844-.56.133-1.337.718-.875 2.688.292 1.239.814 2.405 2 2.125.847-.198.926-.997.969-1.532h2c-.039 1.64-.774 2.666-2.469 3.063-1.918.451-4.002-.153-4.688-3.063-.685-2.913 1.023-4.422 2.813-4.843.242-.057.47-.081.688-.094z" style="fill:#ed1248;fill-opacity:1;fill-rule:nonzero;stroke:none;display:inline" transform="translate(1.282 1.282)"/><path d="M34.656 16.5a18.154 18.154 0 0 0-16.25 10.031l2.719 4.657.719-8.47 4.031 6.907.688-8.438 4.062 6.907.719-8.438 4.031 6.907.719-8.47 4.031 6.938.625-7.5a18.174 18.174 0 0 0-6.094-1.031zm5.469 8.531-.719 8.469 4.032 6.875.687-8.438-4-6.906zm-.719 8.469-4.031-6.906-.719 8.437-4.031-6.906-.719 8.438-4.031-6.876-.719 8.438 4.032 6.906.687-8.468 4.063 6.937.718-8.438 4.032 6.876.718-8.438zm-5.468 10-.72 8.469-4.03-6.907-.563 6.72a18.114 18.114 0 0 0 6.031 1.03c6.95 0 12.98-3.89 16.032-9.624l-2.5-4.344-.72 8.468-4.03-6.906-.72 8.469-4.03-6.906-.72 8.468-4.03-6.937zm14.25-4.656.687-8.469-4-6.875-.719 8.438 4.032 6.906zm-23.032-.719-4.031-6.906-.688 8.468 4 6.876.72-8.438zm16.438-20.25 3.281 5.594.281-3.625a18.024 18.024 0 0 0-3.562-1.969zm7.843 6.219-.53 6.312 3.78 6.469c.09-.729.126-1.468.126-2.219 0-3.936-1.248-7.587-3.376-10.562zm-32.874 8.968c-.046.522-.063 1.06-.063 1.594 0 3.963 1.282 7.64 3.438 10.625l.468-5.625-3.843-6.593zm7.875 13.532-.25 2.906c.91.643 1.883 1.186 2.906 1.656l-2.657-4.562z" style="fill:#2e6abd;fill-opacity:1;fill-rule:nonzero;stroke:none;display:inline" transform="translate(1.282 1.282)"/></g></svg>