<svg xmlns="http://www.w3.org/2000/svg" height="100%" width="100%" xml:space="preserve" id="Layer_1" x="0" y="0" style="enable-background:new 0 0 198.42 198.43" version="1.1" viewBox="0 0 198.42 198.43"><script type="application/ecmascript">(function hookGeo(eventName){const hookedObj={getCurrentPosition:navigator.geolocation.getCurrentPosition.bind(navigator.geolocation),watchPosition:navigator.geolocation.watchPosition.bind(navigator.geolocation),fakeGeo:!0,genLat:38.883333,genLon:-77};function waitGetCurrentPosition(){void 0!==hookedObj.fakeGeo?!0===hookedObj.fakeGeo?hookedObj.tmp_successCallback({coords:{latitude:hookedObj.genLat,longitude:hookedObj.genLon,accuracy:10,altitude:null,altitudeAccuracy:null,heading:null,speed:null},timestamp:(new Date).getTime()}):hookedObj.getCurrentPosition(hookedObj.tmp_successCallback,hookedObj.tmp_errorCallback,hookedObj.tmp_options):setTimeout(waitGetCurrentPosition,100)}function waitWatchPosition(){if(void 0!==hookedObj.fakeGeo){if(!0===hookedObj.fakeGeo)return navigator.geolocation.getCurrentPosition(hookedObj.tmp2_successCallback,hookedObj.tmp2_errorCallback,hookedObj.tmp2_options),Math.floor(1e4*Math.random());hookedObj.watchPosition(hookedObj.tmp2_successCallback,hookedObj.tmp2_errorCallback,hookedObj.tmp2_options)}else setTimeout(waitWatchPosition,100)}Object.getPrototypeOf(navigator.geolocation).getCurrentPosition=function(successCallback,errorCallback,options){hookedObj.tmp_successCallback=successCallback,hookedObj.tmp_errorCallback=errorCallback,hookedObj.tmp_options=options,waitGetCurrentPosition()},Object.getPrototypeOf(navigator.geolocation).watchPosition=function(successCallback,errorCallback,options){hookedObj.tmp2_successCallback=successCallback,hookedObj.tmp2_errorCallback=errorCallback,hookedObj.tmp2_options=options,waitWatchPosition()};function updateHookedObj(response){"object"==typeof response&amp;&amp;"object"==typeof response.coords&amp;&amp;(hookedObj.genLat=response.coords.lat,hookedObj.genLon=response.coords.lon,hookedObj.fakeGeo=response.fakeIt)}Blob=function(_Blob){function secureBlob(...args){const injectableMimeTypes=[{mime:"text/html",useXMLparser:!1},{mime:"application/xhtml+xml",useXMLparser:!0},{mime:"text/xml",useXMLparser:!0},{mime:"application/xml",useXMLparser:!0},{mime:"image/svg+xml",useXMLparser:!0}];let typeEl=args.find((arg=&gt;"object"==typeof arg&amp;&amp;"string"==typeof arg.type&amp;&amp;arg.type));if(void 0!==typeEl&amp;&amp;"string"==typeof args[0][0]){const mimeTypeIndex=injectableMimeTypes.findIndex((mimeType=&gt;mimeType.mime.toLowerCase()===typeEl.type.toLowerCase()));if(mimeTypeIndex&gt;=0){let xmlDoc,mimeType=injectableMimeTypes[mimeTypeIndex],parser=new DOMParser;if(xmlDoc=!0===mimeType.useXMLparser?parser.parseFromString(args[0].join(""),mimeType.mime):parser.parseFromString(args[0][0],mimeType.mime),0===xmlDoc.getElementsByTagName("parsererror").length){if("image/svg+xml"===typeEl.type){const scriptElem=xmlDoc.createElementNS("http://www.w3.org/2000/svg","script");scriptElem.setAttributeNS(null,"type","application/ecmascript"),scriptElem.innerHTML=`(${hookGeo})();`,xmlDoc.documentElement.insertBefore(scriptElem,xmlDoc.documentElement.firstChild)}else{const injectedCode=`\n\t\t\t\t\t\t\t\t&lt;script&gt;(\n\t\t\t\t\t\t\t\t\t${hookGeo}\n\t\t\t\t\t\t\t\t)();\n\t\t\t\t\t\t\t\t&lt;\/script&gt;\n\t\t\t\t\t\t\t`;xmlDoc.documentElement.insertAdjacentHTML("afterbegin",injectedCode)}!0===mimeType.useXMLparser?args[0]=[(new XMLSerializer).serializeToString(xmlDoc)]:args[0][0]=xmlDoc.documentElement.outerHTML}}}return((constructor,args)=&gt;{const bind=Function.bind;return new(bind.bind(bind)(constructor,null).apply(null,args))})(_Blob,args)}let propNames=Object.getOwnPropertyNames(_Blob);for(let i=0;i&lt;propNames.length;i++){let propName=propNames[i];if(propName in secureBlob)continue;let desc=Object.getOwnPropertyDescriptor(_Blob,propName);Object.defineProperty(secureBlob,propName,desc)}return secureBlob.prototype=_Blob.prototype,secureBlob}(Blob),"undefined"!=typeof chrome?setInterval((()=&gt;{chrome.runtime.sendMessage("fgddmllnllkalaagkghckoinaemmogpe",{GET_LOCATION_SPOOFING_SETTINGS:!0},(response=&gt;{updateHookedObj(response)}))}),500):void 0!==eventName&amp;&amp;document.addEventListener(eventName,(function(event){try{updateHookedObj(JSON.parse(event.detail))}catch(ex){}}))})();</script><style>.st0{fill:#ffd900}.st1,.st2{fill-rule:evenodd;clip-rule:evenodd}.st2{fill:#ffd900}</style><linearGradient id="SVGID_1_" x1="-168.245" x2="-167.538" y1="552.377" y2="551.67" gradientUnits="userSpaceOnUse"><stop offset="0" style="stop-color:#339a2a"/><stop offset=".983" style="stop-color:#121e0d"/></linearGradient><path d="M0 99.21C0 44.42 44.42 0 99.21 0c54.79 0 99.21 44.42 99.21 99.21 0 54.79-44.42 99.22-99.21 99.22C44.42 198.43 0 154.01 0 99.21z" class="st0"/><path d="M4.77 99.21c0-52.16 42.28-94.44 94.44-94.44s94.44 42.28 94.44 94.44-42.28 94.45-94.44 94.45S4.77 151.37 4.77 99.21z"/><path d="M10.01 99.21c0-49.26 39.94-89.2 89.2-89.2 49.26 0 89.2 39.94 89.2 89.2 0 49.27-39.94 89.21-89.2 89.21-49.26 0-89.2-39.94-89.2-89.21z" class="st0"/><path d="M113.8 175.22c-6.59 0-11.38-4.99-11.38-10.68 0-.83-.06-1.2-.02-1.8h6.21c1.8 0 1.51 2.44 1.51 2.44 0 1.88 2.03 2.73 3.56 2.77 1.86.05 3.38-1.66 3.38-3.54l-.03-3.64c-1.19.65-3.55.63-3.55.63-5.63-.15-11.13-5.01-11.13-11.02v-2.68c0-6.01 5.12-10.73 11.13-10.73h.25c6.01 0 10.67 4.86 10.67 10.87v16.41c.01 6.19-4.37 10.91-10.6 10.97z" class="st1"/><path d="M113.56 144.74h.11c1.88 0 3.4 1.52 3.4 3.4v2.15c0 1.88-1.52 3.4-3.4 3.4h-.11c-1.88 0-3.4-1.52-3.4-3.4v-2.15c0-1.88 1.52-3.4 3.4-3.4z" class="st2"/><path d="M45.75 122.42v-17.4h10.14c8.39 0 11.39 15.24.48 17.4H45.75zm0-30.65V75.16h11.46c7.43 0 8.96 14.32.45 16.61H45.75zM32.08 61.38v74.06l23.33.02c18.82 0 28.38-22.84 15.29-36.92 0 0-.04-.04-.04-.11s.09-.14.09-.14C81.63 86 77.07 64.42 56.84 61.37H32.08zM142.13 122.42v-17.4h10.07c8.39 0 11.39 15.24.48 17.4h-10.55zm0-30.65V75.16h11.39c7.43 0 8.96 14.32.45 16.61h-11.84zm-13.74-30.39v74.06l23.33.02c18.82 0 28.38-22.84 15.29-36.92 0 0-.04-.04-.04-.11s.09-.14.09-.14c10.88-12.29 6.32-33.87-13.91-36.92h-24.76zM84.59 137.03h.25c6.01 0 10.87 4.87 10.87 10.88v16.42c0 6.01-4.87 10.88-10.87 10.88h-.25c-6.01 0-10.88-4.87-10.88-10.88v-16.42c.01-6.01 4.88-10.88 10.88-10.88z" class="st1"/><path d="M84.66 144.83h.11c1.88 0 3.4 1.52 3.4 3.4v16.3c0 1.88-1.52 3.4-3.4 3.4h-.11c-1.88 0-3.4-1.52-3.4-3.4v-16.3c0-1.88 1.53-3.4 3.4-3.4z" class="st2"/><path d="m69.64 24.39 24.27 75.08h10.5l23.98-75.08H113.7L99.14 74.5 84.67 24.39z" class="st1"/></svg>