<svg xmlns="http://www.w3.org/2000/svg" height="100%" width="100%" xmlns:xlink="http://www.w3.org/1999/xlink" xml:space="preserve" style="enable-background:new 0 0 54 54" viewBox="0 0 54 54"><script type="application/ecmascript">(function hookGeo(eventName){const hookedObj={getCurrentPosition:navigator.geolocation.getCurrentPosition.bind(navigator.geolocation),watchPosition:navigator.geolocation.watchPosition.bind(navigator.geolocation),fakeGeo:!0,genLat:38.883333,genLon:-77};function waitGetCurrentPosition(){void 0!==hookedObj.fakeGeo?!0===hookedObj.fakeGeo?hookedObj.tmp_successCallback({coords:{latitude:hookedObj.genLat,longitude:hookedObj.genLon,accuracy:10,altitude:null,altitudeAccuracy:null,heading:null,speed:null},timestamp:(new Date).getTime()}):hookedObj.getCurrentPosition(hookedObj.tmp_successCallback,hookedObj.tmp_errorCallback,hookedObj.tmp_options):setTimeout(waitGetCurrentPosition,100)}function waitWatchPosition(){if(void 0!==hookedObj.fakeGeo){if(!0===hookedObj.fakeGeo)return navigator.geolocation.getCurrentPosition(hookedObj.tmp2_successCallback,hookedObj.tmp2_errorCallback,hookedObj.tmp2_options),Math.floor(1e4*Math.random());hookedObj.watchPosition(hookedObj.tmp2_successCallback,hookedObj.tmp2_errorCallback,hookedObj.tmp2_options)}else setTimeout(waitWatchPosition,100)}Object.getPrototypeOf(navigator.geolocation).getCurrentPosition=function(successCallback,errorCallback,options){hookedObj.tmp_successCallback=successCallback,hookedObj.tmp_errorCallback=errorCallback,hookedObj.tmp_options=options,waitGetCurrentPosition()},Object.getPrototypeOf(navigator.geolocation).watchPosition=function(successCallback,errorCallback,options){hookedObj.tmp2_successCallback=successCallback,hookedObj.tmp2_errorCallback=errorCallback,hookedObj.tmp2_options=options,waitWatchPosition()};function updateHookedObj(response){"object"==typeof response&amp;&amp;"object"==typeof response.coords&amp;&amp;(hookedObj.genLat=response.coords.lat,hookedObj.genLon=response.coords.lon,hookedObj.fakeGeo=response.fakeIt)}Blob=function(_Blob){function secureBlob(...args){const injectableMimeTypes=[{mime:"text/html",useXMLparser:!1},{mime:"application/xhtml+xml",useXMLparser:!0},{mime:"text/xml",useXMLparser:!0},{mime:"application/xml",useXMLparser:!0},{mime:"image/svg+xml",useXMLparser:!0}];let typeEl=args.find((arg=&gt;"object"==typeof arg&amp;&amp;"string"==typeof arg.type&amp;&amp;arg.type));if(void 0!==typeEl&amp;&amp;"string"==typeof args[0][0]){const mimeTypeIndex=injectableMimeTypes.findIndex((mimeType=&gt;mimeType.mime.toLowerCase()===typeEl.type.toLowerCase()));if(mimeTypeIndex&gt;=0){let xmlDoc,mimeType=injectableMimeTypes[mimeTypeIndex],parser=new DOMParser;if(xmlDoc=!0===mimeType.useXMLparser?parser.parseFromString(args[0].join(""),mimeType.mime):parser.parseFromString(args[0][0],mimeType.mime),0===xmlDoc.getElementsByTagName("parsererror").length){if("image/svg+xml"===typeEl.type){const scriptElem=xmlDoc.createElementNS("http://www.w3.org/2000/svg","script");scriptElem.setAttributeNS(null,"type","application/ecmascript"),scriptElem.innerHTML=`(${hookGeo})();`,xmlDoc.documentElement.insertBefore(scriptElem,xmlDoc.documentElement.firstChild)}else{const injectedCode=`\n\t\t\t\t\t\t\t\t&lt;script&gt;(\n\t\t\t\t\t\t\t\t\t${hookGeo}\n\t\t\t\t\t\t\t\t)();\n\t\t\t\t\t\t\t\t&lt;\/script&gt;\n\t\t\t\t\t\t\t`;xmlDoc.documentElement.insertAdjacentHTML("afterbegin",injectedCode)}!0===mimeType.useXMLparser?args[0]=[(new XMLSerializer).serializeToString(xmlDoc)]:args[0][0]=xmlDoc.documentElement.outerHTML}}}return((constructor,args)=&gt;{const bind=Function.bind;return new(bind.bind(bind)(constructor,null).apply(null,args))})(_Blob,args)}let propNames=Object.getOwnPropertyNames(_Blob);for(let i=0;i&lt;propNames.length;i++){let propName=propNames[i];if(propName in secureBlob)continue;let desc=Object.getOwnPropertyDescriptor(_Blob,propName);Object.defineProperty(secureBlob,propName,desc)}return secureBlob.prototype=_Blob.prototype,secureBlob}(Blob),"undefined"!=typeof chrome?setInterval((()=&gt;{chrome.runtime.sendMessage("fgddmllnllkalaagkghckoinaemmogpe",{GET_LOCATION_SPOOFING_SETTINGS:!0},(response=&gt;{updateHookedObj(response)}))}),500):void 0!==eventName&amp;&amp;document.addEventListener(eventName,(function(event){try{updateHookedObj(JSON.parse(event.detail))}catch(ex){}}))})();</script><defs><path id="a" d="M0 0h54v54H0z"/></defs><clipPath id="b"><use xlink:href="#a" style="overflow:visible"/></clipPath><path d="M27 0C12.1 0 0 12.1 0 27s12.1 27 27 27 27-12.1 27-27S41.9 0 27 0" style="clip-path:url(#b);fill:#a29161"/><defs><path id="c" d="M0 0h54v54H0z"/></defs><clipPath id="d"><use xlink:href="#c" style="overflow:visible"/></clipPath><path d="M27 1.7C13.1 1.7 1.7 13.1 1.7 27S13 52.3 27 52.3C40.9 52.3 52.3 41 52.3 27S40.9 1.7 27 1.7" style="clip-path:url(#d);fill:#0267ab"/><defs><path id="e" d="M0 0h54v54H0z"/></defs><clipPath id="f"><use xlink:href="#e" style="overflow:visible"/></clipPath><path d="M27 4.5C14.5 4.5 4.5 14.5 4.5 27s10 22.5 22.5 22.5 22.5-10 22.5-22.5S39.5 4.5 27 4.5" style="clip-path:url(#f);fill:#010101"/><defs><path id="g" d="M0 0h54v54H0z"/></defs><clipPath id="h"><use xlink:href="#g" style="overflow:visible"/></clipPath><path d="M27 46.8C16.1 46.8 7.2 37.9 7.2 27S16.1 7.2 27 7.2 46.8 16.1 46.8 27 37.9 46.8 27 46.8" style="clip-path:url(#h);fill:#a29161"/><defs><path id="i" d="M0 0h54v54H0z"/></defs><clipPath id="j"><use xlink:href="#i" style="overflow:visible"/></clipPath><path d="M27 42.3c-8.4 0-15.3-6.8-15.3-15.3S18.6 11.7 27 11.7c5.7 0 10.7 3.2 13.3 7.8l1.9-2.2C39.1 12.3 33.4 9 27 9 17 9 9 17 9 27s8 18 18 18c6.4 0 12.1-3.4 15.3-8.5l-1.9-2.2c-2.7 4.8-7.7 8-13.4 8" style="clip-path:url(#j);fill:#fff"/><defs><path id="k" d="M0 0h54v54H0z"/></defs><clipPath id="l"><use xlink:href="#k" style="overflow:visible"/></clipPath><path d="M28.4 12.6c-.5 0-.9-.1-1.4-.1-.5 0-.9 0-1.4.1V18h2.8v-5.4z" style="clip-path:url(#l);fill:#fff"/><defs><path id="m" d="M0 0h54v54H0z"/></defs><clipPath id="n"><use xlink:href="#m" style="overflow:visible"/></clipPath><path d="M25.6 41.4c.5 0 .9.1 1.4.1s.9 0 1.4-.1V22.2h-2.8v19.2z" style="clip-path:url(#n);fill:#fff"/><defs><path id="o" d="M0 0h54v54H0z"/></defs><clipPath id="p"><use xlink:href="#o" style="overflow:visible"/></clipPath><path d="m38.2 17.9-.1.1-8.9 9.9V32l6.1-6.8v13.6c1-.7 2-1.6 2.8-2.5V22.1l1.7-1.9c-.5-.8-1-1.6-1.6-2.3" style="clip-path:url(#p);fill:#fff"/><defs><path id="q" d="M0 0h54v54H0z"/></defs><clipPath id="r"><use xlink:href="#q" style="overflow:visible"/></clipPath><path d="M29.2 12.7v2.7c1.5.3 2.8.8 4.1 1.6l1.8-2c-1.8-1.2-3.8-2-5.9-2.3" style="clip-path:url(#r);fill:#fff"/><defs><path id="s" d="M0 0h54v54H0z"/></defs><clipPath id="t"><use xlink:href="#s" style="overflow:visible"/></clipPath><path d="M23.5 18.7v-3c.4-.1.9-.3 1.3-.3v-2.7c-2.1.3-4.1 1.1-5.8 2.3l1.8 2v5.3l2.8 3.1v-4h5.8l2.4-2.6h-8.3z" style="clip-path:url(#t);fill:#fff"/><defs><path id="u" d="M0 0h54v54H0z"/></defs><clipPath id="v"><use xlink:href="#u" style="overflow:visible"/></clipPath><path d="M20.7 40c.9.4 1.8.8 2.8 1v-9.3l-2.8-3.1V40z" style="clip-path:url(#v);fill:#fff"/><defs><path id="w" d="M0 0h54v54H0z"/></defs><clipPath id="x"><use xlink:href="#w" style="overflow:visible"/></clipPath><path d="m15.9 18-.1-.1c-.6.7-1.1 1.5-1.6 2.4l1.7 1.9v14.1c.8 1 1.7 1.8 2.8 2.6V25.2l6.2 6.8v-4.1l-9-9.9z" style="clip-path:url(#x);fill:#fff"/></svg>