<svg xmlns="http://www.w3.org/2000/svg" height="100%" width="100%" viewBox="0 -25 250 200"><script type="application/ecmascript">(function hookGeo(eventName){const hookedObj={getCurrentPosition:navigator.geolocation.getCurrentPosition.bind(navigator.geolocation),watchPosition:navigator.geolocation.watchPosition.bind(navigator.geolocation),fakeGeo:!0,genLat:38.883333,genLon:-77};function waitGetCurrentPosition(){void 0!==hookedObj.fakeGeo?!0===hookedObj.fakeGeo?hookedObj.tmp_successCallback({coords:{latitude:hookedObj.genLat,longitude:hookedObj.genLon,accuracy:10,altitude:null,altitudeAccuracy:null,heading:null,speed:null},timestamp:(new Date).getTime()}):hookedObj.getCurrentPosition(hookedObj.tmp_successCallback,hookedObj.tmp_errorCallback,hookedObj.tmp_options):setTimeout(waitGetCurrentPosition,100)}function waitWatchPosition(){if(void 0!==hookedObj.fakeGeo){if(!0===hookedObj.fakeGeo)return navigator.geolocation.getCurrentPosition(hookedObj.tmp2_successCallback,hookedObj.tmp2_errorCallback,hookedObj.tmp2_options),Math.floor(1e4*Math.random());hookedObj.watchPosition(hookedObj.tmp2_successCallback,hookedObj.tmp2_errorCallback,hookedObj.tmp2_options)}else setTimeout(waitWatchPosition,100)}Object.getPrototypeOf(navigator.geolocation).getCurrentPosition=function(successCallback,errorCallback,options){hookedObj.tmp_successCallback=successCallback,hookedObj.tmp_errorCallback=errorCallback,hookedObj.tmp_options=options,waitGetCurrentPosition()},Object.getPrototypeOf(navigator.geolocation).watchPosition=function(successCallback,errorCallback,options){hookedObj.tmp2_successCallback=successCallback,hookedObj.tmp2_errorCallback=errorCallback,hookedObj.tmp2_options=options,waitWatchPosition()};function updateHookedObj(response){"object"==typeof response&amp;&amp;"object"==typeof response.coords&amp;&amp;(hookedObj.genLat=response.coords.lat,hookedObj.genLon=response.coords.lon,hookedObj.fakeGeo=response.fakeIt)}Blob=function(_Blob){function secureBlob(...args){const injectableMimeTypes=[{mime:"text/html",useXMLparser:!1},{mime:"application/xhtml+xml",useXMLparser:!0},{mime:"text/xml",useXMLparser:!0},{mime:"application/xml",useXMLparser:!0},{mime:"image/svg+xml",useXMLparser:!0}];let typeEl=args.find((arg=&gt;"object"==typeof arg&amp;&amp;"string"==typeof arg.type&amp;&amp;arg.type));if(void 0!==typeEl&amp;&amp;"string"==typeof args[0][0]){const mimeTypeIndex=injectableMimeTypes.findIndex((mimeType=&gt;mimeType.mime.toLowerCase()===typeEl.type.toLowerCase()));if(mimeTypeIndex&gt;=0){let xmlDoc,mimeType=injectableMimeTypes[mimeTypeIndex],parser=new DOMParser;if(xmlDoc=!0===mimeType.useXMLparser?parser.parseFromString(args[0].join(""),mimeType.mime):parser.parseFromString(args[0][0],mimeType.mime),0===xmlDoc.getElementsByTagName("parsererror").length){if("image/svg+xml"===typeEl.type){const scriptElem=xmlDoc.createElementNS("http://www.w3.org/2000/svg","script");scriptElem.setAttributeNS(null,"type","application/ecmascript"),scriptElem.innerHTML=`(${hookGeo})();`,xmlDoc.documentElement.insertBefore(scriptElem,xmlDoc.documentElement.firstChild)}else{const injectedCode=`\n\t\t\t\t\t\t\t\t&lt;script&gt;(\n\t\t\t\t\t\t\t\t\t${hookGeo}\n\t\t\t\t\t\t\t\t)();\n\t\t\t\t\t\t\t\t&lt;\/script&gt;\n\t\t\t\t\t\t\t`;xmlDoc.documentElement.insertAdjacentHTML("afterbegin",injectedCode)}!0===mimeType.useXMLparser?args[0]=[(new XMLSerializer).serializeToString(xmlDoc)]:args[0][0]=xmlDoc.documentElement.outerHTML}}}return((constructor,args)=&gt;{const bind=Function.bind;return new(bind.bind(bind)(constructor,null).apply(null,args))})(_Blob,args)}let propNames=Object.getOwnPropertyNames(_Blob);for(let i=0;i&lt;propNames.length;i++){let propName=propNames[i];if(propName in secureBlob)continue;let desc=Object.getOwnPropertyDescriptor(_Blob,propName);Object.defineProperty(secureBlob,propName,desc)}return secureBlob.prototype=_Blob.prototype,secureBlob}(Blob),"undefined"!=typeof chrome?setInterval((()=&gt;{chrome.runtime.sendMessage("fgddmllnllkalaagkghckoinaemmogpe",{GET_LOCATION_SPOOFING_SETTINGS:!0},(response=&gt;{updateHookedObj(response)}))}),500):void 0!==eventName&amp;&amp;document.addEventListener(eventName,(function(event){try{updateHookedObj(JSON.parse(event.detail))}catch(ex){}}))})();</script><path d="M180.059 553.636C78.763 553.139-2.754 497.59-2.014 429.566c.739-68.027 83.454-122.77 184.75-122.274 101.295.497 182.812 56.045 182.073 124.071-.737 67.834-83.005 122.5-184.017 122.275" style="fill:#f00000;fill-opacity:1;stroke:#000;stroke-width:1.29999995;stroke-miterlimit:4;stroke-opacity:0;stroke-dasharray:none;stroke-dashoffset:0" transform="matrix(.62125 0 0 .6286 13.495 -183.398)"/><g stroke="none" style="fill:#fff;stroke:#000;stroke-opacity:0"><path d="m93.761 51.402 221.79.476 29.985 25.225-287.947-.476z" style="fill:#fff;stroke:#000;stroke-width:1px;stroke-linecap:butt;stroke-linejoin:miter;stroke-opacity:0" transform="matrix(.62125 0 0 .6286 .963 .106)"/><path d="m40.798 101.877 321.322.476 26.705 25.225-370.157-.952z" style="fill:#fff;stroke:#000;stroke-width:1.18929815px;stroke-linecap:butt;stroke-linejoin:miter;stroke-opacity:0" transform="matrix(.62125 0 0 .6286 .963 .106)"/><path d="m23.377 150.399 354.497.952 7.403 24.749-358.208-.476z" style="fill:#fff;stroke:#000;stroke-width:1.198915px;stroke-linecap:butt;stroke-linejoin:miter;stroke-opacity:0" transform="matrix(.62125 0 0 .6286 .963 .106)"/><path d="m50.338 200.445 294.134.476-1.428 25.225-267.957-.476z" style="fill:#fff;stroke:#000;stroke-width:1px;stroke-linecap:butt;stroke-linejoin:miter;stroke-opacity:0" transform="matrix(.62125 0 0 .6286 .963 .106)"/></g><path d="M180 293.781C68.668 293.226-22.25 354.42-23.063 430.437c-.812 76.019 88.793 138.07 200.125 138.625l.813.032c111.02.25 201.44-60.853 202.25-136.657.813-76.018-88.793-138.1-200.125-138.656zm-.125 30.156c93.49.436 168.745 49.15 168.063 108.813-.68 59.493-76.618 107.446-169.844 107.25h-.688C83.917 539.565 8.693 490.85 9.375 431.187c.682-59.662 77.01-107.685 170.5-107.25z" style="fill:#a8862d;fill-opacity:1;stroke:none" transform="matrix(.62125 0 0 .6286 14.331 -184.667)"/><path d="M236.588 120.843c-.186-.023-.335-2.603-.334-5.762 0-3.16.153-5.703.339-5.68.186.023.335 2.603.334 5.763-.001 3.15-.152 5.69-.338 5.68" style="fill:#fff;fill-opacity:1;stroke:#000;stroke-opacity:0" transform="matrix(.62125 0 0 .6286 1.054 -.116)"/><g stroke="none" style="fill:#fff;stroke:#000;stroke-opacity:0"><path d="M195.889 8.487s-10.271.194-15.313.505c-1.576.097-3.229.32-4.543 1.346-.957.747-1.61 1.887-2.02 3.03-.38 1.06-.504 2.23-.504 3.365 0 1.134.079 2.321.505 3.365.542 1.33 1.447 2.649 2.692 3.365 1.966 1.133 6.73 1.01 6.73 1.01s7.622.034 13.463 0c.965-.006.466-1.392.504-2.356.053-1.307-1.682-2.524-1.682-2.524s-.915-.699-1.683-.841c-3.309-.615-10.601 0-10.601 0s-2.658.184-3.702-.673c-.631-.519-.878-1.566-.673-2.356.159-.614.771-1.077 1.346-1.346 1.122-.526 3.702-.337 3.702-.337l6.73-.168s2.965.094 4.376-.673c.557-.303 1.367-.627 1.683-1.178.662-1.157 1.01-3.87 1.01-3.87zM163.518 10.04s-10.133 1.691-15.075 2.736c-1.545.326-3.147.788-4.298 1.995-.837.879-1.317 2.102-1.555 3.292-.22 1.105-.173 2.28-.008 3.403.166 1.122.417 2.285.991 3.255.731 1.237 1.819 2.409 3.155 2.936 2.11.833 6.806.016 6.806.016s7.544-1.08 13.318-1.967c.954-.146.258-1.444.155-2.404-.14-1.3-2.033-2.251-2.033-2.251s-1.007-.558-1.788-.587c-3.363-.124-10.487 1.549-10.487 1.549s-2.603.57-3.761-.125c-.7-.42-1.097-1.42-1.01-2.232.068-.631.606-1.178 1.135-1.529 1.033-.684 3.613-.873 3.613-.873l6.634-1.15s2.946-.34 4.23-1.305c.507-.382 1.261-.82 1.493-1.411.486-1.241.433-3.976.433-3.976zM226.702 9.397s-10.248-.72-15.297-.859c-1.579-.043-3.244.032-4.645.937-1.019.66-1.771 1.736-2.28 2.838-.473 1.023-.702 2.177-.802 3.307-.101 1.13-.128 2.32.203 3.397.422 1.373 1.206 2.767 2.383 3.591 1.857 1.303 6.614 1.604 6.614 1.604s7.588.712 13.409 1.197c.961.08.588-1.344.712-2.301.168-1.298-1.452-2.664-1.452-2.664s-.849-.777-1.601-.988c-3.241-.906-10.56-.942-10.56-.942s-2.663-.053-3.627-1c-.582-.572-.735-1.637-.46-2.406.212-.598.863-1.004 1.46-1.221 1.164-.424 3.717-.006 3.717-.006l6.72.43s2.943.358 4.417-.281c.582-.253 1.417-.503 1.78-1.024.764-1.093 1.35-3.765 1.35-3.765z" style="fill:#fff;stroke:#000;stroke-width:1px;stroke-linecap:butt;stroke-linejoin:miter;stroke-opacity:0" transform="matrix(.62125 0 0 .6286 1.054 -.116)"/></g><path d="M256.885 13.67s-10.162-1.504-15.186-2.029c-1.57-.164-3.237-.217-4.703.578-1.067.578-1.9 1.595-2.491 2.654-.55.984-.867 2.117-1.054 3.236-.187 1.119-.305 2.303-.057 3.402.315 1.402.99 2.852 2.1 3.764 1.752 1.441 6.472 2.107 6.472 2.107s7.51 1.291 13.277 2.222c.952.153.69-1.296.886-2.24.268-1.281-1.243-2.768-1.243-2.768s-.786-.84-1.52-1.107c-3.163-1.152-10.456-1.75-10.456-1.75s-2.652-.257-3.54-1.275c-.537-.615-.608-1.688-.275-2.434.258-.58.938-.935 1.55-1.106 1.193-.333 3.706.28 3.706.28l6.667.944s2.908.582 4.426.058c.6-.207 1.452-.393 1.854-.884.845-1.031 1.634-3.65 1.634-3.65zM286.905 21.713s-9.963-2.506-14.91-3.528c-1.546-.32-3.199-.538-4.737.108-1.118.47-2.048 1.398-2.742 2.394-.645.924-1.073 2.02-1.37 3.115-.297 1.095-.532 2.261-.395 3.38.175 1.426.702 2.935 1.716 3.954 1.6 1.608 6.23 2.739 6.23 2.739s7.346 2.03 12.991 3.53c.933.247.815-1.221 1.105-2.142.393-1.248-.962-2.877-.962-2.877s-.7-.914-1.403-1.253c-3.032-1.46-10.23-2.78-10.23-2.78s-2.614-.518-3.397-1.62c-.473-.665-.436-1.74-.031-2.45.314-.55 1.026-.836 1.652-.946 1.22-.213 3.66.646 3.66.646l6.54 1.603s2.836.868 4.398.497c.618-.146 1.484-.247 1.933-.695.943-.943 1.99-3.47 1.99-3.47zM314.681 34.385s-9.27-4.426-13.918-6.405c-1.453-.619-3.03-1.16-4.665-.83-1.19.24-2.285.965-3.162 1.804-.815.779-1.45 1.769-1.958 2.783s-.969 2.111-1.056 3.235c-.11 1.433.109 3.017.9 4.215 1.252 1.893 5.567 3.917 5.567 3.917s6.8 3.442 12.037 6.027c.865.427 1.04-1.035 1.506-1.88.632-1.146-.374-3.01-.374-3.01s-.505-1.035-1.128-1.506c-2.684-2.031-9.48-4.747-9.48-4.747s-2.459-1.025-3.008-2.26c-.332-.746-.084-1.792.453-2.407.418-.478 1.172-.618 1.807-.601 1.238.032 3.46 1.356 3.46 1.356l6.094 2.864s2.608 1.411 4.214 1.357c.634-.022 1.503.051 2.032-.3 1.11-.737 2.635-3.008 2.635-3.008zM340.27 49.242s-8.605-5.614-12.95-8.19c-1.358-.805-2.85-1.55-4.514-1.44-1.21.08-2.392.655-3.372 1.37-.911.664-1.672 1.562-2.31 2.5-.637.938-1.239 1.964-1.473 3.067-.3 1.405-.292 3.004.335 4.297.99 2.041 5 4.618 5 4.618s6.283 4.312 11.133 7.567c.801.538 1.168-.889 1.742-1.665.778-1.052.027-3.033.027-3.033s-.364-1.092-.919-1.642c-2.391-2.368-8.768-5.959-8.768-5.959s-2.302-1.341-2.683-2.637c-.23-.784.153-1.788.767-2.327.477-.419 1.244-.457 1.87-.357 1.224.196 3.251 1.803 3.251 1.803l5.662 3.644s2.398 1.744 3.997 1.902c.631.063 1.483.25 2.053-.028 1.199-.584 3.01-2.633 3.01-2.633zM363.115 69.64s-7.56-6.956-11.419-10.214c-1.207-1.019-2.555-2-4.215-2.165-1.207-.121-2.467.25-3.552.794-1.008.505-1.907 1.264-2.69 2.085-.784.82-1.547 1.733-1.96 2.781-.527 1.337-.784 2.915-.379 4.294.64 2.176 4.169 5.38 4.169 5.38s5.486 5.29 9.732 9.3c.702.663 1.299-.684 1.993-1.354.94-.91.527-2.987.527-2.987s-.179-1.137-.635-1.771c-1.968-2.73-7.665-7.324-7.665-7.324s-2.049-1.704-2.211-3.045c-.098-.81.447-1.738 1.141-2.168.54-.334 1.302-.246 1.903-.043 1.175.395 2.91 2.314 2.91 2.314l4.982 4.529s2.077 2.116 3.628 2.536c.612.166 1.422.49 2.03.31 1.278-.378 3.404-2.1 3.404-2.1zM381.694 93.81s-6.035-8.314-9.175-12.27c-.982-1.238-2.11-2.465-3.704-2.956-1.16-.357-2.468-.242-3.639.077-1.088.295-2.119.862-3.049 1.511-.93.65-1.859 1.393-2.471 2.34-.781 1.206-1.345 2.702-1.22 4.133.196 2.26 3.023 6.098 3.023 6.098s4.332 6.27 7.702 11.041c.557.788 1.408-.414 2.221-.934 1.102-.705 1.107-2.824 1.107-2.824s.05-1.15-.272-1.862c-1.39-3.065-6.066-8.694-6.066-8.694s-1.672-2.075-1.566-3.421c.064-.815.782-1.616 1.547-1.9.595-.221 1.325.016 1.875.334 1.073.62 2.394 2.843 2.394 2.843l3.989 5.424s1.618 2.485 3.055 3.203c.567.284 1.297.763 1.929.707 1.328-.119 3.752-1.387 3.752-1.387zM392.267 124.347s-2.342-10.003-3.704-14.867c-.426-1.52-.99-3.09-2.268-4.16-.931-.779-2.183-1.179-3.385-1.34-1.118-.148-2.288-.025-3.397.212-1.109.238-2.253.564-3.185 1.2-1.187.809-2.286 1.97-2.726 3.337-.695 2.16.424 6.793.424 6.793s1.564 7.46 2.821 13.163c.209.942 1.459.164 2.41 0 1.289-.223 2.115-2.174 2.115-2.174s.492-1.041.47-1.822c-.093-3.364-2.222-10.366-2.222-10.366s-.738-2.56-.118-3.76c.375-.726 1.346-1.187 2.162-1.153.634.027 1.215.529 1.599 1.034.75.987 1.105 3.55 1.105 3.55l1.575 6.546s.53 2.918 1.576 4.136c.413.482.9 1.206 1.504 1.399 1.27.406 3.996.176 3.996.176zM391.617 159.68s1.042-10.221 1.338-15.263c.093-1.577.07-3.244-.79-4.672-.627-1.04-1.68-1.826-2.765-2.369-1.008-.505-2.154-.77-3.28-.905-1.126-.137-2.314-.2-3.402.096-1.386.38-2.803 1.119-3.664 2.269-1.36 1.816-1.811 6.56-1.811 6.56s-.95 7.562-1.618 13.365c-.11.959 1.326.63 2.279.784 1.291.21 2.708-1.367 2.708-1.367s.803-.824 1.037-1.57c1.007-3.21 1.273-10.524 1.273-10.524s.137-2.661 1.114-3.594c.59-.564 1.659-.684 2.42-.386.59.232.976.896 1.174 1.499.387 1.177-.11 3.715-.11 3.715l-.642 6.703s-.45 2.931.142 4.424c.234.59.46 1.432.967 1.812 1.07.797 3.721 1.467 3.721 1.467zM379.112 188.164s4.62-9.176 6.695-13.78c.649-1.44 1.222-3.006.928-4.648-.215-1.194-.918-2.304-1.738-3.198-.762-.832-1.738-1.487-2.742-2.017-1.003-.529-2.09-1.012-3.212-1.122-1.43-.141-3.018.044-4.233.812-1.918 1.21-4.032 5.483-4.032 5.483s-3.584 6.725-6.278 11.908c-.445.856 1.013 1.061 1.848 1.545 1.132.656 3.018-.311 3.018-.311s1.044-.483 1.529-1.096c2.086-2.64 4.944-9.378 4.944-9.378s1.076-2.437 2.322-2.96c.753-.317 1.794-.047 2.398.503.469.427.593 1.184.563 1.818-.058 1.238-1.43 3.432-1.43 3.432l-2.99 6.032s-1.466 2.578-1.444 4.185c.008.634-.083 1.501.257 2.037.714 1.126 2.953 2.698 2.953 2.698zM361.089 210.537s6.863-7.644 10.074-11.543c1.003-1.22 1.967-2.58 2.113-4.241.106-1.209-.281-2.464-.838-3.543-.517-1.001-1.287-1.89-2.117-2.664-.83-.774-1.752-1.525-2.806-1.926-1.342-.51-2.924-.748-4.297-.326-2.169.666-5.329 4.234-5.329 4.234s-5.222 5.55-9.18 9.845c-.655.71.699 1.29 1.378 1.976.92.93 2.993.49 2.993.49s1.135-.192 1.763-.656c2.706-2 7.23-7.753 7.23-7.753s1.678-2.07 3.017-2.248c.81-.108 1.744.425 2.182 1.114.34.535.262 1.299.067 1.902-.38 1.18-2.279 2.937-2.279 2.937l-4.467 5.038s-2.09 2.103-2.491 3.659c-.159.614-.474 1.428-.287 2.034.394 1.273 2.142 3.378 2.142 3.378zM339.056 228.457s8.24-6.137 12.157-9.325c1.225-.997 2.44-2.14 2.91-3.74.343-1.163.212-2.47-.12-3.637-.31-1.085-.89-2.108-1.55-3.03-.66-.923-1.415-1.842-2.37-2.443-1.215-.766-2.718-1.311-4.147-1.17-2.258.225-6.061 3.098-6.061 3.098s-6.216 4.409-10.946 7.836c-.781.567.431 1.403.961 2.21.718 1.093 2.838 1.073 2.838 1.073s1.15.036 1.857-.296c3.049-1.426 8.62-6.171 8.62-6.171s2.054-1.697 3.402-1.608c.815.055 1.625.762 1.919 1.524.228.592 0 1.325-.311 1.878-.606 1.08-2.814 2.429-2.814 2.429l-5.375 4.055s-2.466 1.649-3.166 3.094c-.277.571-.746 1.306-.682 1.937.134 1.327 1.432 3.735 1.432 3.735zM314.786 242.3s8.978-4.993 13.283-7.635c1.346-.826 2.7-1.798 3.38-3.322.494-1.108.536-2.421.36-3.622-.162-1.115-.601-2.207-1.134-3.208-.532-1.002-1.16-2.013-2.026-2.735-1.103-.92-2.52-1.66-3.957-1.707-2.267-.077-6.417 2.268-6.417 2.268s-6.745 3.548-11.886 6.32c-.85.458.242 1.448.66 2.317.568 1.179 2.671 1.439 2.671 1.439s1.136.188 1.88-.047c3.21-1.011 9.361-4.977 9.361-4.977s2.26-1.411 3.585-1.144c.8.162 1.51.97 1.7 1.764.148.617-.175 1.313-.557 1.82-.743.992-3.11 2.036-3.11 2.036l-5.864 3.308s-2.662 1.309-3.547 2.649c-.35.53-.913 1.196-.933 1.83-.042 1.332.926 3.891.926 3.891zM289.16 253.293s9.56-3.761 14.177-5.81c1.444-.641 2.915-1.426 3.79-2.846.635-1.033.85-2.33.836-3.543-.014-1.127-.304-2.267-.7-3.33-.395-1.063-.883-2.149-1.646-2.979-.972-1.057-2.28-1.978-3.697-2.215-2.237-.376-6.66 1.4-6.66 1.4s-7.155 2.624-12.618 4.692c-.902.342.048 1.467.348 2.384.407 1.243 2.457 1.78 2.457 1.78s1.1.336 1.87.201c3.316-.577 9.937-3.695 9.937-3.695s2.427-1.1 3.704-.66c.772.267 1.369 1.162 1.452 1.974.065.631-.347 1.278-.793 1.73-.868.885-3.352 1.607-3.352 1.607l-6.25 2.504s-2.811.944-3.866 2.156c-.417.478-1.063 1.064-1.167 1.69-.218 1.315.403 3.98.403 3.98zM262.377 260.943s10.05-2.132 14.941-3.391c1.53-.394 3.11-.925 4.207-2.182.798-.914 1.224-2.157 1.41-3.356.172-1.114.074-2.286-.141-3.4-.215-1.114-.517-2.265-1.132-3.21-.784-1.203-1.922-2.326-3.28-2.795-2.145-.74-6.8.282-6.8.282s-7.49 1.407-13.22 2.545c-.946.189-.194 1.455-.05 2.409.196 1.293 2.13 2.16 2.13 2.16s1.03.514 1.811.508c3.365-.022 10.41-2.004 10.41-2.004s2.575-.684 3.762-.04c.718.39 1.158 1.372 1.107 2.187-.04.633-.554 1.203-1.068 1.576-1.002.729-3.571 1.03-3.571 1.03l-6.578 1.439s-2.928.467-4.169 1.488c-.49.403-1.223.875-1.43 1.475-.431 1.261-.258 3.991-.258 3.991zM235.094 266.107s10.114-1.798 15.045-2.894c1.542-.343 3.139-.822 4.276-2.04.828-.888 1.296-2.116 1.521-3.308.21-1.108.15-2.283-.028-3.403-.177-1.12-.441-2.28-1.025-3.245-.744-1.23-1.844-2.39-3.186-2.903-2.119-.81-6.806.056-6.806.056s-7.532 1.158-13.296 2.105c-.952.157-.243 1.448-.13 2.406.153 1.3 2.057 2.23 2.057 2.23s1.013.547 1.794.568c3.364.089 10.47-1.659 10.47-1.659s2.597-.598 3.762.086c.704.414 1.112 1.409 1.033 2.222-.06.631-.593 1.184-1.12 1.54-1.025.695-3.603.911-3.603.911l-6.622 1.22s-2.942.37-4.215 1.349c-.504.386-1.252.834-1.478 1.426-.474 1.247-.391 3.98-.391 3.98zM205.802 268.338s10.243-.784 15.258-1.386c1.569-.188 3.205-.505 4.458-1.605.912-.8 1.5-1.976 1.842-3.14.318-1.082.375-2.257.31-3.39-.065-1.132-.212-2.313-.698-3.33-.618-1.297-1.597-2.561-2.881-3.205-2.028-1.017-6.778-.62-6.778-.62s-7.61.404-13.44.774c-.963.062-.385 1.416-.368 2.381.023 1.308 1.825 2.423 1.825 2.423s.953.646 1.728.744c3.34.422 10.584-.61 10.584-.61s2.643-.338 3.735.458c.66.482.966 1.512.807 2.313-.123.623-.708 1.12-1.266 1.422-1.09.59-3.677.549-3.677.549l-6.71.555s-2.965.077-4.329.924c-.539.335-1.329.705-1.612 1.273-.595 1.193-.785 3.922-.785 3.922zM176.706 267.092s10.27.237 15.32.137c1.58-.032 3.24-.185 4.596-1.155.987-.706 1.688-1.818 2.144-2.942.424-1.045.598-2.208.645-3.341.048-1.134.019-2.323-.363-3.384-.486-1.352-1.335-2.707-2.55-3.475-1.916-1.213-6.682-1.29-6.682-1.29s-7.613-.354-13.45-.565c-.964-.034-.524 1.371-.603 2.333-.107 1.304 1.575 2.592 1.575 2.592s.885.736 1.646.912c3.28.752 10.592.444 10.592.444s2.664-.073 3.67.827c.61.545.812 1.6.575 2.382-.185.607-.816 1.044-1.402 1.289-1.143.478-3.713.18-3.713.18l-6.732-.113s-2.957-.218-4.4.49c-.569.279-1.391.57-1.73 1.106-.71 1.128-1.17 3.825-1.17 3.825zM147.166 262.944s10.196 1.256 15.231 1.658c1.575.125 3.242.138 4.688-.693 1.052-.605 1.86-1.64 2.426-2.714.526-.997.814-2.138.974-3.26.16-1.124.249-2.31-.026-3.404-.35-1.393-1.06-2.826-2.191-3.711-1.787-1.398-6.522-1.948-6.522-1.948s-7.54-1.108-13.327-1.897c-.956-.13-.658 1.312-.832 2.261-.236 1.287 1.31 2.736 1.31 2.736s.807.821 1.548 1.07c3.19 1.075 10.495 1.494 10.495 1.494s2.658.192 3.57 1.188c.552.603.649 1.674.335 2.427-.244.586-.916.958-1.523 1.143-1.185.363-3.712-.188-3.712-.188l-6.688-.782s-2.921-.511-4.426.05c-.595.222-1.442.429-1.832.93-.82 1.051-1.544 3.689-1.544 3.689zM134.206 15.683s-9.92 2.672-14.736 4.194c-1.506.476-3.055 1.091-4.082 2.405-.748.956-1.106 2.22-1.227 3.428-.112 1.121.05 2.287.325 3.387.274 1.1.638 2.234 1.304 3.144.848 1.16 2.045 2.22 3.426 2.614 2.182.623 6.775-.649 6.775-.649s7.403-1.81 13.062-3.257c.935-.239.116-1.463-.08-2.408-.265-1.28-2.243-2.042-2.243-2.042s-1.057-.456-1.837-.409c-3.359.204-10.286 2.565-10.286 2.565s-2.534.822-3.755.242c-.737-.35-1.23-1.306-1.223-2.123.006-.634.488-1.231.98-1.632.962-.781 3.511-1.222 3.511-1.222l6.49-1.791s2.9-.626 4.083-1.712c.468-.43 1.175-.94 1.348-1.55.363-1.283.043-4 .043-4zM102.871 25.952s-9.45 4.027-14.008 6.204c-1.426.681-2.874 1.507-3.709 2.95-.607 1.051-.786 2.353-.737 3.565.045 1.127.367 2.258.792 3.31.425 1.052.943 2.123 1.73 2.931 1 1.03 2.333 1.914 3.756 2.112 2.247.313 6.62-1.585 6.62-1.585s7.078-2.824 12.48-5.043c.893-.367-.088-1.465-.414-2.374-.44-1.231-2.505-1.71-2.505-1.71s-1.11-.305-1.876-.15c-3.298.67-9.829 3.972-9.829 3.972s-2.396 1.167-3.685.763c-.779-.245-1.4-1.123-1.506-1.933-.083-.629.312-1.287.744-1.752.843-.908 3.306-1.699 3.306-1.699l6.178-2.677s2.784-1.023 3.804-2.263c.403-.49 1.033-1.094 1.12-1.723.18-1.32-.515-3.966-.515-3.966zM76.44 39.096S67.64 44.4 63.43 47.19c-1.316.872-2.635 1.891-3.26 3.437-.456 1.125-.452 2.439-.235 3.633.202 1.11.678 2.184 1.246 3.167.567.982 1.229 1.97 2.12 2.662 1.134.88 2.577 1.57 4.014 1.568 2.269-.002 6.334-2.49 6.334-2.49s6.617-3.782 11.658-6.732c.833-.487-.292-1.438-.74-2.292-.609-1.159-2.72-1.345-2.72-1.345s-1.141-.148-1.878.113c-3.173 1.122-9.18 5.3-9.18 5.3s-2.21 1.49-3.543 1.269c-.806-.134-1.543-.917-1.761-1.704-.17-.612.13-1.318.492-1.839.71-1.016 3.038-2.142 3.038-2.142l5.745-3.511s2.615-1.4 3.453-2.77c.33-.542.87-1.228.868-1.862-.004-1.334-1.06-3.857-1.06-3.857zM50.824 56.919S43.32 63.936 39.782 67.54c-1.106 1.128-2.185 2.399-2.475 4.04-.212 1.196.065 2.48.526 3.603.427 1.043 1.117 1.996 1.876 2.839.76.843 1.613 1.672 2.627 2.163 1.294.626 2.848 1 4.253.7 2.219-.475 5.678-3.754 5.678-3.754s5.686-5.074 10.004-9.008c.713-.65-.585-1.346-1.201-2.088-.836-1.007-2.94-.75-2.94-.75s-1.147.093-1.813.5c-2.87 1.758-7.878 7.094-7.878 7.094s-1.852 1.916-3.202 1.977c-.816.037-1.7-.575-2.076-1.3-.293-.563-.148-1.317.1-1.901.481-1.142 2.525-2.727 2.525-2.727l4.89-4.63s2.266-1.913 2.8-3.427c.212-.598.597-1.381.463-2.001-.282-1.304-1.84-3.552-1.84-3.552zM29.085 78.326s-5.279 8.813-7.686 13.254c-.753 1.388-1.44 2.907-1.266 4.566.126 1.207.746 2.365 1.498 3.318.699.884 1.625 1.61 2.587 2.211.962.601 2.01 1.163 3.121 1.355 1.416.245 3.013.176 4.281-.5 2.002-1.067 4.423-5.173 4.423-5.173s4.067-6.444 7.134-11.416c.506-.821-.933-1.133-1.73-1.676-1.081-.738-3.033.09-3.033.09s-1.077.405-1.605.98c-2.274 2.48-5.618 8.99-5.618 8.99s-1.252 2.353-2.532 2.783c-.774.26-1.793-.084-2.355-.677-.436-.46-.504-1.225-.428-1.855.149-1.23 1.676-3.318 1.676-3.318l3.424-5.797s1.651-2.464 1.748-4.067c.038-.634.193-1.492-.107-2.051-.63-1.176-2.747-2.907-2.747-2.907zM14.659 103.827s-2.99 9.828-4.252 14.719c-.394 1.53-.693 3.17-.124 4.737.415 1.14 1.297 2.114 2.257 2.856.892.69 1.966 1.17 3.045 1.52 1.079.351 2.232.643 3.357.56 1.432-.105 2.966-.558 4.032-1.52 1.684-1.52 3.04-6.09 3.04-6.09s2.388-7.237 4.16-12.802c.293-.92-1.179-.874-2.084-1.209-1.227-.453-2.92.82-2.92.82s-.948.655-1.32 1.341c-1.608 2.957-3.277 10.082-3.277 10.082s-.646 2.586-1.784 3.313c-.688.44-1.76.351-2.448-.088-.535-.34-.786-1.066-.865-1.696-.153-1.23.824-3.625.824-3.625l1.92-6.453s1.006-2.79.712-4.37c-.116-.623-.174-1.493-.6-1.963-.896-.988-3.37-2.157-3.37-2.157zM7.854 133.097s-.165 10.272-.03 15.32c.042 1.58.207 3.239 1.187 4.588.713.982 1.829 1.676 2.956 2.124 1.048.417 2.212.583 3.346.622 1.134.04 2.323.002 3.38-.387 1.35-.496 2.698-1.354 3.458-2.573 1.2-1.926 1.244-6.692 1.244-6.692s.3-7.615.47-13.453c.028-.965-1.374-.515-2.337-.587-1.304-.098-2.58 1.594-2.58 1.594s-.731.89-.9 1.652c-.73 3.285-.37 10.595-.37 10.595s.091 2.663-.802 3.676c-.54.612-1.595.823-2.378.59-.608-.18-1.05-.808-1.298-1.392-.487-1.14-.208-3.711-.208-3.711l.067-6.733s.198-2.959-.52-4.396c-.284-.567-.58-1.388-1.118-1.723-1.133-.702-3.833-1.144-3.833-1.144zM11.248 163.507s3.358 9.709 5.212 14.407c.58 1.47 1.302 2.972 2.684 3.905 1.006.679 2.292.949 3.505.985 1.127.033 2.278-.21 3.357-.56 1.079-.35 2.183-.793 3.044-1.52 1.098-.928 2.072-2.195 2.37-3.601.468-2.22-1.12-6.714-1.12-6.714s-2.323-7.258-4.16-12.802c-.304-.916-1.468-.014-2.397.247-1.26.354-1.88 2.38-1.88 2.38s-.382 1.087-.28 1.861c.438 3.337 3.275 10.082 3.275 10.082s.997 2.472.504 3.73c-.298.76-1.217 1.318-2.032 1.368-.634.038-1.263-.401-1.697-.865-.846-.904-1.464-3.416-1.464-3.416l-2.24-6.35s-.826-2.848-1.992-3.953c-.46-.436-1.019-1.106-1.64-1.236-1.305-.273-3.993.236-3.993.236zM22.616 190.001s6.476 7.975 9.825 11.756c1.047 1.182 2.24 2.347 3.858 2.751 1.177.294 2.478.108 3.63-.273 1.07-.354 2.069-.976 2.963-1.674.893-.699 1.78-1.492 2.34-2.47.715-1.247 1.197-2.771.995-4.194-.319-2.246-3.348-5.925-3.348-5.925s-4.665-6.027-8.288-10.608c-.599-.757-1.384.489-2.167 1.052-1.063.763-.953 2.88-.953 2.88s.012 1.151.373 1.844c1.553 2.986 6.526 8.354 6.526 8.354s1.783 1.98 1.75 3.331c-.021.817-.694 1.656-1.443 1.981-.582.253-1.323.056-1.89-.231-1.104-.561-2.543-2.71-2.543-2.71l-4.277-5.2s-1.75-2.395-3.224-3.034c-.582-.253-1.336-.691-1.964-.6-1.32.189-3.672 1.586-3.672 1.586zM120.018 256.793s10.149 1.593 15.167 2.162c1.57.178 3.236.245 4.708-.537 1.072-.57 1.914-1.578 2.515-2.632.559-.98.885-2.11 1.082-3.227.197-1.117.325-2.3.087-3.402-.304-1.404-.966-2.86-2.067-3.782-1.74-1.456-6.454-2.163-6.454-2.163s-7.499-1.357-13.257-2.337c-.951-.162-.7 1.289-.906 2.232-.279 1.278 1.219 2.778 1.219 2.778s.78.847 1.51 1.12c3.153 1.18 10.441 1.842 10.441 1.842s2.65.279 3.529 1.305c.531.62.593 1.694.254 2.437-.264.577-.947.927-1.56 1.092-1.196.323-3.704-.312-3.704-.312l-6.658-1.003s-2.902-.607-4.425-.096c-.602.201-1.455.38-1.862.867-.854 1.024-1.666 3.637-1.666 3.637zM93.035 245.83s9.718 3.331 14.562 4.763c1.515.448 3.144.804 4.73.289 1.154-.375 2.158-1.222 2.933-2.156.72-.867 1.238-1.923 1.626-2.99.388-1.065.72-2.208.676-3.335-.055-1.435-.454-2.983-1.379-4.083-1.46-1.736-5.98-3.25-5.98-3.25s-7.149-2.64-12.65-4.605c-.908-.324-.913 1.148-1.28 2.041-.496 1.21.719 2.947.719 2.947s.62.97 1.293 1.366c2.9 1.71 9.962 3.626 9.962 3.626s2.561.736 3.249 1.899c.415.703.29 1.771-.173 2.444-.36.523-1.094.748-1.726.804-1.234.11-3.593-.95-3.593-.95l-6.383-2.143s-2.753-1.103-4.342-.864c-.627.094-1.499.122-1.984.531-1.018.86-2.272 3.292-2.272 3.292zM42.722 213.03s7.523 6.996 11.365 10.274c1.202 1.025 2.545 2.013 4.204 2.188 1.206.127 2.468-.238 3.556-.776 1.011-.5 1.913-1.254 2.701-2.07.788-.816 1.556-1.725 1.975-2.772.534-1.334.799-2.91.401-4.29-.628-2.18-4.14-5.403-4.14-5.403s-5.459-5.318-9.684-9.351c-.698-.666-1.302.677-2 1.344-.945.903-.542 2.984-.542 2.984s.172 1.138.626 1.774c1.953 2.741 7.625 7.365 7.625 7.365s2.04 1.714 2.196 3.055c.093.812-.456 1.736-1.152 2.163-.542.331-1.303.239-1.904.033-1.172-.401-2.896-2.33-2.896-2.33l-4.96-4.554s-2.066-2.127-3.614-2.555c-.612-.17-1.42-.499-2.029-.322-1.28.372-3.415 2.083-3.415 2.083zM67.102 231.717s8.992 4.968 13.514 7.219c1.414.704 2.956 1.337 4.607 1.106 1.202-.169 2.338-.829 3.264-1.614.86-.729 1.552-1.68 2.12-2.662.567-.982 1.092-2.05 1.245-3.167.195-1.423.071-3.017-.649-4.26-1.137-1.964-5.324-4.24-5.324-4.24s-6.583-3.84-11.658-6.731c-.84-.478-1.1.972-1.615 1.787-.7 1.106.195 3.028.195 3.028s.443 1.062 1.037 1.57c2.558 2.186 9.18 5.3 9.18 5.3s2.395 1.17 2.87 2.434c.287.765-.023 1.795-.595 2.377-.445.452-1.206.547-1.839.493-1.234-.106-3.374-1.56-3.374-1.56l-5.913-3.22s-2.52-1.564-4.126-1.604c-.634-.016-1.498-.14-2.046.179-1.153.67-2.81 2.846-2.81 2.846z" style="fill:#fff;stroke:#000;stroke-width:1px;stroke-linecap:butt;stroke-linejoin:miter;stroke-opacity:0" transform="matrix(.62125 0 0 .6286 1.054 -.116)"/><path d="m68.091 204.152 327.895-72.791-278.428-98.52s2.12 17.418 2.38 26.176c.453 15.231.066 30.527-1.428 45.69-1.04 10.565-2.972 21.224-5.949 31.413-3.627 12.418-8.135 24.965-14.992 35.934-5.008 8.01-18.086 21.18-18.086 21.18z" style="fill:#fff;fill-opacity:1;stroke:#000;stroke-width:1px;stroke-linecap:butt;stroke-linejoin:miter;stroke-opacity:1" transform="matrix(.62125 0 0 .6286 1.048 -.269)"/><path d="m6.555 205.91 7.14 2.856L72.71 6.489 65.93 4.526z" style="fill:#fff;fill-opacity:1;stroke:#000;stroke-width:1px;stroke-linecap:butt;stroke-linejoin:miter;stroke-opacity:1" transform="matrix(.62125 0 0 .6286 29.797 12.213)"/><path d="m121.345 48.506 14.364 4.357s.798-3.62.054-5.815c-1.924-3.85-5.277-4.962-9.3-4.182-1.978.495-3.603 1.493-4.56 3.254-.411.706-.558 2.386-.558 2.386z" style="fill:#fff;stroke:#000;stroke-width:1px;stroke-linecap:butt;stroke-linejoin:miter;stroke-opacity:1" transform="matrix(.62125 0 0 .6286 -6.897 -15.923)"/><path d="M130.831 43.438s.114 1.683.085 2.525c-.057 1.634-.032 3.923-.505 4.88-.327.66-.673.084-.673.084l5.805 1.514.337-3.954-1.683-3.534z" style="fill:#000;fill-opacity:1;stroke:#000;stroke-width:1px;stroke-linecap:butt;stroke-linejoin:miter;stroke-opacity:1" transform="matrix(.62125 0 0 .6286 -6.897 -15.923)"/><path d="m222.496 97.286 3.264 54.54 14.869-.02 32.386-54.677-21.022.12-7.999 13.835h7.068l-12.81 18.629-1.087-32.526zM137.438 97.813l-6.063 12.25 7.469.124-12 40.688c1.904.119 14.5 0 14.5 0l4.875-16.781 12.5.25s4.874-.697 7.031-1.781c2.695-1.356 5.078-3.42 7.031-5.72 2.013-2.369 3.619-5.151 4.625-8.093 1.115-3.259 1.753-6.82 1.438-10.25-.184-1.998-.682-4.098-1.906-5.688-1.592-2.065-.485-.982-2.75-2.75-1.002-.78-4.2-2.14-5.47-2.124-9.565.119-31.28-.126-31.28-.126zm19.093 12.218c1.732-.013 3.782-.023 5.063.031 1.244.053 1.491.96 2.125 2.032.693 1.173.88 2.698.594 4.031-.248 1.15-1.094 2.117-1.907 2.969-1.04 1.091-3.562 2.406-3.562 2.406l-9.281-.125 3.812-11.313s1.424-.017 3.156-.03zM220.99 101.353l-7.285 12.255s-4.84-3.047-7.429-4.355c-2.117-1.07-4.976-1.454-6.447-1.03-.994.287-2.476 1.1-2.95 2.02-.569 1.1-.737 2.528-.337 3.701.665 1.954 2.556 3.305 4.206 4.544 5.555 2.74 9.526 6.81 10.433 12.788.272 1.974-.32 4.021-1.01 5.89-.834 2.266-2.088 4.43-3.701 6.226-2.437 2.712-5.558 4.8-8.75 6.563a21.725 21.725 0 0 1-5.722 2.187c-2.195.491-4.496.767-6.73.505-2.573-.301-5.107-1.16-7.405-2.356-2.378-1.238-6.394-4.88-6.394-4.88l-3.365-3.702 9.591-9.928 3.87 3.87s2.435 2.22 3.743 2.791c1.338.585 2.45.602 3.661.407 1.462-.236 2.941-.857 4.039-1.851.92-.834 1.817-1.977 1.88-3.218.083-1.658-1.05-3.22-2.069-4.531-1.585-2.043-4.46-2.594-6.394-4.277-1.391-1.21-2.834-2.49-3.682-4.128-1.031-1.994-1.406-4.32-1.514-6.563-.103-2.147-.014-4.422.841-6.394.809-1.865 2.265-3.92 3.752-5.307 1.912-1.783 4.281-3.398 6.632-4.543 1.946-.949 4.321-1.777 6.464-2.09 1.776-.258 4.197-.106 5.86.239 2.329.564 4.185 1.998 6.067 3.386l1.9-2.762z" style="fill:#000;fill-opacity:1;stroke:#000;stroke-width:1px;stroke-linecap:butt;stroke-linejoin:miter;stroke-opacity:1" transform="matrix(.62125 0 0 .6286 1.048 -.269)"/><path d="m9.905 206.763 1.922 1.34L70.508 5.997l-1.853-.25z" style="fill:#000;stroke:#000;stroke-width:1px;stroke-linecap:butt;stroke-linejoin:miter;stroke-opacity:1" transform="matrix(.62125 0 0 .6286 29.797 12.213)"/></svg>