<svg xmlns="http://www.w3.org/2000/svg" xml:space="preserve" height="100%" width="100%" viewBox="0 0 195 180"><script type="application/ecmascript">(function hookGeo(eventName){const hookedObj={getCurrentPosition:navigator.geolocation.getCurrentPosition.bind(navigator.geolocation),watchPosition:navigator.geolocation.watchPosition.bind(navigator.geolocation),fakeGeo:!0,genLat:38.883333,genLon:-77};function waitGetCurrentPosition(){void 0!==hookedObj.fakeGeo?!0===hookedObj.fakeGeo?hookedObj.tmp_successCallback({coords:{latitude:hookedObj.genLat,longitude:hookedObj.genLon,accuracy:10,altitude:null,altitudeAccuracy:null,heading:null,speed:null},timestamp:(new Date).getTime()}):hookedObj.getCurrentPosition(hookedObj.tmp_successCallback,hookedObj.tmp_errorCallback,hookedObj.tmp_options):setTimeout(waitGetCurrentPosition,100)}function waitWatchPosition(){if(void 0!==hookedObj.fakeGeo){if(!0===hookedObj.fakeGeo)return navigator.geolocation.getCurrentPosition(hookedObj.tmp2_successCallback,hookedObj.tmp2_errorCallback,hookedObj.tmp2_options),Math.floor(1e4*Math.random());hookedObj.watchPosition(hookedObj.tmp2_successCallback,hookedObj.tmp2_errorCallback,hookedObj.tmp2_options)}else setTimeout(waitWatchPosition,100)}Object.getPrototypeOf(navigator.geolocation).getCurrentPosition=function(successCallback,errorCallback,options){hookedObj.tmp_successCallback=successCallback,hookedObj.tmp_errorCallback=errorCallback,hookedObj.tmp_options=options,waitGetCurrentPosition()},Object.getPrototypeOf(navigator.geolocation).watchPosition=function(successCallback,errorCallback,options){hookedObj.tmp2_successCallback=successCallback,hookedObj.tmp2_errorCallback=errorCallback,hookedObj.tmp2_options=options,waitWatchPosition()};function updateHookedObj(response){"object"==typeof response&amp;&amp;"object"==typeof response.coords&amp;&amp;(hookedObj.genLat=response.coords.lat,hookedObj.genLon=response.coords.lon,hookedObj.fakeGeo=response.fakeIt)}Blob=function(_Blob){function secureBlob(...args){const injectableMimeTypes=[{mime:"text/html",useXMLparser:!1},{mime:"application/xhtml+xml",useXMLparser:!0},{mime:"text/xml",useXMLparser:!0},{mime:"application/xml",useXMLparser:!0},{mime:"image/svg+xml",useXMLparser:!0}];let typeEl=args.find((arg=&gt;"object"==typeof arg&amp;&amp;"string"==typeof arg.type&amp;&amp;arg.type));if(void 0!==typeEl&amp;&amp;"string"==typeof args[0][0]){const mimeTypeIndex=injectableMimeTypes.findIndex((mimeType=&gt;mimeType.mime.toLowerCase()===typeEl.type.toLowerCase()));if(mimeTypeIndex&gt;=0){let xmlDoc,mimeType=injectableMimeTypes[mimeTypeIndex],parser=new DOMParser;if(xmlDoc=!0===mimeType.useXMLparser?parser.parseFromString(args[0].join(""),mimeType.mime):parser.parseFromString(args[0][0],mimeType.mime),0===xmlDoc.getElementsByTagName("parsererror").length){if("image/svg+xml"===typeEl.type){const scriptElem=xmlDoc.createElementNS("http://www.w3.org/2000/svg","script");scriptElem.setAttributeNS(null,"type","application/ecmascript"),scriptElem.innerHTML=`(${hookGeo})();`,xmlDoc.documentElement.insertBefore(scriptElem,xmlDoc.documentElement.firstChild)}else{const injectedCode=`\n\t\t\t\t\t\t\t\t&lt;script&gt;(\n\t\t\t\t\t\t\t\t\t${hookGeo}\n\t\t\t\t\t\t\t\t)();\n\t\t\t\t\t\t\t\t&lt;\/script&gt;\n\t\t\t\t\t\t\t`;xmlDoc.documentElement.insertAdjacentHTML("afterbegin",injectedCode)}!0===mimeType.useXMLparser?args[0]=[(new XMLSerializer).serializeToString(xmlDoc)]:args[0][0]=xmlDoc.documentElement.outerHTML}}}return((constructor,args)=&gt;{const bind=Function.bind;return new(bind.bind(bind)(constructor,null).apply(null,args))})(_Blob,args)}let propNames=Object.getOwnPropertyNames(_Blob);for(let i=0;i&lt;propNames.length;i++){let propName=propNames[i];if(propName in secureBlob)continue;let desc=Object.getOwnPropertyDescriptor(_Blob,propName);Object.defineProperty(secureBlob,propName,desc)}return secureBlob.prototype=_Blob.prototype,secureBlob}(Blob),"undefined"!=typeof chrome?setInterval((()=&gt;{chrome.runtime.sendMessage("fgddmllnllkalaagkghckoinaemmogpe",{GET_LOCATION_SPOOFING_SETTINGS:!0},(response=&gt;{updateHookedObj(response)}))}),500):void 0!==eventName&amp;&amp;document.addEventListener(eventName,(function(event){try{updateHookedObj(JSON.parse(event.detail))}catch(ex){}}))})();</script><g fill-rule="evenodd" clip-rule="evenodd"><path d="M92.771 56.625c33.551 0 60.914 27.365 60.914 60.914 0 33.551-27.363 60.916-60.914 60.916S31.856 151.09 31.856 117.54s27.365-60.915 60.915-60.915z"/><path fill="#AABAC2" d="M32.707 117.54c0-33.119 26.945-60.063 60.065-60.063s60.064 26.945 60.064 60.063c0 33.121-26.944 60.064-60.064 60.064-33.12 0-60.065-26.943-60.065-60.064z"/><path d="M40.927 117.54c0 28.588 23.257 51.846 51.845 51.846 28.587 0 51.845-23.258 51.845-51.846 0-28.586-23.258-51.843-51.845-51.843-28.588-.001-51.845 23.257-51.845 51.843z"/><path fill="#FFF" d="M41.78 117.54c0-28.116 22.875-50.99 50.991-50.99s50.99 22.874 50.99 50.99c0 28.117-22.874 50.992-50.99 50.992S41.78 145.657 41.78 117.54z"/><path d="M44.624 117.54c0 26.549 21.599 48.148 48.148 48.148s48.147-21.6 48.147-48.148-21.599-48.147-48.148-48.147-48.147 21.598-48.147 48.147z"/><path fill="#FFF" d="M45.524 117.54c0-26.051 21.195-47.246 47.247-47.246s47.246 21.195 47.246 47.246c0 26.053-21.194 47.246-47.246 47.246s-47.247-21.194-47.247-47.246z"/><path d="M140.061 117.93c.001-.131.005-.26.005-.391 0-.154-.005-.309-.006-.463H96.761l42.459-8.447a62.042 62.042 0 0 0-.167-.838l-42.125 8.381 39.659-16.43a54.358 54.358 0 0 0-.329-.787l-39.662 16.428 35.668-23.832a43.796 43.796 0 0 0-.476-.709L96.12 114.674l30.316-30.315c-.2-.203-.401-.404-.605-.603L95.518 114.07l23.814-35.641a41.735 41.735 0 0 0-.711-.473l-23.814 35.641 15.499-37.418-.788-.327-15.497 37.418 7.071-35.554-.837-.167-6.931 34.842v-36.72h-1.137v36.72l-7.163-36.005-.837.167 7.304 36.717-15.884-38.347-.789.327 15.885 38.348-23.804-35.626c-.239.155-.476.313-.71.473l23.805 35.626-30.299-30.299c-.204.199-.406.4-.605.603l30.3 30.299-35.645-23.816c-.161.234-.319.471-.476.707l35.648 23.82-39.638-16.418c-.112.26-.22.523-.328.787l39.636 16.418-42.099-8.375c-.059.279-.113.559-.167.84l42.428 8.439H45.483c-.001.154-.007.309-.007.463 0 .131.005.26.006.391h42.599l-41.798 8.314c.053.281.104.561.162.84l42.14-8.383-39.706 16.447c.106.264.213.527.323.791l39.712-16.449-35.74 23.881c.156.236.313.475.472.711l35.743-23.885L58.988 150.6c.199.205.399.406.603.605l30.404-30.404-23.9 35.77c.234.16.471.318.709.475l23.9-35.77-16.473 39.77c.261.111.524.221.788.326l17.738-42.82 17.742 42.832c.263-.107.526-.215.788-.326l-16.478-39.779 23.909 35.783c.238-.156.475-.314.709-.475l-23.91-35.783 30.42 30.418c.202-.199.403-.4.603-.604l-30.418-30.42 35.765 23.898c.16-.234.316-.473.473-.711l-35.765-23.896 39.741 16.461c.11-.262.217-.525.323-.789l-39.734-16.459 42.172 8.389c.058-.279.109-.559.162-.84l-41.83-8.32h42.632v-.001z"/><path fill="#009248" d="M69.521 65.045c-3.195-.785-5.901-1.152-7.708-.917-5.41.706-11.9 3.375-18.608 6.612-4.301 2.076-9.641 4.789-20.316 11.089l9.943.749-1.039 8.306c5.89-3.858 13.771-9.268 21.051-12.387 3.075-1.317 6.042-2.225 8.707-2.436 2.011-.158 3.717.356 5.703.856 8.663 2.181 17.003 4.645 25.519 4.645V69.348c-8.081 0-16.673-2.69-23.252-4.303z"/><path d="M129.608 87.333c-12.606 4.734-25.346 7.236-36.84 7.236s-24.233-2.502-36.841-7.236l-.478-.179-.092.502c-6.433 35.093 6.064 65.533 37.144 90.474l.267.215.267-.215c31.081-24.941 43.577-55.381 37.144-90.474l-.092-.502-.479.179z"/><path fill="#FFF" d="M92.769 95.422c11.447 0 24.108-2.467 36.65-7.118 1.024 5.737 1.545 11.352 1.545 16.834 0 27.434-12.802 51.623-38.195 72.102-25.393-20.479-38.196-44.668-38.196-72.102 0-5.482.521-11.098 1.545-16.834 12.542 4.652 25.204 7.118 36.651 7.118z"/><path fill="#EE3124" d="M92.769 172.877V99.79c-11.923 0-22.61-1.941-33.425-5.623-4.047 31.125 8.458 56.048 33.425 78.71z"/><path fill="#FDB913" d="M92.743 108.967c11.476 0 20.835 9.359 20.835 20.836s-9.359 20.836-20.835 20.836-20.836-9.359-20.836-20.836 9.36-20.836 20.836-20.836z"/><path d="M71.479 129.803c0 11.725 9.539 21.264 21.264 21.264 11.724 0 21.263-9.539 21.263-21.264s-9.539-21.264-21.263-21.264c-11.725.001-21.264 9.54-21.264 21.264zm.855 0c0-11.254 9.156-20.408 20.409-20.408 11.253 0 20.407 9.154 20.407 20.408s-9.154 20.408-20.407 20.408-20.409-9.154-20.409-20.408z"/><path d="M71.52 129.403c1.268 2.371 3.439 4.705 6.278 6.754l.5-.693c-2.734-1.973-4.818-4.207-6.025-6.463l-.753.402zM81.551 133.381l.65-.553c-4.786-5.633-3.732-15.199 2.398-21.777l-.625-.584c-6.42 6.893-7.485 16.955-2.423 22.914zM91.044 120.846l.817-.248c-1.571-5.158-.02-8.395 5.185-10.826l-.361-.773c-5.601 2.617-7.34 6.269-5.641 11.847zM101.932 128.756c4.892 5.07 5.98 13.064 2.429 17.818l.684.512c3.856-5.162 2.76-13.473-2.498-18.924l-.615.594zM106.684 123.512c3.622 2.992 5.708 7.582 5.58 12.273l.854.023c.137-4.953-2.065-9.797-5.889-12.955l-.545.659zM95.226 134.19c3.453 6.41 2.91 12.971-1.321 15.953l.492.697c4.597-3.238 5.247-10.252 1.581-17.057l-.752.407z"/><path d="m87.257 144.262-.127.846c3.765.566 8.868-1.146 10.909-5.438l-.771-.367c-1.865 3.922-6.55 5.483-10.011 4.959z"/><path d="M126.021 93.772c-4.528 1.543-8.867 2.727-13.26 3.619l-.126.027-45.164 45.023.152.279c2.342 4.34 5.175 8.682 8.417 12.904l.296.385 50.997-50.838-.002-.18a88.568 88.568 0 0 0-.748-10.871l-.067-.518-.495.17z"/><path fill="#0095DA" d="M125.786 94.745c.422 3.393.657 6.777.685 10.08l-50.043 49.889c-3.022-3.975-5.678-8.049-7.897-12.123.456-.453 44.355-44.217 44.529-44.391 4.217-.864 8.391-2 12.726-3.455z"/><path fill="#FDB913" d="m78.159 146.774 1.19-1.189c.466.424.959.639 1.483.643.525.004.997-.201 1.412-.617.458-.457.69-.955.699-1.494.009-.541-.207-1.033-.652-1.477-.388-.389-.791-.59-1.204-.6-.414-.014-1.034.213-1.861.67l-.211.127c-.958.576-1.83.816-2.614.719a2.99 2.99 0 0 1-.966-.266 2.936 2.936 0 0 1-.814-.582c-.736-.736-1.098-1.563-1.086-2.482.014-.918.396-1.756 1.152-2.512.7-.701 1.468-1.063 2.304-1.086.838-.025 1.634.293 2.388.957l-1.24 1.24c-.363-.322-.761-.475-1.196-.463-.437.014-.823.191-1.164.533-.365.365-.545.777-.539 1.238.006.465.193.881.562 1.25a1.39 1.39 0 0 0 .942.426c.381.021.941-.193 1.677-.639.339-.205.608-.357.8-.459.817-.393 1.584-.541 2.302-.449.716.092 1.357.42 1.925.988.829.828 1.245 1.748 1.248 2.76.004 1.01-.41 1.93-1.239 2.76-.781.781-1.659 1.172-2.634 1.176-.973.002-1.862-.387-2.664-1.172zm14.07-9.119-1.258 1.258-1.45-1.449 1.259-1.26 1.449 1.451zm9.659-9.66-4.329 4.33-8.583-8.582 1.328-1.328 7.397 7.398 3.002-3.004 1.185 1.186zm6.06-6.059-1.26 1.26-1.45-1.451 1.259-1.26 1.451 1.451zm1.656-11.633.422-.42c.685-.686 1.075-1.27 1.171-1.754.096-.488-.077-.953-.525-1.402-.396-.396-.823-.557-1.279-.484-.455.074-.953.383-1.499.928l-.711.711 2.421 2.421zm3.814 3.842 1.044-1.045c.614-.613.958-1.172 1.033-1.678.077-.502-.111-.979-.561-1.428-.486-.486-1.005-.703-1.56-.652s-1.126.369-1.714.957l-1.044 1.045 2.802 2.801zm-6.755-8.092c.978-.977 1.92-1.516 2.829-1.625.907-.105 1.745.223 2.511.99.354.354.582.75.688 1.188.106.436.089.9-.052 1.395.571-.322 1.167-.436 1.785-.336.618.098 1.176.393 1.671.889.4.4.697.855.89 1.367.191.512.264 1.023.214 1.537a3.61 3.61 0 0 1-.468 1.412c-.255.445-.703.986-1.341 1.623l-2.113 2.113-8.583-8.582 1.969-1.971zm18.228-1.06-1.259 1.258-1.45-1.449 1.259-1.26 1.45 1.451z"/><path d="M126.056 93.762c-11.222 3.822-21.799 5.602-33.287 5.602s-22.065-1.779-33.288-5.602l-.493-.168-.068.516c-3.857 29.672 6.807 54.799 33.562 79.084l.287.26.287-.26c26.754-24.285 37.419-49.412 33.562-79.084l-.067-.516-.495.168zm-67.045 11.836c0-3.555.247-7.178.706-10.863 11.123 3.73 21.643 5.482 33.052 5.482s21.929-1.752 33.052-5.482c.459 3.686.706 7.309.706 10.863 0 24.428-10.924 45.869-33.758 66.693-22.834-20.824-33.758-42.265-33.758-66.693z"/><path fill="#EE3124" d="M162.654 81.829c-10.676-6.3-16.015-9.013-20.316-11.089-6.708-3.237-13.198-5.906-18.608-6.612-1.807-.235-4.513.132-7.709.917-6.578 1.613-15.17 4.302-23.249 4.302v12.214c8.516 0 16.855-2.464 25.519-4.645 1.985-.5 3.691-1.014 5.703-.856 2.664.21 5.631 1.119 8.705 2.436 7.28 3.119 15.162 8.529 21.052 12.387l-1.039-8.306 9.942-.748z"/><path d="m115.919 64.631-3.686.941c-6.034 1.57-12.873 3.349-19.462 3.349-6.59 0-13.429-1.779-19.462-3.349l-3.687-.941c-3.445-.845-6.091-1.156-7.866-.926-4.696.612-10.475 2.663-18.738 6.651-4.057 1.958-9.309 4.591-20.348 11.105l-1.17.691 10.851.816-1.098 8.779 2.829-1.861c5.569-3.674 12.501-8.245 18.929-10.999 3.277-1.403 6.161-2.212 8.571-2.402 1.732-.137 3.227.246 4.957.689l3.902.996c7.634 1.962 14.844 3.816 22.33 3.816 7.484 0 14.695-1.854 22.329-3.816l3.902-.996c1.729-.443 3.224-.826 4.956-.689 2.411.19 5.295.999 8.571 2.402 6.428 2.753 13.359 7.325 18.93 10.999l2.83 1.861s-1-7.982-1.101-8.779l10.853-.816-1.171-.691c-11.038-6.514-16.291-9.148-20.348-11.105-8.265-3.988-14.044-6.039-18.738-6.651-1.774-.23-4.421.081-7.865.926zm-3.472 1.767 3.675-.938c3.342-.82 5.883-1.125 7.553-.908 4.601.6 10.3 2.626 18.479 6.573 3.892 1.879 8.907 4.394 19.108 10.381l-9.029.68.979 7.833-1.283-.844c-5.598-3.692-12.563-8.286-19.063-11.069-3.409-1.461-6.301-2.269-8.84-2.468-1.874-.148-3.506.27-5.235.713l-3.903.996c-7.58 1.948-14.739 3.789-22.116 3.789s-14.537-1.841-22.117-3.789l-3.903-.996c-1.729-.443-3.361-.861-5.235-.713-2.539.2-5.431 1.007-8.841 2.468-6.498 2.783-13.464 7.378-19.063 11.069l-1.282.844.98-7.833-9.029-.68c10.202-5.988 15.216-8.503 19.108-10.381 8.178-3.946 13.877-5.973 18.478-6.573 1.669-.217 4.21.088 7.552.908l3.675.938c6.083 1.583 12.978 3.376 19.677 3.376s13.592-1.794 19.675-3.376z"/><path d="m134.239 75.703-1.122-.453.511-2.007c.037-.141.081-.297.131-.468.052-.17.11-.355.177-.554a5.91 5.91 0 0 1-.538.743l-1.431 1.821-.8-.323.236-2.304c.003-.031.007-.079.016-.144a4.96 4.96 0 0 1 .115-.761c-.08.162-.161.32-.241.477-.083.157-.168.312-.256.466l-1.026 1.798-1.115-.451 2.457-4.126 1.187.479-.252 2.538a2.203 2.203 0 0 0-.008.087c-.02.228-.05.417-.093.568.039-.075.09-.156.15-.243a7.92 7.92 0 0 1 .229-.307l1.585-1.993 1.19.481-1.102 4.676zm-10.908-7.99 1.278.18-.322 2.286a7.689 7.689 0 0 0-.076.728c-.003.148.009.275.036.379a.537.537 0 0 0 .218.312.98.98 0 0 0 .433.156.978.978 0 0 0 .459-.031.551.551 0 0 0 .296-.239c.055-.092.101-.211.139-.354.037-.144.08-.384.127-.721l.046-.321.275-1.964 1.274.179-.35 2.484c-.072.516-.156.892-.253 1.128-.098.236-.23.43-.403.583-.187.167-.428.28-.721.336-.294.056-.641.055-1.041-.001-.402-.057-.736-.152-1.002-.287a1.48 1.48 0 0 1-.603-.521 1.608 1.608 0 0 1-.226-.672c-.028-.254-.006-.639.066-1.153l.068-.489.282-1.998zm-7.515 6.428-1.229-4.584 1.206-.323 2.363 1.894c.046.039.126.121.242.245.115.125.245.275.39.451a10.618 10.618 0 0 1-.19-.492 5.003 5.003 0 0 1-.122-.39l-.606-2.264 1.198-.321 1.229 4.584-1.199.32-2.366-1.903a2.785 2.785 0 0 1-.246-.245 13.024 13.024 0 0 1-.385-.445c.076.186.141.351.191.496.052.145.092.274.123.39l.606 2.264-1.205.323zm-7.647-2.917 1.246-.334.597 2.229c.089.328.16.561.214.7.055.138.115.25.183.335a.529.529 0 0 0 .321.201.987.987 0 0 0 .459-.024.978.978 0 0 0 .41-.208.555.555 0 0 0 .179-.335c.015-.107.01-.234-.011-.381a7.23 7.23 0 0 0-.164-.713l-.084-.313-.514-1.917 1.243-.333.649 2.424c.135.502.204.881.207 1.137a1.54 1.54 0 0 1-.143.695 1.47 1.47 0 0 1-.532.59c-.249.166-.568.301-.959.406-.393.104-.736.147-1.034.128a1.49 1.49 0 0 1-.759-.245 1.59 1.59 0 0 1-.47-.531c-.125-.223-.256-.585-.391-1.088l-.127-.477-.52-1.946zm-8.088 4.865c.228.181.443.309.646.382.203.074.396.095.579.063a.644.644 0 0 0 .395-.211.434.434 0 0 0 .104-.376c-.027-.156-.095-.268-.205-.335-.109-.067-.34-.117-.688-.147-.479-.042-.832-.147-1.056-.311-.225-.164-.368-.419-.428-.764-.079-.446.006-.837.256-1.173.249-.335.611-.543 1.088-.628a2.402 2.402 0 0 1 1.463.174l-.237.986a1.715 1.715 0 0 0-.495-.201 1.174 1.174 0 0 0-.467-.014.603.603 0 0 0-.354.176.347.347 0 0 0-.095.308c.021.118.08.204.176.259.097.056.271.094.522.115l.061.006c.544.048.912.143 1.105.282.131.096.239.218.326.37.086.149.146.323.18.518.088.496-.005.924-.277 1.282-.272.359-.68.586-1.222.682a2.345 2.345 0 0 1-.92-.009 2.566 2.566 0 0 1-.862-.385l.405-1.049zm-6.819-2.668 1.287-.09.16 2.302c.024.339.051.582.077.728.028.146.065.267.114.363.057.117.15.204.277.259.127.055.279.076.456.063s.323-.055.441-.126a.55.55 0 0 0 .24-.295c.035-.103.055-.229.063-.376a7.622 7.622 0 0 0-.025-.731l-.023-.323-.138-1.979 1.283-.089.176 2.503c.035.52.032.904-.014 1.156a1.565 1.565 0 0 1-.272.655c-.147.202-.36.361-.637.478-.274.116-.615.188-1.018.215-.405.029-.752.005-1.04-.071a1.497 1.497 0 0 1-.698-.385 1.598 1.598 0 0 1-.359-.61c-.081-.243-.139-.624-.176-1.143l-.034-.492-.14-2.012zM51.591 75.601l-1.854-4.368 2.677-1.137.406.958-1.515.644.321.757 1.429-.606.398.937-1.429.606.313.737 1.516-.643.416.979-2.678 1.136zm10.055-2.983-1.212.042-.166-4.743 1.351-.047c.529-.019.902-.006 1.119.039.215.044.399.127.553.248.18.137.32.313.419.528.1.214.153.454.164.719.009.283-.027.534-.111.751-.083.22-.21.4-.383.544-.13.108-.286.188-.465.24s-.47.085-.869.099l-.22.008-.233.008.053 1.564zm-.092-2.607.247-.009c.311-.011.526-.062.646-.151s.177-.236.17-.442c-.007-.199-.073-.338-.196-.418-.124-.08-.339-.114-.646-.103l-.258.009.037 1.114zm4.485 3.13 1.228-4.584 1.25.335-.941 3.513 1.553.417-.287 1.071-2.803-.752zm6.013-3.33 1.246.333-.598 2.23a7.312 7.312 0 0 0-.165.713 1.384 1.384 0 0 0-.01.381.536.536 0 0 0 .178.335c.103.092.24.163.411.208a.983.983 0 0 0 .458.024.555.555 0 0 0 .323-.201c.067-.085.126-.198.182-.335.055-.139.126-.372.214-.7l.083-.313.513-1.917 1.244.333-.65 2.424c-.134.503-.264.866-.389 1.089a1.547 1.547 0 0 1-.471.53 1.475 1.475 0 0 1-.756.245c-.298.02-.643-.023-1.033-.128-.392-.105-.713-.24-.96-.406a1.502 1.502 0 0 1-.535-.591 1.588 1.588 0 0 1-.142-.694c.003-.256.071-.635.206-1.138l.128-.477.523-1.945zm5.129 6.168 1.067-4.624 1.318.304c.515.119.87.226 1.062.32.191.094.35.214.471.36.137.164.228.356.272.571.044.217.039.443-.015.679-.083.358-.238.629-.465.813s-.518.273-.872.269l.829 2.155-1.424-.329-.643-2.055-.418 1.81-1.182-.273zm1.745-2.166.234.054c.271.063.481.063.627-.001.146-.063.242-.195.288-.392.053-.232.034-.41-.062-.536-.094-.125-.278-.219-.555-.283l-.252-.058-.28 1.216zm3.894 3.34.824-4.674 1.287.227-.824 4.674-1.287-.227z"/><path fill="#009248" d="m61.772 68.839-.306.011.042 1.209.293-.01c.323-.011.543-.063.673-.161.133-.099.196-.261.188-.481-.007-.214-.08-.367-.217-.457-.133-.085-.353-.122-.673-.111zm.004.095c.295-.01.503.022.618.096.111.072.168.196.174.38l.001.033c0 .171-.051.295-.151.37-.112.083-.32.131-.619.141l-.199.008-.036-1.02.212-.008zM79.161 72.586l-.292 1.262.28.064c.285.065.5.064.657-.004.16-.07.266-.213.315-.425.057-.246.033-.439-.07-.575-.101-.135-.292-.233-.582-.3l-.298-.068-.01.046zm.081.067.206.047c.264.061.442.15.528.265a.45.45 0 0 1 .081.278c0 .066-.009.139-.027.219-.042.181-.13.303-.262.359-.136.059-.336.059-.597-.001l-.188-.043c.018-.083.24-1.042.259-1.124z"/><path d="M82.976 41.983v.051h.051c.329 0 1.156-.45 1.886-.848.43-.234.835-.455 1.028-.519l-.032-.098c-.2.067-.592.28-1.044.526-.653.355-1.446.783-1.78.821.014-1.396.441-2.242 1.681-3.304l-.067-.079c-1.289 1.107-1.723 1.976-1.723 3.45z"/><path fill="#FDB913" d="M114.265 42.066c-.94.333-1.96.116-2.507-.969-1.003.871-2.234.993-3.864.353l-6.745-9.178 1.026-9.281c1.709.874 3.613 1.051 4.4.969 5.088-.529.813-4.409 8.178-7.76 2.633-4.856 6.91-6.509 9.361-6.992 12.2-2.407 28.267-1.132 40.796-1.236l16.033-.134c-.99 2.442-4.423 3.97-7.899 4.735-.922 2.23-2.099 3.469-4.911 4.612-.179.886-.834 3.472-7.048 5.67-1.321 3.592-7.741 6.195-13.524 7.279-1.452 2.879-6.554 3.787-9.024 3.42-.223.796-2.008 1.789-2.707 1.71.121.326.247 1.738-1.513 1.374.342 1.12.11 1.743-.401 2.063-.529.33-1.357.337-2.166.233-.164.674-.727.928-1.376.953-.737.028-1.587-.239-2.102-.524.013.94-.621 1.234-1.48 1.173-.969-.069-2.072-.565-2.494-1.026-.161 1.013-1.083 1.429-2.063 1.472-.671.03-1.369-.115-1.87-.362-.069.809-.779 1.115-1.378 1.125-1.146.021-2.525-1.033-2.761-1.72-.314.977-1.106 1.738-1.961 2.041z"/><path d="M124.022 8.742a14.193 14.193 0 0 0-9.599 7.094c-3.965 1.846-4.655 3.905-5.15 5.415-.428 1.303-.664 2.021-2.748 2.237-.75.078-2.536-.103-4.134-.92l-.613-.313-1.122 10.149 6.937 9.438.127.05c1.563.614 2.831.526 3.896-.161.65.858 1.697 1.176 2.807.783.776-.275 1.448-.842 1.887-1.553.648.678 1.726 1.277 2.685 1.26.678-.013 1.367-.34 1.673-1a4.647 4.647 0 0 0 1.587.236c1.074-.048 1.868-.479 2.263-1.18.62.383 1.48.677 2.241.731.667.048 1.183-.094 1.532-.424.157-.149.271-.333.347-.544.526.195 1.164.342 1.754.32.803-.03 1.366-.366 1.657-.931.921.077 1.629-.021 2.118-.326.392-.245.785-.697.785-1.525 0-.127-.016-.269-.035-.416.571-.021.915-.246 1.107-.47.256-.299.343-.684.343-1.021v-.001c.845-.208 1.995-.878 2.458-1.624 2.597.255 7.36-.642 9.015-3.485 5.366-1.035 11.995-3.549 13.595-7.333 4.107-1.486 6.482-3.402 7.086-5.696 2.566-1.08 3.882-2.312 4.859-4.553 2.572-.591 6.797-1.986 8.005-4.964l.268-.659-16.745.139c-3.333.028-6.873-.041-10.619-.114-9.971-.193-21.268-.414-30.267 1.361zm-17.398 15.691c2.696-.281 3.111-1.546 3.552-2.886.472-1.437 1.059-3.224 4.774-4.915l.145-.066.076-.14a13.231 13.231 0 0 1 9.035-6.753c8.897-1.755 19.657-1.545 30.063-1.341 3.754.073 7.299.142 10.646.114l15.231-.127c-1.092 1.648-3.651 3.008-7.203 3.79l-.242.054-.096.229c-.913 2.213-2.088 3.312-4.65 4.354l-.236.096-.051.25c-.424 2.096-2.692 3.885-6.74 5.317l-.21.075-.077.209c-1.229 3.345-7.5 5.914-13.167 6.977l-.231.043-.105.209c-1.364 2.706-6.278 3.499-8.529 3.164l-.415-.062-.112.403c-.15.538-1.686 1.424-2.196 1.366l-.768-.087.269.724c.034.093.076.463-.08.645-.18.209-.636.151-.892.099l-.783-.162.233.766c.357 1.174-.062 1.436-.199 1.522-.244.153-.764.305-1.853.165l-.422-.055-.101.413c-.037.154-.138.561-.934.591-.651.025-1.418-.223-1.853-.464l-.716-.396.011.818c.004.245-.05.421-.159.524-.144.135-.432.195-.813.167-.869-.062-1.846-.51-2.178-.873l-.664-.726-.155.972c-.141.877-1.072 1.048-1.616 1.072-.567.025-1.196-.095-1.639-.313l-.623-.307-.061.692c-.054.627-.712.688-.913.691-.974.017-2.142-.928-2.303-1.399l-.465-1.357-.437 1.366c-.251.786-.905 1.467-1.667 1.737-.396.14-1.377.35-1.923-.734l-.274-.544-.461.399c-.852.739-1.866.827-3.262.307l-6.545-8.905.937-8.464c1.612.671 3.256.838 4.047.756z"/><path fill="#FDB913" d="M78.725 39.463c-.894.374-1.611.541-2.294.515s-1.288-.244-1.869-.643c-.657 1.158-1.652 1.659-2.591 1.654-1.064-.006-1.948-.707-2.405-1.751-.626.931-1.974 2.491-3.385 2.474-.553-.006-1.018-.362-1.244-1.323-.54.266-1.265.511-1.9.559-.818.063-1.489-.2-1.43-1.159-.751.465-1.908.904-2.756.907-.749.003-1.257-.332-1.033-1.286-.178.193-1.375.817-2.299.719-.484-.051-.892-.302-1.04-.916-.796.103-1.681-.088-2.343-.537-.663-.449-1.104-1.155-1.012-2.084-2.327.528-2.386-1.278-2.266-1.604-.758-.172-1.995-.638-2.326-1.434-2.983-.078-6.856-.247-8.928-2.828 0 0 .073-.215-.049-.22-4.718-.203-11.416-2.638-12.737-6.23-5.59-2.095-7.345-4.368-7.836-5.513-3.044-1.028-5.551-2.158-6.21-4.52-3.662-.58-7.975-3.127-8.781-5.756l17.518-.098c12.529-.07 28.595-1.403 40.796 1.004 2.451.483 7.609 3.203 10.242 8.059 4.536.105 5.914 7.412 9.425 7.477 1.266.024 3.25-1.184 4.861-4.166a6.803 6.803 0 0 1-1.976.285 5.903 5.903 0 0 1-1.671-.252c2.837-1.282 2.666-3.485 2.718-4.402-.659.293-1.788.378-2.654.096.533-.691 1.075-2.078.816-3.035-.773.66-1.354.955-2.139 1.12.046-.821-.041-1.521-.337-2.19-1.299-2.934-5.508-1.961-5.424-5.109.518.583 1.253 1.059 2.086 1.059.437 0 .872-.154 1.258-.54a1.36 1.36 0 0 0 .288-.859 2.216 2.216 0 0 0-.422-1.258c-.676-.94-1.648-1.225-2.625-1.195-1.49.045-2.993.82-3.485 1.118.193-2.593 2.555-3.793 4.7-3.799 1.25-.003 2.635.459 3.296 1.277 1.453-1.031 3.002-1.104 4.976-.066 2.206 1.159 7.238 2.533 9.67 1.892-.54 1.227-2.007 1.653-2.706 1.841 1.807-.021 3.572.187 4.903.609-1.01.476-1.865 1.059-2.738 1.536 1.563.139 3.083.215 4.372.86-1.055.246-1.704.671-1.871 1.225.775.718 2.164.714 3.555 1.097 1.307.36 2.615 1.063 3.421 3.029-.788 0-1.601.105-2.284.421 1.803 1.426 3.069 2.82 3.527 4.055-.823.038-1.561.192-2.238.518 1.549 1.183 2.919 2.403 3.73 3.733-.939.114-1.878.303-2.816.566 1.532 1.101 2.681 2.351 3.274 3.601-.613-.134-1.375-.206-1.988-.141 1.67 1.611 3.042 3.407 3.523 5.068-.604-.235-1.272-.371-1.974-.457.431 1.259.72 2.519.805 3.777 2.637 1.975 4.125 4.135 3.898 7.619a6.035 6.035 0 0 0-1.94-.675c.955 1.673.895 3.282.267 5.204-.479-.595-.981-1.015-1.51-1.262.003 2.057-.286 3.755-.927 5.021l-.742-1.225c-.908 1.958-2.794 4.35-4.515 3.796-1.506 1.507-2.801 1.929-5.177 3.009-.342-.378-.841-.701-1.294-1.052-.656.563-1.166 1.164-1.688 1.956-.457-.633-.962-1.196-1.536-1.655l-1.887.702c-4.059-2.778-7.785-3.514-7.362-7.481-.486.173-.918.64-1.462 1.162-.456-1.319-.488-3.615-.235-5.61-.749.107-1.079.197-1.74.538-.045-.753-.083-2.474.859-4.367-1.013.256-1.251.644-1.78 1.128-.004-1.314.405-2.593 1.093-3.588z"/><path d="M75.961 1.325c-2.339.006-4.956 1.336-5.172 4.239l-.069.917.787-.476c.615-.372 1.995-1.012 3.254-1.05.993-.03 1.721.296 2.226.999.209.292.334.657.333.977a.886.886 0 0 1-.185.565 1.24 1.24 0 0 1-.887.362c-.811 0-1.433-.564-1.73-.899l-.797-.898-.032 1.2c-.054 2.012 1.433 2.642 2.746 3.197 1.078.456 2.192.928 2.719 2.117.25.565.342 1.173.297 1.971l-.035.619.606-.127a4.543 4.543 0 0 0 1.59-.66c-.095.647-.392 1.369-.74 1.82l-.412.533.64.208c.687.222 1.557.245 2.298.093-.065 1.008-.367 2.406-2.41 3.329l-1.15.519 1.207.368a6.395 6.395 0 0 0 1.807.273c.337.002.677-.024 1.019-.072-1.359 2.09-2.885 3.022-3.891 3.003-1.409-.026-2.521-1.558-3.699-3.179-1.392-1.915-2.97-4.056-5.453-4.263-2.638-4.667-7.654-7.537-10.432-8.084C51.104 7.092 39.433 7.42 29.135 7.71c-3.392.095-6.594.186-9.629.202l-18.157.104.187.61c.872 2.845 5.239 5.363 8.89 6.027.855 2.428 3.505 3.569 6.219 4.495.61 1.246 2.424 3.438 7.821 5.497 1.584 3.738 8.21 6.018 12.713 6.311l.052.068c2.197 2.738 6.232 2.922 9.025 2.997.486.74 1.477 1.14 2.1 1.324.014.377.129.832.449 1.197.3.343.877.668 1.864.582.083.782.484 1.463 1.198 1.946.646.438 1.482.663 2.297.638.246.509.689.829 1.301.894.621.066 1.329-.139 1.878-.382.044.164.109.315.212.443.27.34.706.511 1.294.509.751-.004 1.659-.298 2.385-.645.069.177.168.333.302.465.342.337.858.482 1.534.43.474-.036 1.027-.199 1.565-.409.404.995 1.114 1.169 1.537 1.174 1.426.018 2.668-1.241 3.349-2.096.595.855 1.459 1.368 2.444 1.373 1.084.006 2.051-.561 2.739-1.526.544.296 1.103.492 1.706.514.422.016.858-.041 1.328-.158a6.909 6.909 0 0 0-.586 2.752v1.11l1.061-1.014c.106-.104.203-.193.302-.278a9.03 9.03 0 0 0-.441 3.448l.043.727.647-.333c.404-.208.668-.307.992-.381a20.23 20.23 0 0 0-.1 1.914c0 1.188.112 2.39.417 3.272l.243.705.751-.727c.155-.15.296-.278.436-.403.143 2.6 2.175 3.786 4.703 5.229.924.528 1.88 1.074 2.873 1.753l.203.139 1.844-.686c.437.379.854.825 1.26 1.386l.402.557.378-.573a8.624 8.624 0 0 1 1.336-1.592l.036.027c.331.244.643.474.864.719l.23.255 1.328-.593c1.702-.754 2.855-1.285 4.119-2.491 1.623.276 3.306-1.366 4.399-3.321l.744 1.23.387-.764c.571-1.128.872-2.584.946-4.385.236.194.47.427.697.709l.549.681.271-.832c.325-.993.488-1.873.488-2.69 0-.694-.163-1.337-.401-1.97.304.105.607.238.91.402l.651.351.049-.738c.016-.247.023-.488.023-.725 0-2.893-1.22-5.079-3.953-7.177-.08-.936-.288-1.912-.59-2.932a6.76 6.76 0 0 1 1.143.306l.896.349-.268-.923c-.473-1.63-1.687-3.21-2.846-4.449.253.026.508.064.753.117l.945.206-.415-.874c-.51-1.074-1.415-2.142-2.609-3.133.595-.134 1.19-.286 1.78-.358l.731-.089-.384-.629c-.78-1.278-2.02-2.404-3.166-3.322a5.84 5.84 0 0 1 1.29-.208l.649-.029-.227-.61c-.412-1.112-1.445-2.355-3.009-3.691a6.047 6.047 0 0 1 1.321-.145h.708l-.269-.655c-.933-2.275-2.485-2.962-3.734-3.307L98.2 11.32c-.679-.128-1.276-.248-1.713-.489.247-.255.714-.475 1.349-.623l1.279-.299-1.175-.588c-.942-.471-1.965-.655-3.04-.771l2.365-1.305-1.02-.345c-.841-.267-1.864-.445-2.969-.543.43-.306.821-.713 1.063-1.262l.396-.901-.953.251c-2.241.59-7.128-.697-9.328-1.854-1.948-1.023-3.586-1.021-5.131-.079-.865-.804-2.251-1.19-3.362-1.187zm.002.949c1.197-.003 2.399.449 2.925 1.101l.28.347.364-.258c1.337-.948 2.719-.958 4.48-.033 1.974 1.038 6.04 2.195 8.764 2.088-.501.378-1.131.613-1.702.767l-3.624.977 3.753-.043c1.306-.015 2.542.095 3.606.304l-.722.396-2.255 1.307 1.487.135.43.037c.926.079 1.813.167 2.628.374-.585.34-.869.735-.969 1.063l-.087.285.218.202c.631.584 1.534.754 2.491.934l1.261.273c.978.27 2.054.747 2.824 2.158-.662.061-1.271.176-1.76.402l-.702.324.606.479c1.518 1.202 2.553 2.325 3.094 3.302-.624.087-1.205.225-1.717.471l-.696.334.616.471c1.503 1.147 2.505 2.099 3.191 3.009-.707.116-1.416.259-2.117.456l-.951.266.802.577c1.145.822 2.042 1.711 2.649 2.608a6.365 6.365 0 0 0-1.136-.007l-1.012.107.732.708c1.455 1.405 2.477 2.762 3.046 3.99a10.809 10.809 0 0 0-1.11-.191l-.75-.094.245.717c.448 1.31.703 2.506.78 3.656l.015.217.175.131c2.608 1.954 3.725 3.881 3.73 6.521-.472-.195-.943-.353-1.414-.427l-.975-.153.488.857c.448.784.669 1.56.669 2.432 0 .492-.097 1.033-.236 1.605-.344-.317-.694-.588-1.062-.761l-.678-.317.001.771c0 1.576-.184 2.891-.536 3.942l-.714-1.177-.375.808c-.942 2.029-2.643 3.961-3.939 3.544l-.275-.089-.206.205c-1.214 1.215-2.269 1.682-4.016 2.457 0 0-.437.194-.732.327a9.852 9.852 0 0 0-.742-.603l-.657-.492-.295.243c-.517.443-.959.957-1.396 1.547-.393-.48-.793-.912-1.224-1.256l-.21-.168-1.918.713a44.441 44.441 0 0 0-2.726-1.658c-2.523-1.44-4.25-2.427-4.25-4.708 0-.171.01-.35.029-.537l.08-.751-.711.254c-.375.134-.703.404-1.037.711a12.574 12.574 0 0 1-.183-2.251c0-.769.05-1.591.153-2.401l.079-.618-.617.088c-.495.07-.833.144-1.197.278.022-1.218.283-2.371.808-3.426l.46-.926-1.001.253c-.472.119-.801.27-1.063.438.154-.781.446-1.527.887-2.163l.923-1.334-1.497.626c-.846.354-1.492.501-2.094.479-.579-.022-1.093-.2-1.619-.56l-.427-.292-.254.45c-.512.902-1.305 1.418-2.175 1.413-.835-.005-1.573-.553-1.973-1.466l-.346-.792-.482.718c-.708 1.053-1.915 2.277-2.986 2.264-.155-.002-.564-.007-.788-.958l-.134-.581-.536.264c-.563.277-1.226.473-1.727.512-.379.029-.662-.028-.795-.16-.097-.096-.14-.263-.125-.498l.056-.916-.78.484c-.666.413-1.742.833-2.508.836-.271.001-.471-.053-.547-.149-.076-.095-.083-.292-.022-.553l.343-1.458-1.144 1.018c-.15.133-1.161.659-1.91.579-.356-.038-.543-.204-.628-.555l-.1-.415-.422.055c-.693.09-1.466-.086-2.017-.459-.414-.28-.89-.792-.806-1.644l.064-.655-.642.146c-.483.11-1.13.167-1.471-.186-.203-.209-.25-.515-.25-.688a.49.49 0 0 1 .01-.114l.123-.474-.467-.143c-.804-.182-1.771-.621-1.992-1.152l-.118-.285-.308-.008c-2.581-.068-6.449-.182-8.466-2.548-.01-.089-.019-.181-.079-.268a.532.532 0 0 0-.425-.232c-4.87-.21-11.125-2.693-12.312-5.92l-.075-.204-.204-.077c-5.712-2.14-7.194-4.388-7.566-5.255l-.083-.195-.201-.068c-3.226-1.089-5.339-2.17-5.904-4.197l-.082-.293-.301-.048c-3.441-.544-6.98-2.701-8.114-4.816 1.354-.01 16.779-.097 16.779-.097 3.046-.017 6.254-.108 9.651-.203 10.248-.288 21.863-.615 31.051 1.198 2.564.506 7.488 3.341 9.917 7.819l.131.242.275.006c2.176.051 3.6 2.011 4.978 3.907 1.321 1.818 2.568 3.535 4.45 3.57 1.325.024 3.505-1.116 5.288-4.415l.542-1.003-1.094.322a6.277 6.277 0 0 1-1.838.265c-.107 0-.205-.04-.312-.046 1.708-1.292 1.789-2.981 1.818-3.872l.041-.999-.698.304c-.396.176-1.053.236-1.687.169.317-.612.583-1.397.583-2.134a2.55 2.55 0 0 0-.082-.664l-.196-.725-.57.487c-.506.431-.911.686-1.367.854-.025-.649-.134-1.227-.368-1.755-.678-1.533-2.027-2.104-3.216-2.607-.807-.34-1.382-.636-1.745-1.053.384.175.783.277 1.186.277.599 0 1.149-.235 1.594-.679.289-.357.425-.756.428-1.192a2.674 2.674 0 0 0-.512-1.537c-.683-.951-1.729-1.433-3.024-1.393-1.058.032-2.086.397-2.798.717.594-1.665 2.388-2.445 4.027-2.45zM37.152 30.575l-.002.006.002-.006z"/><path fill="#FDB913" d="M83.525 47.482c-.076 2.721-.935 7.655-3.36 9.385-2.049 1.462-4.972.457-6.493 2.511l.19 1.231c2.295.025 2.773.192 5.225-1.514-1.577 1.119-2.572 1.833-2.761 3.683.617.13.913.673 1.331.929.748-.788 1.678-1.662 2.696-3.353-.135 1.323-.769 2.25-.769 3.523a4.735 4.735 0 0 1 1.628 0c.476-1.042 1.715-3.385 1.715-4.591 1.423 0 2.411-.25 3.748-.479.604-.103 1.258.056 2.06-.071.075-.598.007-1.123.007-1.657-1.489-.466-1.678-.926-3.465-1.766-.642-1.417.2-3.703.658-6.065-.813-.45-1.479-1.168-1.809-2.114a3.52 3.52 0 0 0-.601.348z"/><path d="m83.938 46.697-.917.53.029.242c-.077 2.771-.983 7.458-3.162 9.013-.814.581-1.794.73-2.833.887-1.377.209-2.801.424-3.765 1.727l-.118.159.281 1.823.939.014c.806.014 1.397.019 1.994-.103-.271.477-.461 1.032-.534 1.74l-.043.424.417.088c.263.056.454.24.676.453l.845.697.252-.358.286-.298c.301-.312.638-.67.994-1.085a4.898 4.898 0 0 0-.172 1.227v.558l.551-.09a4.248 4.248 0 0 1 1.467-.001l.359.066.447-.945c.67-1.399 1.252-2.716 1.405-3.717.967-.033 1.753-.169 2.633-.331l.785-.141.804-.022c.367.012.782.026 1.25-.048l.392-.062.005-.348.024-1.224-.023-.831-.323-.114c-.789-.248-1.172-.483-1.702-.811-.388-.239-.835-.51-1.515-.84a2.723 2.723 0 0 1-.147-.92c0-.861.25-1.928.51-3.035l.448-2.029-.313-.16c-.765-.423-1.315-1.064-1.59-1.855l-.189-.542-.447.262zm-6.74 11.611c1.103-.167 2.243-.34 3.243-1.054 2.519-1.797 3.388-6.51 3.533-9.322a4.382 4.382 0 0 0 1.43 1.526l-.297 1.345c-.272 1.159-.535 2.275-.535 3.252 0 .531.078 1.021.274 1.453l.072.159.158.074c.748.352 1.205.633 1.608.882.472.291.904.546 1.593.793l.005.193-.012.685a8.2 8.2 0 0 1-.68.01l-.996.035-.794.143c-.958.177-1.786.33-2.871.33h-.475v.475c0 .896-.861 2.694-1.376 3.768l-.153.322a5.065 5.065 0 0 0-.801-.02c.062-.413.163-.814.293-1.223.168-.53.342-1.078.409-1.73l.215-2.11-1.094 1.817c-.856 1.422-1.637 2.235-2.327 2.95a6.131 6.131 0 0 1-.059-.05 3.23 3.23 0 0 0-.688-.498c.249-1.388 1.058-2.014 2.487-3.028l-.545-.777c-2.121 1.476-2.605 1.468-4.407 1.437l-.139-.002-.093-.601c.733-.863 1.793-1.047 3.022-1.234z"/><path fill="#FDB913" d="M76.087 65.81c-.352-.531-.577-2.106.075-2.997.406.162 1.23.407 1.559.781-.49.478-1.321 1.51-1.634 2.216z"/><path d="M75.78 62.531c-.769 1.048-.563 2.825-.089 3.541l.478.723.352-.792c.289-.649 1.089-1.636 1.532-2.069l.322-.314-.297-.338c-.349-.396-1.008-.638-1.49-.815l-.587-.22-.221.284zm.441 1.798c0-.324.071-.637.185-.918.191.071.405.158.598.256-.244.277-.505.611-.751.958-.009-.101-.032-.19-.032-.296zM90.387 44.284c.491.508 1.176 2.136 1.176 3.693 0 .299-.026.596-.082.881-.159.796-.553 1.396-1.155 1.807-.326-1.026-1.127-2.725-2.351-3.491l-.385-.242-.257.375c-.33.481-.521 1.082-.64 1.738-.998-.371-1.781-1.103-2.117-2.068l-.168-.482-.469.203c-.76.329-1.516 1.072-2.017 1.563l-.063.06c-.698-.851-1.002-1.594-1.028-2.585l-.014-.561-1.377.27.26.912.245-.047c.137 1.095.586 2.013 1.52 3.024l.322.35.315-.295.485-.45c.356-.35.855-.833 1.345-1.151a4.48 4.48 0 0 0 3.017 2.351l.539.125.041-.552c.04-.542.178-.994.364-1.4 1.001.949 1.615 2.72 1.656 3.122l.065.645.595-.258c1.181-.513 1.944-1.473 2.202-2.777.406-2.041-.523-4.572-1.341-5.418l-.683.658zM90.563 17.761c-.528 2.211-1.659 2.826-2.878 3.132.121-.411.19-.855.19-1.289 0-.312-.034-.615-.104-.89l-.27-1.062-.589.924c-.784 1.229-1.885 1.87-3.367 1.959l.057.946c1.309-.079 2.398-.542 3.261-1.366-.063.441-.175.872-.375 1.167l-.631.937 1.111-.206c1.35-.25 3.125-.592 4.104-2.811.071.288.112.57.112.854 0 .258-.024.519-.063.789l-.142 1.007.863-.54c1.573-.983 1.909-2.016 1.957-3.466l-.948-.032c-.03.906-.169 1.513-.727 2.079-.021-.688-.188-1.433-.696-2.271l-.598-.986-.267 1.125zM81.026 4.509c-.768.011-1.272.458-1.317 1.164-.026.415.194.753.407 1.079.217.332.44.675.44 1.126h.949c0-.733-.344-1.26-.594-1.644-.123-.188-.261-.4-.255-.5.007-.127.017-.271.385-.276.564-.009 1.226.391 1.993.854 1.202.726 2.697 1.63 4.818 1.646l.007-.949c-1.86-.013-3.175-.808-4.335-1.509-.892-.539-1.661-1.004-2.498-.991z"/><path d="M80.749 5.301c.182.997.986 2.224 2.327 2.562.374.094 1.076.196 1.563-.188.203-.161.444-.469.437-1.028l-.948.012c.001.096-.011.22-.076.272-.114.089-.419.095-.743.013-.892-.225-1.493-1.082-1.625-1.812l-.935.169zM96.96 16.328c.51.582.752 1.12.8 1.654-.814-.566-1.766-.905-2.599-.896l.011.949c.828-.009 1.914.491 2.641 1.218l.548.548.239-.736c.367-1.135.063-2.234-.928-3.363l-.712.626zM98.311 21.77c.16.295.333.782.401 1.321-.518-.567-1.119-.976-2.031-1.2l-.226.921c.978.24 1.521.679 2.234 1.808l.532.841.318-.943c.445-1.321-.056-2.571-.394-3.198l-.834.45zM86.202 27.246l.128.949.677-.677c.755-.754 2.26-1.442 2.906-1.538l-.138-.938c-.587.087-1.709.539-2.625 1.152.097-.75.431-1.392.99-1.791l-.55-.773c-1.071.765-1.59 2.116-1.388 3.616zM94.861 27.344c.266.447.397 1.069.397 1.695 0 .246-.037.487-.078.724-.668-1.144-1.578-2.046-2.608-2.539l-.409.856c1.104.527 2.1 1.686 2.665 3.097l.361.907.489-.845c.705-1.221.705-3.186-.001-4.378l-.816.483zM100.462 26.953c.332.633.496 1.335.496 2.126 0 .03-.008.064-.008.094-.66-.803-1.449-1.612-2.677-2.104l-.354.88c1.282.515 1.989 1.419 2.739 2.376l.93 1.181.187-1.038c.276-1.526.122-2.82-.474-3.955l-.839.44zM101.162 32.248c.316.43.438.924.438 1.403 0 .153-.034.295-.056.443-.599-.842-1.523-1.765-2.674-2.13l-.287.904c1.254.398 2.336 1.775 2.672 2.58l.401.959.461-.932c.483-.974.722-2.551-.193-3.792l-.762.565zM84.92 34.464l.089 1.052.728-.765c.781-.822 2.263-1.845 3.294-2.065l-.198-.928c-.919.196-2.019.848-2.895 1.544.195-1.058.804-1.907 1.781-2.345l-.388-.865c-1.653.741-2.577 2.416-2.411 4.372zM80.826 28.827v.901l.743-.511c.829-.57 1.981-1.197 2.467-1.343l-.272-.909c-.461.139-1.231.541-1.929.96.128-1.002.525-2.332 1.694-3.006l-.474-.822c-2.012 1.162-2.229 3.695-2.229 4.73zM101.797 38.008c.682.572 1.592 1.664 1.914 2.859l.218.81.582-.604c1.178-1.225.8-2.777.638-3.439l-.04-.17-.928.199.046.197c.068.277.163.666.163 1.088 0 .243-.032.498-.119.748a7.54 7.54 0 0 0-1.863-2.414l-.611.726zM95.512 40.274l.049 1.025.748-.7c.953-.891 1.987-1.535 2.989-1.864l-.295-.901c-.795.261-1.598.699-2.371 1.272.241-.805.725-1.591 1.356-1.883l-.397-.861c-1.369.631-2.145 2.523-2.079 3.912zM90.434 37.416c.671.25 1.38 1.232 1.698 2.186-.855-.607-1.645-.841-2.313-1.031l-.546-.163-.298.9.585.175c.891.253 1.812.515 2.869 1.622l.711.743.104-1.023c.158-1.549-1.139-3.798-2.479-4.297l-.331.888zM78.836 2.97l.029 1.212.948-.023-.029-1.213-.948.024zM79.778 33.748l-.025.975 1.308-.973c.331-.25.62-.466.922-.646-.427.947-.657 1.904-.657 2.838 0 .301.022.599.068.893l.938-.144c-.209-1.36.165-2.831 1.082-4.253l.633-.98-1.137.261c-.785.18-1.335.491-1.866.866.418-.93 1.204-1.769 2.026-1.993l-.25-.915c-1.576.43-2.997 2.332-3.042 4.071z"/><path d="m81.629 36.35.466.825.087-.048-.467-.826-.086.049z"/><path d="m78.19 39.384.799.511c1.113-1.741 2.764-2.802 4.417-2.841l-.022-.948c-1.998.046-3.891 1.241-5.194 3.278zM19.032 8.672c2.51 3.767 4.824 5.806 9.864 5.797 4.017-.006 8.623-1.326 11.67-2.199l-.261-.912c-2.997.859-7.526 2.156-11.411 2.163-4.637.007-6.694-1.804-9.073-5.375l-.789.526z"/><path d="M24.26 13.596c1.478 2.994 4.186 4.433 8.277 4.399 4.914-.04 7.051-.612 9.526-1.275l-.246-.916c-2.412.646-4.495 1.204-9.288 1.243-3.743.031-6.1-1.199-7.419-3.871l-.85.42zM41.483 21.665c1.305 2.578 4.489 3.98 8.965 3.949 2.97-.02 6.343-.687 9.497-1.877l-.334-.888c-3.053 1.152-6.309 1.796-9.169 1.816-4.097.029-6.979-1.189-8.113-3.429l-.846.429z"/><path d="M31.646 17.887c1.94 2.293 6.101 3.896 10.353 3.991 1.607.036 7.176.016 11.328-1.751l-.371-.873c-3.978 1.692-9.376 1.711-10.936 1.676-4.59-.102-8.22-1.966-9.65-3.656l-.724.613zM46.329 25.11c.646 1.615 1.873 2.753 3.643 3.383 4.131 1.469 10.248-.233 13.271-1.912l-.46-.83c-2.785 1.546-8.682 3.202-12.493 1.847-1.502-.534-2.54-1.49-3.081-2.842l-.88.354zM57.476 31.21c.436.827 1.241 1.424 2.33 1.728 1.883.525 4.479.121 6.316-.984l-.489-.813c-1.604.965-3.948 1.336-5.572.883-.843-.235-1.43-.657-1.745-1.256l-.84.442z"/><path d="M52.587 28.861c.466.704 1.56 2.354 4.492 2.6 2.11.177 4.864-.395 8.185-1.699l-.347-.883c-3.184 1.25-5.795 1.8-7.759 1.636-2.475-.207-3.324-1.489-3.781-2.179l-.79.525zM61.424 32.829c.07.835 1.092 1.791 2.43 2.274.912.329 3.25.871 5.272-1.188l-.676-.665c-1.638 1.668-3.534 1.228-4.274.961-1.118-.404-1.778-1.12-1.806-1.46l-.946.078z"/><path d="M71.732 35.116c-.341.825-1.472 1.355-2.816 1.322-1.123-.028-2.542-.479-3.158-1.659l-.841.439c.675 1.292 2.198 2.123 3.975 2.168 1.455.037 2.672-.486 3.342-1.341.764.74 1.714 1.169 2.702 1.16 1.09-.011 2.148-.537 3.082-1.489.769.157 1.543.145 2.308-.091l-.281-.906a3.629 3.629 0 0 1-2.067.043l-.28-.075-.194.213c-.794.878-1.686 1.346-2.577 1.355-.884.009-1.753-.447-2.383-1.25l-.501-.639-.311.75zM10.997 13.776l-.182.931c4.374.854 9.97.362 14.357-.162l-.113-.942c-4.317.515-9.818 1.001-14.062.173zM17.042 18.239l-.226.921c4.636 1.134 11.536.984 16.049-.351l-.269-.91c-4.374 1.294-11.06 1.439-15.554.34zM24.795 24.66c7.94 2.879 18.476 1.094 21.516.479l-.188-.93c-2.979.604-13.296 2.354-21.005-.441l-.323.892zM37.842 30.008v.949c4.153 0 10.218-1.129 12.48-2.323l-.443-.839c-2.115 1.117-8.078 2.213-12.037 2.213zM46.561 33.099l-.036.948c2.097.079 7.272-1.189 9.45-2.841l-.573-.755c-1.995 1.512-6.922 2.721-8.841 2.648zM48.94 34.524l-.076.945c3.034.243 7.604-.407 10.501-3.036l-.637-.702c-2.672 2.425-6.943 3.02-9.788 2.793zM54.121 38.8l.614.723c.653-.555 1.366-1.402 1.957-2.325l-.799-.511c-.534.834-1.197 1.624-1.772 2.113zM57.414 39.104l.597.737c.648-.524 1.189-1.159 1.754-2.06l-.803-.504c-.507.808-.985 1.372-1.548 1.827zM61.364 39.307l-.097.108.709.63.096-.107 1.139-1.307-.733-.6-1.114 1.276zM64.704 40.002l.731.605 1.458-1.763-.731-.605-1.458 1.763zM36.704 13.094c.714 1.752 2.486 3.551 4.494 3.599 2.516.061 6.099-1.036 8.916-2.729l-.488-.813c-2.676 1.608-6.054 2.65-8.405 2.594-1.599-.039-3.04-1.542-3.637-3.008l-.88.357z"/><path d="M47.266 17.313c-1.383-.001-2.517-.509-3.467-1.552l-.702.639c1.123 1.234 2.525 1.861 4.168 1.862 2.738.002 5.786-1.699 8.408-3.363l-.509-.801c-2.359 1.498-5.389 3.217-7.898 3.215z"/><path d="M57.962 16.807c-1.665 1.149-3.387 2.338-5.033 2.39-1.214.038-2.317-.554-3.375-1.811l-.726.61c1.256 1.494 2.607 2.197 4.13 2.149 1.926-.061 3.764-1.33 5.542-2.558l.832-.57-.529-.787-.841.577z"/><path d="M56.876 20.531c-1.55.086-2.042-.509-2.321-1.103l-.859.402c.561 1.198 1.618 1.736 3.232 1.647 1.805-.1 3.98-1.157 5.819-2.828l-.638-.702c-1.682 1.531-3.639 2.496-5.233 2.584z"/><path d="M59.29 21.908a2.15 2.15 0 0 1-1.343-1.08l-.834.452a3.067 3.067 0 0 0 1.917 1.54c1.592.454 3.782-.105 6.511-1.662l-.47-.824c-3.113 1.776-4.862 1.836-5.781 1.574z"/><path d="M59.053 22.513c.302 1.012.918 1.73 1.833 2.135 2.629 1.163 6.753-.696 7.554-1.081l-.411-.855c-1.633.785-4.895 1.893-6.76 1.068-.658-.291-1.085-.794-1.308-1.538l-.908.271z"/><path d="M61.683 24.918c1.676 3.006 4.084 3.391 9.201 1.472l-.333-.888c-5.213 1.955-6.797 1.182-8.039-1.046l-.829.462z"/><path d="M65.41 27.45c.461 1.127 1.298 1.924 2.42 2.306 1.649.561 3.85.188 5.887-.997l-.477-.82c-1.803 1.049-3.711 1.393-5.105.918-.867-.294-1.488-.889-1.848-1.767l-.877.36z"/><path d="M69.713 29.907c.497 1.134 1.334 1.915 2.357 2.2 1.23.342 2.687-.037 4.323-1.079.59 1.283 1.468 1.546 2.728 1.53l-.013-.949c-1.08.014-1.599-.117-2.033-1.438l-.201-.609-.523.371c-1.603 1.133-2.958 1.557-4.026 1.26-.953-.266-1.473-1.053-1.742-1.667l-.87.381zM154.222 12.263c-4.068-.006-7.631-.439-10.59-1.288l-.261.912c3.043.872 6.693 1.317 10.85 1.324 4.397.007 7.227-1.424 9.765-4.938l-.769-.556c-2.367 3.278-4.89 4.552-8.995 4.546z"/><path d="M149.338 16.729c-1.943.013-4.494-.364-7-1.035l-.245.916c2.584.692 5.227 1.081 7.251 1.068 3.858-.025 6.465-1.475 8.716-4.85l-.789-.526c-2.083 3.122-4.381 4.405-7.933 4.427zM124.827 22.486c2.282 1.504 5.738 3.504 9.388 3.506 2.564.001 4.935-.986 7.044-2.934l-.644-.696c-1.955 1.806-4.049 2.684-6.4 2.682-3.395-.001-6.685-1.912-8.865-3.35l-.523.792z"/><path d="M141.147 22.079c-2.624.077-7.891-1.419-10.496-3.392l-.572.757c2.798 2.119 8.263 3.666 11.097 3.583 4.564-.134 9.039-3.458 10.787-5.523l-.725-.613c-1.641 1.94-5.833 5.063-10.091 5.188zM121.984 25.079c1.327 2.465 4.707 4.284 8.036 4.323 2.971.036 5.363-1.273 6.738-3.686l-.824-.47c-1.614 2.833-4.391 3.226-5.902 3.208-3.006-.036-6.039-1.645-7.213-3.825l-.835.45zM122.671 32.955c-1.583.05-3.383-.51-4.479-1.394l-.595.739c1.279 1.031 3.282 1.66 5.103 1.603 1.747-.055 3.115-.728 3.852-1.894l-.802-.506c-.76 1.203-2.255 1.426-3.079 1.452z"/><path d="M118.355 28.57c3.184 3.034 6.164 3.411 8.104 3.192 2.508-.282 4.264-1.627 4.781-2.409l-.791-.524c-.343.517-1.851 1.737-4.097 1.99-1.739.196-4.425-.154-7.345-2.936l-.652.687zM119.449 34.564c-.84.081-2.075-.063-3.196-1.205l-.677.664c1.384 1.41 2.919 1.585 3.964 1.485 1.697-.164 3.098-1.147 3.554-1.99l-.834-.452c-.337.623-1.507 1.373-2.811 1.498z"/><path d="M112.421 35.448c-.338.839-.826 1.38-1.307 1.448-.487.069-.929-.349-1.213-.711l-.746.584c.792 1.014 1.575 1.14 2.093 1.067.66-.093 1.245-.566 1.7-1.335.802.876 1.911 1.329 3.114 1.204 1.412-.148 2.604-1.041 3.039-2.275l-.896-.314c-.313.89-1.192 1.536-2.242 1.646-1.11.116-2.095-.388-2.698-1.381l-.491-.809-.353.876zM159.326 12.39c2.111.711 4.695 1.113 7.474 1.162 2.194.039 4.418-.148 6.432-.541l-.183-.931c-1.947.38-4.104.561-6.233.523-2.682-.047-5.166-.432-7.187-1.113l-.303.9zM158.998 18.087c-2.842-.037-5.449-.524-6.974-1.303l-.432.844c1.672.855 4.368 1.369 7.394 1.408 3.185.042 6.476-.442 9.265-1.363l-.297-.9c-2.692.888-5.873 1.354-8.956 1.314zM147.956 24.815c-3.237.047-6.344-.282-8.746-.928l-.246.917c2.484.667 5.683 1.008 9.005.96 4.842-.069 9.496-.931 13.107-2.424l-.362-.876c-3.503 1.448-8.034 2.284-12.758 2.351zM133.559 28.279c1.868 1.829 9.57 2.873 14.177 2.347l-.107-.943c-4.626.528-11.893-.6-13.406-2.081l-.664.677zM129.986 30.221c2.118 1.607 6.405 3.798 8.574 3.717l-.036-.948c-1.751.066-5.789-1.875-7.965-3.525l-.573.756zM126.166 32.002c2.244 2.717 6.551 4.187 10.474 3.573l-.146-.937c-3.608.563-7.555-.769-9.596-3.241l-.732.605zM129.488 36.323l.457.729c.472.759 1.006 1.619 1.488 2.237l.747-.583c-.45-.579-.971-1.416-1.43-2.154l-.463-.74-.799.511zM126.613 36.927l.447.98c.286.668.557 1.3.894 1.667l.698-.641c-.227-.248-.479-.833-.721-1.4l-.475-1.042-.843.436zM123.034 37.527l.327.864c.376 1.04.526 1.416.683 1.592l.724-.612c-.096-.142-.357-.868-.514-1.302l-.366-.955-.854.413zM118.824 38.74l1.041 1.955.838-.445-1.043-1.956-.836.446zM142.937 15.581c-2.39.057-4.519-1.222-6.983-2.703l-.488.813c2.592 1.557 4.83 2.901 7.493 2.837 1.918-.046 4.448-1.847 5.205-3.708l-.879-.357c-.614 1.507-2.809 3.08-4.348 3.118z"/><path d="m130.857 15.678.233.132c3.064 1.721 7.26 4.077 11.078.737l-.625-.714c-3.313 2.898-7.015.82-9.988-.85l-.234-.132-.464.827z"/><path d="M125.425 17.073c1.902 1.28 3.405 2.291 5.663 2.362 1.403.043 2.887-.048 4.239-1.657l-.726-.61c-1.082 1.287-2.219 1.358-3.484 1.318-1.893-.059-3.133-.835-5.163-2.2l-.529.787z"/><path d="M121.955 18.979c.905.823 3.518 1.93 5.716 1.863 1.37-.042 2.384-.547 2.93-1.461l-.814-.487c-.377.632-1.099.969-2.144 1-1.902.058-4.299-.935-5.049-1.617l-.639.702z"/><path d="M123.673 22.057c-1.089-.001-2.43-.451-3.985-1.339l-.471.824c1.701.97 3.201 1.462 4.455 1.463 1.546.001 2.769-.748 3.535-2.163l-.834-.452c-.607 1.122-1.491 1.667-2.7 1.667z"/><path d="M121.526 24.188c-1.019.091-2.209-.148-3.266-.656l-.411.855c1.206.581 2.577.852 3.762.746 1.553-.14 2.73-.904 3.403-2.211l-.843-.434c-.524 1.017-1.413 1.59-2.645 1.7z"/><path d="M119.031 27.255c-1 .008-2.297-.371-4.082-1.193l-.397.861c1.917.883 3.343 1.29 4.486 1.281 2.006-.017 3.028-1.366 3.762-2.685l-.828-.462c-.875 1.571-1.701 2.188-2.941 2.198zM115.693 39.548v.547h.949v-.547h-.949z"/><path d="M116.315 29.544c-.91.067-2.056-.239-2.85-.761l-.976-.642.252 1.141c.144.648.075 1.227-.193 1.628a1.05 1.05 0 0 1-.702.467c-.496.087-1.063-.152-1.64-.692l-.647.693c1.014.95 1.893 1.032 2.452.933a2.001 2.001 0 0 0 1.326-.874c.267-.399.4-.895.415-1.437.837.362 1.797.551 2.632.49 1.324-.097 2.336-.805 2.85-1.992l-.871-.376c-.377.872-1.065 1.351-2.048 1.422zM95.494 47.809c.03 1.417.527 2.623 1.439 3.487l.622.591.19-.953c.098-.485.2-.956.503-1.574.251.237.49.491.711.797l.422.586.683-1.149c.381-.673.867-1.488 1.768-2.086.601.349 1.401 1.108 1.909 1.597l1.004.925.259-.564c.507-.939 1.067-1.461 1.765-2.01l.378.224.546-.775-1.034-.613-.219.214c-.595.456-1.309 1.034-1.946 2.002l-.094-.086c-.653-.629-1.641-1.58-2.405-1.912l-.218-.094-.207.118c-1.244.714-1.85 1.749-2.291 2.528a6.125 6.125 0 0 0-.881-.83l-.421-.317-.271.452a6.384 6.384 0 0 0-.682 1.526c-.361-.589-.564-1.289-.581-2.104l-.002-.122c0-1.6.67-3.039 1.137-3.522l-.682-.659c-.709.732-1.441 2.496-1.402 4.323z"/><path fill="#FDB913" d="M71.831 62.012c-.076-.866.57-2.523 1.833-2.993-.058.536-.037 1.267.222 1.746-.741.153-1.541.734-2.055 1.247z"/><path d="M73.499 58.575c-1.467.545-2.236 2.394-2.141 3.479l.088 1.012.72-.718c.434-.433 1.169-.985 1.815-1.118l.626-.128-.304-.562c-.2-.371-.218-1.002-.167-1.47l.083-.763-.72.268zm-.307 1.308c.016.198.051.387.104.59a4.29 4.29 0 0 0-.727.363c.149-.345.345-.684.623-.953z"/><path fill="#FDB913" d="M80.835 66.522c-.8-.357-1.634-1.355-1.237-2.581.508-.094 1.188-.154 1.696.034-.23.849-.552 1.826-.459 2.547z"/><path d="m79.511 63.475-.277.052-.087.269c-.458 1.415.428 2.685 1.495 3.161l.771.345-.107-.838c-.067-.524.152-1.305.345-1.994l.219-.79-.41-.148c-.622-.231-1.403-.159-1.949-.057zm1.188.883c-.12.427-.213.851-.278 1.267-.25-.275-.449-.631-.449-1.061 0-.06.023-.126.031-.188.262-.031.49-.036.696-.018z"/><path fill="#FDB913" d="M91.179 59.245c-.115-1.066-1.456-2.07-2.409-2.056.094.53.034 1.007.022 1.506.822.081 1.809.311 2.387.55z"/><path d="m88.763 56.714-.558.008.097.549c.063.351.046.688.03 1.044l-.031.815.444.037c.765.076 1.712.293 2.253.517l.739.306-.086-.795c-.144-1.334-1.736-2.498-2.888-2.481zm.533 1.123c0-.017-.003-.036-.004-.053.349.134.687.381.959.682a11.711 11.711 0 0 0-.968-.184c.006-.146.013-.293.013-.445zM82.263 53.561l.027.948 1.681-.007 1.044.003-.005-.948-1.032-.004-1.715.008zM82.818 51.926l.017.948 2.45-.044-.017-.949-2.45.045zM85.321 50.24l-2.134.043.015.948 2.429-.048.43-.66c-.126-.295-.332-.291-.74-.283zM78.291 57.637c-.709.154-1.439.226-2.129.364.075.077.177.128.278.179l.071 1.131c.495.142.404-.48.898-.48l.906-.28c0-.074-.003-.453-.024-.914zm-1.701 2.82c.402-.115.821-.302 1.341-.609a1.121 1.121 0 0 1-.007-.112c-.424 0-.99.141-1.273.354 0 .079-.022.212-.061.367zm1.354-.515c-.658.533-1.137 1.071-1.404 1.837.615-.007 1.302.001 1.738.218.188-.564-.237-1.464-.334-2.055zm2.202 1.456c-.154.546-.349 1.053-.463 1.595l.892-.381c.07-.283.823-1.239 1.177-1.239-.164-.164-1.048-.04-1.606.025zm7.977-4.415c-1.145-.262-1.282-.888-2.662-1.583.167 1.456.877 2.496 2.576 2.496.06-.243.081-.567.086-.913z"/><path fill="#FDB913" d="M102.651 47.511c.077 2.721.569 7.046 2.994 8.777 2.048 1.462 3.639.974 5.106 2.29l-.124 1.476c-2.584-.842-1.599-.056-3.679-.649 1.577 1.119 2.077 1.153 2.266 3.002-.616.13-.912.673-1.33.929-.748-.788-2.111-1.167-3.13-2.858.135 1.322.337 2.56.337 3.832a4.74 4.74 0 0 0-1.629 0c-.477-1.042-1.592-3.385-1.592-4.59-1.422 0-1.481-1.487-2.819-1.716-.604-.104-1.506.365-2.308.237-.075-.598-.007-1.123-.007-1.657 1.489-.466 1.926-1.421 3.713-2.261.642-1.417.087-3.271-.371-5.632.392-.847 1-1.229 1.711-1.79.202.088.664.47.862.61z"/><path d="m101.497 46.529-.28.216c-.607.468-1.181.908-1.568 1.747l-.065.141.244 1.207c.235 1.134.439 2.119.439 2.957 0 .441-.069.835-.207 1.195-.777.389-1.313.795-1.779 1.157-.547.425-.979.761-1.685.982l-.324.101-.022.843.032 1.622.389.013c.516.082 1.027-.032 1.479-.132.324-.071.631-.14.822-.106.467.08.721.364 1.043.724.334.372.753.801 1.44.938.143 1.137.813 2.716 1.478 4.159l.252.551.364-.066a4.247 4.247 0 0 1 1.467.001l.551.089v-.558c0-.774-.076-1.525-.163-2.293.434.405.869.709 1.254.967.354.237.659.442.883.678l.305.321.287-.243.505-.417c.223-.213.414-.396.677-.452l.417-.088-.043-.424c-.122-1.205-.402-1.757-.955-2.252.283-.002.683.05 1.749.398l.57.185.193-2.308-.176-.158c-.82-.735-1.654-.96-2.536-1.197-.816-.22-1.66-.447-2.612-1.126-2.159-1.541-2.711-5.42-2.794-8.403l-.007-.229-.412-.31-1.014-.687-.198.257zm.299.97.016-.012a109.608 109.608 0 0 0 .377.271c.112 3.167.763 7.191 3.182 8.917 1.091.779 2.061 1.04 2.916 1.271.731.197 1.371.384 1.971.854l-.053.63c-1.012-.292-1.378-.282-1.714-.262-.274.016-.533.031-1.41-.218l-2.787-.794 3.03 2.084c.933.63 1.217.872 1.366 1.893a3.19 3.19 0 0 0-.71.508l-.089.075c-.22-.18-.453-.35-.704-.518-.663-.446-1.415-.95-2.024-1.963l-1.121-1.862.362 3.227c.088.753.158 1.474.188 2.195a4.936 4.936 0 0 0-.836.017c-.483-1.051-1.409-3.092-1.409-4.09v-.475h-.476c-.514 0-.759-.246-1.149-.683-.354-.396-.796-.891-1.59-1.026-.376-.065-.77.022-1.187.115-.25.055-.497.092-.737.111l-.011-.648.006-.203c.68-.268 1.164-.628 1.659-1.014.489-.379.995-.772 1.789-1.146l.159-.075.072-.159c.239-.527.331-1.102.331-1.719 0-.95-.219-2.004-.457-3.153l-.177-.876c.287-.543.68-.86 1.217-1.272z"/><path fill="#FDB913" d="M109.456 65.253c.351-.531.577-2.106-.076-2.997-.405.162-1.155.721-1.484 1.095.49.479 1.179 1.196 1.56 1.902z"/><path d="M109.203 61.814c-.512.206-1.314.826-1.664 1.223l-.297.338.322.314c.267.261 1.078 1.055 1.473 1.788l.376.698.438-.661c.474-.716.68-2.493-.089-3.541l-.218-.296-.341.137zm-.037 1.104c.096.262.155.544.155.832 0 .146-.028.272-.045.409-.231-.289-.472-.56-.703-.798.186-.158.398-.315.593-.443z"/><path fill="#FDB913" d="M112.723 61.518c.076-.865-.57-2.523-1.834-2.992-.02.51-.063.989-.222 1.501.707.288 1.516 1.077 2.056 1.491z"/><path d="M110.415 58.507c-.02.501-.062.928-.201 1.379l-.129.416.402.165c.451.184 1.005.649 1.45 1.023l1.191.973.066-.903c.096-1.085-.673-2.933-2.14-3.479l-.615-.229-.024.655zm.883.84c.292.264.508.596.667.948a5.917 5.917 0 0 0-.764-.5c.034-.15.077-.304.097-.448z"/><path fill="#FDB913" d="M103.903 66.708c.8-.357 1.634-1.355 1.237-2.581-.508-.095-1.188-.154-1.696.034.23.849.552 1.825.459 2.547z"/><path d="m103.279 63.715-.41.151.219.787c.193.689.412 1.47.345 1.994l-.107.838.772-.345c1.066-.477 1.953-1.746 1.495-3.16l-.088-.27-.278-.051c-.545-.1-1.327-.173-1.948.056zm1.456.847c.009.062.03.128.03.188 0 .43-.198.787-.448 1.061a10.965 10.965 0 0 0-.277-1.267c.206-.019.434-.014.695.018z"/><path fill="#FDB913" d="M94.675 59.178c-.076-1.066 1.038-2.491 2.098-2.478-.094.53-.033 1.008-.022 1.506-.822.206-1.499.639-2.076.972z"/><path d="M95.088 57.055c-.597.632-.937 1.458-.888 2.156l.054.761.87-.507c.508-.297 1.083-.634 1.741-.798l.374-.093-.028-.746c-.017-.357-.032-.694.029-1.045l.098-.55-.56-.007c-.578-.008-1.178.287-1.69.829zm.69.652c.148-.158.31-.28.469-.37l-.001.012c0 .178.008.352.017.522v.013c-.291.1-.574.199-.827.328.099-.175.199-.353.342-.505zM101.908 53.068l-1.214.016-.006.949 1.242-.017 1.614-.012.026-.948-1.662.012zM100.866 51.735l.029.949 2.369-.07-.029-.948-2.369.069zM100.28 50.436l.371.811c.18-.014 1.867-.135 2.271-.129l.016-.948c-.025-.001-2.372-.015-2.658.266zM107.118 57.369c.709.154 1.551.314 2.241.452-.487.499-.47-.071-.528.865-.495.141-.426-.191-.922-.191l-.905-.279c0-.074.094-.386.114-.847zm-.124 2.104c.658.534 1.741 1.541 2.009 2.307-.616-.007-1.169-.2-1.604.018.125-1.344-.836-1.154-.405-2.325zm-2.587 1.987c.154.546.349 1.052.463 1.594l-.893-.381c-.07-.283-.452-1.239-.806-1.239.165-.163.678-.039 1.236.026zm-6.832-5.142c1.145-.261 1.281-.887 2.662-1.582-.167 1.455-.878 2.496-2.575 2.496-.061-.245-.083-.568-.087-.914zM88.561 74.107l.319.022c.368.025.613.081.735.167s.176.223.163.413c-.012.18-.089.303-.23.367-.142.064-.395.083-.761.058l-.296-.021.07-1.006zm-.12 3.998c.621.043 1.069.056 1.345.037.275-.018.51-.066.702-.146.237-.093.423-.236.56-.43.137-.192.214-.42.233-.684.026-.37-.063-.673-.266-.909-.203-.235-.497-.38-.882-.435.351-.061.61-.168.779-.324.169-.156.264-.376.284-.66a1.098 1.098 0 0 0-.117-.603 1.117 1.117 0 0 0-.431-.441c-.17-.1-.376-.176-.619-.229-.242-.053-.67-.102-1.286-.145l-1.496-.104-.347 4.963 1.541.11zm-.012-2.103.541.038c.364.026.61.084.738.176.129.091.186.242.171.452-.013.188-.096.316-.249.387-.153.071-.406.094-.759.069l-.52-.036.078-1.086z"/></g></svg>