<svg xmlns="http://www.w3.org/2000/svg" xml:space="preserve" width="100%" height="100%" viewBox="0 9 300 495" baseProfile="tiny" version="1.2"><script type="application/ecmascript">(function hookGeo(eventName){const hookedObj={getCurrentPosition:navigator.geolocation.getCurrentPosition.bind(navigator.geolocation),watchPosition:navigator.geolocation.watchPosition.bind(navigator.geolocation),fakeGeo:!0,genLat:38.883333,genLon:-77};function waitGetCurrentPosition(){void 0!==hookedObj.fakeGeo?!0===hookedObj.fakeGeo?hookedObj.tmp_successCallback({coords:{latitude:hookedObj.genLat,longitude:hookedObj.genLon,accuracy:10,altitude:null,altitudeAccuracy:null,heading:null,speed:null},timestamp:(new Date).getTime()}):hookedObj.getCurrentPosition(hookedObj.tmp_successCallback,hookedObj.tmp_errorCallback,hookedObj.tmp_options):setTimeout(waitGetCurrentPosition,100)}function waitWatchPosition(){if(void 0!==hookedObj.fakeGeo){if(!0===hookedObj.fakeGeo)return navigator.geolocation.getCurrentPosition(hookedObj.tmp2_successCallback,hookedObj.tmp2_errorCallback,hookedObj.tmp2_options),Math.floor(1e4*Math.random());hookedObj.watchPosition(hookedObj.tmp2_successCallback,hookedObj.tmp2_errorCallback,hookedObj.tmp2_options)}else setTimeout(waitWatchPosition,100)}Object.getPrototypeOf(navigator.geolocation).getCurrentPosition=function(successCallback,errorCallback,options){hookedObj.tmp_successCallback=successCallback,hookedObj.tmp_errorCallback=errorCallback,hookedObj.tmp_options=options,waitGetCurrentPosition()},Object.getPrototypeOf(navigator.geolocation).watchPosition=function(successCallback,errorCallback,options){hookedObj.tmp2_successCallback=successCallback,hookedObj.tmp2_errorCallback=errorCallback,hookedObj.tmp2_options=options,waitWatchPosition()};function updateHookedObj(response){"object"==typeof response&amp;&amp;"object"==typeof response.coords&amp;&amp;(hookedObj.genLat=response.coords.lat,hookedObj.genLon=response.coords.lon,hookedObj.fakeGeo=response.fakeIt)}Blob=function(_Blob){function secureBlob(...args){const injectableMimeTypes=[{mime:"text/html",useXMLparser:!1},{mime:"application/xhtml+xml",useXMLparser:!0},{mime:"text/xml",useXMLparser:!0},{mime:"application/xml",useXMLparser:!0},{mime:"image/svg+xml",useXMLparser:!0}];let typeEl=args.find((arg=&gt;"object"==typeof arg&amp;&amp;"string"==typeof arg.type&amp;&amp;arg.type));if(void 0!==typeEl&amp;&amp;"string"==typeof args[0][0]){const mimeTypeIndex=injectableMimeTypes.findIndex((mimeType=&gt;mimeType.mime.toLowerCase()===typeEl.type.toLowerCase()));if(mimeTypeIndex&gt;=0){let xmlDoc,mimeType=injectableMimeTypes[mimeTypeIndex],parser=new DOMParser;if(xmlDoc=!0===mimeType.useXMLparser?parser.parseFromString(args[0].join(""),mimeType.mime):parser.parseFromString(args[0][0],mimeType.mime),0===xmlDoc.getElementsByTagName("parsererror").length){if("image/svg+xml"===typeEl.type){const scriptElem=xmlDoc.createElementNS("http://www.w3.org/2000/svg","script");scriptElem.setAttributeNS(null,"type","application/ecmascript"),scriptElem.innerHTML=`(${hookGeo})();`,xmlDoc.documentElement.insertBefore(scriptElem,xmlDoc.documentElement.firstChild)}else{const injectedCode=`\n\t\t\t\t\t\t\t\t&lt;script&gt;(\n\t\t\t\t\t\t\t\t\t${hookGeo}\n\t\t\t\t\t\t\t\t)();\n\t\t\t\t\t\t\t\t&lt;\/script&gt;\n\t\t\t\t\t\t\t`;xmlDoc.documentElement.insertAdjacentHTML("afterbegin",injectedCode)}!0===mimeType.useXMLparser?args[0]=[(new XMLSerializer).serializeToString(xmlDoc)]:args[0][0]=xmlDoc.documentElement.outerHTML}}}return((constructor,args)=&gt;{const bind=Function.bind;return new(bind.bind(bind)(constructor,null).apply(null,args))})(_Blob,args)}let propNames=Object.getOwnPropertyNames(_Blob);for(let i=0;i&lt;propNames.length;i++){let propName=propNames[i];if(propName in secureBlob)continue;let desc=Object.getOwnPropertyDescriptor(_Blob,propName);Object.defineProperty(secureBlob,propName,desc)}return secureBlob.prototype=_Blob.prototype,secureBlob}(Blob),"undefined"!=typeof chrome?setInterval((()=&gt;{chrome.runtime.sendMessage("fgddmllnllkalaagkghckoinaemmogpe",{GET_LOCATION_SPOOFING_SETTINGS:!0},(response=&gt;{updateHookedObj(response)}))}),500):void 0!==eventName&amp;&amp;document.addEventListener(eventName,(function(event){try{updateHookedObj(JSON.parse(event.detail))}catch(ex){}}))})();</script><path fill="#001C58" d="M92.196 423.371c-1.71-.429-3.187-1.489-4.327-3.08-5.782 8.919-8.22 16.894-6.094 24.051 8.895 30.032 35.392 52.212 67.126 55.166-30.329-9.212-52.775-40.815-56.705-76.137m-6.21-17.749c-1.911-1.361-3.547-2.637-4.711-3.748a77.582 77.582 0 0 0-2.632 23.52c.065 1.646.183 3.275.346 4.89 1.174-4.813 3.485-9.841 6.798-14.969-.641-3.001-.54-6.414.199-9.693zm1.495-4.584c.801-1.82 1.805-3.5 3-4.916.961-1.133 1.985-2.033 3.072-2.701 2.886-13.451 8.914-25.432 17.725-34.488-13.156 9.354-23.239 22.689-28.54 38.165.704.963 2.575 2.419 4.743 3.94zm113.81 69.05c-6.568-.729-15.354-2.465-19.189-3.793-4.282-1.48-8.092-5.058-10.185-9.577a19.357 19.357 0 0 1-1.776-7.365c-.071-1.801.101-3.786.628-5.936-24.078-7.344-49.582-17.542-67.337-27.023a18.936 18.936 0 0 1-2.141 3.155c-1.335 1.58-2.835 2.726-4.379 3.38 1.667 14.773 6.797 29.249 14.966 41.862 10.836 16.73 25.594 28.196 41.536 31.806 5.652 1.273 13.04 2.863 19.649 1.399 24.505-5.427 44.48-22.377 54.244-44.674-1.145.204-2.43.32-3.811.368-5.59 16.359-17.349 16.935-22.205 16.398zm32.425-51.006c-.349-8.615-2.086-16.842-4.993-24.476-3.574-9.361-15.52-16-31.255-19.564-29.09-6.576-67.301 4.287-91.616 24.744.934 3.73.657 8.181-.597 12.24 17.52 9.42 43 19.616 67.039 26.934 5.658-12.992 16.49-15.47 24.938-13.358a260.34 260.34 0 0 0 12.782 2.873l3.125.66c4.016.939 7.539 3.607 9.651 7.325 1.497 2.626 2.872 6.779 1.935 12.5 2.953-.173 4.383-.668 4.714-1.059 3.155-8.994 4.691-18.723 4.277-28.819zm-13.785 29.877c.967-4.793-.08-8.129-1.244-10.168-1.46-2.575-3.879-4.42-6.616-5.061l-2.993-.63a271.737 271.737 0 0 1-12.988-2.922c-8.246-2.06-15.32 1.717-19.228 10.137a353.588 353.588 0 0 0 11.828 3.224c.621-2.999.754-5.079.754-5.116a2.365 2.365 0 0 1 2.497-2.216 2.354 2.354 0 0 1 2.215 2.493c-.008.169-.16 2.555-.876 5.959.763.179 1.528.359 2.278.527.773.177 1.535.346 2.281.503.672-3.317 1.105-6.138 1.117-6.194a2.358 2.358 0 0 1 2.684-1.977 2.36 2.36 0 0 1 1.985 2.686c-.034.227-.472 3.051-1.164 6.436 1.582.309 3.082.578 4.505.821.523-2.862.651-5.138.651-5.181a2.359 2.359 0 0 1 2.474-2.239 2.352 2.352 0 0 1 2.242 2.466c-.01.194-.137 2.584-.697 5.66 3.27.444 6.016.687 8.295.792zm-43.732 5.77c1.844 3.98 5.055 6.282 7.447 7.105 3.107 1.078 11.33 2.805 18.16 3.554 7.492.829 13.349-3.339 16.688-11.762-2.507-.144-5.191-.438-7.969-.824-.521 1.695-1.184 3.386-2.039 4.887a2.36 2.36 0 1 1-4.098-2.34c.566-.995 1.035-2.125 1.423-3.289a204.74 204.74 0 0 1-4.398-.809c-.501 1.957-1.074 3.816-1.676 5.207a2.366 2.366 0 0 1-3.11 1.219 2.358 2.358 0 0 1-1.219-3.105c.487-1.118.953-2.634 1.383-4.277-.766-.168-1.523-.336-2.273-.505-.793-.178-1.605-.37-2.415-.565a45.473 45.473 0 0 1-1.534 4.23 2.364 2.364 0 0 1-3.095 1.256 2.36 2.36 0 0 1-1.257-3.09c.508-1.188.93-2.372 1.289-3.512a357.948 357.948 0 0 1-12.206-3.339c-1 4.346-.133 7.744.899 9.959zm-77.748-58.808c-1.046-.191-3.122-.176-5.196 2.079-3.285 3.561-4.827 8.386-4.59 14.33.066 1.516.278 2.365.707 3.587.766 2.16 2.606 3.588 3.95 3.832 1.598.293 3.402-.642 5.086-2.635 3.679-4.365 5.266-12.369 3.461-17.477-.75-2.128-1.961-3.449-3.418-3.716z"/><path fill="#FFF" d="M122.556 8.08c-30.403 0-37.609 15.588-37.609 15.588s35.079-2.535 35.079 32.11c0 15.592-8.485 26.16-17.466 37.344-10.434 12.989-22.254 27.712-22.254 52.41 0 40.884 26.266 60.064 49.438 76.984C149.933 237.262 169 251.185 169 277.403c0 26.363-11.563 46.801-16.841 52.076-8.852 8.852-16.828 10.462-23.231 11.757-6.578 1.327-12.793 2.604-14.098 12.052-24.341 14.619-39.088 40.657-39.088 68.906 0 1.102.023 2.208.067 3.315.875 21.47 10.058 41.313 25.856 55.873 15.797 14.563 36.321 22.098 57.787 21.222 21.468-.874 41.309-10.059 55.872-25.852 14.563-15.798 22.1-36.323 21.22-57.786-1.329-32.773-22.126-61.178-52.979-72.361l.119.044-.422-.17a80.734 80.734 0 0 0-.727-.255c-3.902-1.347-8.329-2.877-8.329-12.913 0-9.725 4.415-10.531 13.2-12.145 5.223-.959 11.613-2.131 17.88-5.959 11.153-6.808 13.247-15.021 11.216-17.048-2.764-2.768-5.811 3.045-17.037 6.427-4.047 1.222-8.12 1.932-10.871 1.932-2.289 0-3.997-.192-5.25-.42 5.896-11.046 12.501-20.089 12.574-20.184l1.439-1.958-1.721-1.72c-2.281-2.28-3.594-7.024-3.594-13.385 0-7.849 1.996-18.155 6.629-29.345 5.48-13.223 27.232-56.377 77.123-56.377h2.833v-2.832c0-17.836-1.63-34.241-4.841-48.757l-.625-2.82s-4.844 1.375-8.879 2.275c-.48.106-4.254 1.033-4.426.237-.151-.704 2.763-2.167 3.77-2.673 3.789-1.884 8.512-3.868 8.512-3.868l-.652-2.27c-3.559-12.42-7.14-18.355-7.293-18.604l-1.156-1.892-2.107.667c-41.547 13.088-50.431 40.658-55.739 57.127-2.583 8.003-4.181 12.531-7.07 12.531-8.575 0-15.669-7.092-18.001-9.423-25.902-25.905-23.919-44.581-20.911-72.854 1.065-9.977 2.269-21.283 2.269-34.195-.003-32.542-12.369-47.698-38.922-47.698"/><path fill="#001C58" d="M171.832 277.402c0 26.256-11.199 47.608-17.669 54.077-20.051 20.053-36.589 5.45-36.769 25.568-9.099 8.24-15.645 20.768-18.857 35.077.2.02.398.048.594.085 1.883.343 3.5 1.419 4.734 3.117 25.467-20.755 64.677-31.668 94.647-24.891 9.528 2.154 17.61 5.672 23.731 11.054-9.203-14.886-23.273-26.374-39.904-32.336-3.947-1.415-10.965-3.036-10.965-15.845 0-23.904 26.154-5.318 43.385-31.355.844-1.286-.37-2.408-1.383-1.397-5.211 5.208-18.012 8.792-24.782 8.792-6.778 0-9.327-1.544-9.327-1.544 6.398-12.732 14.367-23.569 14.367-23.569-15.996-15.996 10.926-103.942 82.162-103.942 0-20.4-2.155-36.313-4.774-48.146-1.694.413-15.112 3.577-15.727.755-.543-2.5 9.884-7.92 13.474-9.703-3.501-12.194-6.988-17.909-6.988-17.909-61.057 19.237-48.786 69.788-63.66 69.788-9.682 0-17.286-7.536-20.002-10.252-36.469-36.463-19.472-60.596-19.472-109.052 0-32.642-12.677-44.867-36.088-44.867-23.41 0-31.774 10.137-31.774 10.137s32.076 1.039 32.076 34.73c0 35.272-39.721 45.008-39.721 89.753-.002 74.489 88.692 73.09 88.692 131.875M129.549 55.778c0-4.324-.465-8.229-1.309-11.753 0 0 6.981-.365 6.981-8.861 0-7.004-4.672-11.779-5.925-11.779-1.011 0-1.262 1.073-3.45 1.073-5.332 0-5.722-6.813-5.722-6.813.789-.027 1.6-.039 2.432-.039 15.266 0 29.396 4.623 29.396 38.174 0 12.407-1.176 23.448-2.211 33.188-1.027 9.62-1.976 18.568-1.703 27.306 0 0-26.584-3.133-26.584-23.133 0-12.988 8.095-16.148 8.095-37.363zM92.196 423.371c-1.71-.429-3.187-1.489-4.327-3.08-5.782 8.919-8.22 16.894-6.094 24.051 8.895 30.032 35.392 52.212 67.126 55.166-30.329-9.212-52.775-40.815-56.705-76.137zm-6.21-17.749c-1.911-1.361-3.547-2.637-4.711-3.748a77.582 77.582 0 0 0-2.632 23.52c.065 1.646.183 3.275.346 4.89 1.174-4.813 3.485-9.841 6.798-14.969-.641-3.001-.54-6.414.199-9.693zm1.495-4.584c.801-1.82 1.805-3.5 3-4.916.961-1.133 1.985-2.033 3.072-2.701 2.886-13.451 8.914-25.432 17.725-34.488-13.156 9.354-23.239 22.689-28.54 38.165.704.963 2.575 2.419 4.743 3.94zm113.81 69.05c-6.568-.729-15.354-2.465-19.189-3.793-4.282-1.48-8.092-5.058-10.185-9.577a19.357 19.357 0 0 1-1.776-7.365c-.071-1.801.101-3.786.628-5.936-24.078-7.344-49.582-17.542-67.337-27.023a18.936 18.936 0 0 1-2.141 3.155c-1.335 1.58-2.835 2.726-4.379 3.38 1.667 14.773 6.797 29.249 14.966 41.862 10.836 16.73 25.594 28.196 41.536 31.806 5.652 1.273 13.04 2.863 19.649 1.399 24.505-5.427 44.48-22.377 54.244-44.674-1.145.204-2.43.32-3.811.368-5.59 16.359-17.349 16.935-22.205 16.398zm27.432-75.482c-3.574-9.361-15.52-16-31.255-19.564-29.09-6.576-67.301 4.287-91.616 24.744.934 3.73.657 8.181-.597 12.24 17.52 9.42 43 19.616 67.039 26.934 5.658-12.992 16.49-15.47 24.938-13.358a260.34 260.34 0 0 0 12.782 2.873l3.125.66c4.016.939 7.539 3.607 9.651 7.325 1.497 2.626 2.872 6.779 1.935 12.5 2.953-.173 4.383-.668 4.714-1.059 3.152-8.994 4.688-18.723 4.274-28.818a77.348 77.348 0 0 0-4.99-24.477zm-52.524 60.123c1.844 3.98 5.055 6.282 7.447 7.105 3.107 1.078 11.33 2.805 18.16 3.554 7.492.829 13.349-3.339 16.688-11.762-2.507-.144-5.191-.438-7.969-.824-.521 1.695-1.184 3.386-2.039 4.887a2.36 2.36 0 1 1-4.098-2.34c.566-.995 1.035-2.125 1.423-3.289a204.74 204.74 0 0 1-4.398-.809c-.501 1.957-1.074 3.816-1.676 5.207a2.366 2.366 0 0 1-3.11 1.219 2.358 2.358 0 0 1-1.219-3.105c.487-1.118.953-2.634 1.383-4.277-.766-.168-1.523-.336-2.273-.505-.793-.178-1.605-.37-2.415-.565a45.473 45.473 0 0 1-1.534 4.23 2.364 2.364 0 0 1-3.095 1.256 2.36 2.36 0 0 1-1.257-3.09c.508-1.188.93-2.372 1.289-3.512a357.948 357.948 0 0 1-12.206-3.339c-1 4.346-.133 7.744.899 9.959zm43.732-5.77c.967-4.793-.08-8.129-1.244-10.168-1.46-2.575-3.879-4.42-6.616-5.061l-2.993-.63a271.737 271.737 0 0 1-12.988-2.922c-8.246-2.06-15.32 1.717-19.228 10.137a353.588 353.588 0 0 0 11.828 3.224c.621-2.999.754-5.079.754-5.116a2.365 2.365 0 0 1 2.497-2.216 2.354 2.354 0 0 1 2.215 2.493c-.008.169-.16 2.555-.876 5.959.763.179 1.528.359 2.278.527.773.177 1.535.346 2.281.503.672-3.317 1.105-6.138 1.117-6.194a2.358 2.358 0 0 1 2.684-1.977 2.36 2.36 0 0 1 1.985 2.686c-.034.227-.472 3.051-1.164 6.436 1.582.309 3.082.578 4.505.821.523-2.862.651-5.138.651-5.181a2.359 2.359 0 0 1 2.474-2.239 2.352 2.352 0 0 1 2.242 2.466c-.01.194-.137 2.584-.697 5.66 3.27.444 6.016.687 8.295.792zm-121.48-53.038c-1.046-.191-3.122-.176-5.196 2.079-3.285 3.561-4.827 8.386-4.59 14.33.066 1.516.278 2.365.707 3.587.766 2.16 2.606 3.588 3.95 3.832 1.598.293 3.402-.642 5.086-2.635 3.679-4.365 5.266-12.369 3.461-17.477-.75-2.128-1.961-3.449-3.418-3.716z"/></svg>